<?xml version="1.0" encoding="utf-8" standalone="no"?>
<!DOCTYPE svg PUBLIC "-//W3C//DTD SVG 1.1//EN"
  "http://www.w3.org/Graphics/SVG/1.1/DTD/svg11.dtd">
<!-- Created with matplotlib (http://matplotlib.org/) -->
<svg height="259.2pt" version="1.1" viewBox="0 0 518.4 259.2" width="518.4pt" xmlns="http://www.w3.org/2000/svg" xmlns:xlink="http://www.w3.org/1999/xlink">
 <defs>
  <style type="text/css">
*{stroke-linecap:butt;stroke-linejoin:round;}
  </style>
 </defs>
 <g id="figure_1">
  <g id="patch_1">
   <path d="M 0 259.2 
L 518.4 259.2 
L 518.4 0 
L 0 0 
z
" style="fill:#ffffff;"/>
  </g>
  <g id="axes_1">
   <g id="patch_2">
    <path d="M 47.38125 218.04375 
L 258.728125 218.04375 
L 258.728125 36.288 
L 47.38125 36.288 
z
" style="fill:#ffffff;"/>
   </g>
   <g id="matplotlib.axis_1">
    <g id="xtick_1">
     <g id="line2d_1">
      <defs>
       <path d="M 0 0 
L 0 3.5 
" id="m3e3212ae56" style="stroke:#000000;stroke-width:0.8;"/>
      </defs>
      <g>
       <use style="stroke:#000000;stroke-width:0.8;" x="47.38125" xlink:href="#m3e3212ae56" y="218.04375"/>
      </g>
     </g>
     <g id="text_1">
      <!-- 0 -->
      <defs>
       <path d="M 31.78125 66.40625 
Q 24.171875 66.40625 20.328125 58.90625 
Q 16.5 51.421875 16.5 36.375 
Q 16.5 21.390625 20.328125 13.890625 
Q 24.171875 6.390625 31.78125 6.390625 
Q 39.453125 6.390625 43.28125 13.890625 
Q 47.125 21.390625 47.125 36.375 
Q 47.125 51.421875 43.28125 58.90625 
Q 39.453125 66.40625 31.78125 66.40625 
z
M 31.78125 74.21875 
Q 44.046875 74.21875 50.515625 64.515625 
Q 56.984375 54.828125 56.984375 36.375 
Q 56.984375 17.96875 50.515625 8.265625 
Q 44.046875 -1.421875 31.78125 -1.421875 
Q 19.53125 -1.421875 13.0625 8.265625 
Q 6.59375 17.96875 6.59375 36.375 
Q 6.59375 54.828125 13.0625 64.515625 
Q 19.53125 74.21875 31.78125 74.21875 
z
" id="DejaVuSans-30"/>
      </defs>
      <g transform="translate(44.2 232.642187)scale(0.1 -0.1)">
       <use xlink:href="#DejaVuSans-30"/>
      </g>
     </g>
    </g>
    <g id="xtick_2">
     <g id="line2d_2">
      <g>
       <use style="stroke:#000000;stroke-width:0.8;" x="68.515938" xlink:href="#m3e3212ae56" y="218.04375"/>
      </g>
     </g>
     <g id="text_2">
      <!-- 1 -->
      <defs>
       <path d="M 12.40625 8.296875 
L 28.515625 8.296875 
L 28.515625 63.921875 
L 10.984375 60.40625 
L 10.984375 69.390625 
L 28.421875 72.90625 
L 38.28125 72.90625 
L 38.28125 8.296875 
L 54.390625 8.296875 
L 54.390625 0 
L 12.40625 0 
z
" id="DejaVuSans-31"/>
      </defs>
      <g transform="translate(65.334688 232.642187)scale(0.1 -0.1)">
       <use xlink:href="#DejaVuSans-31"/>
      </g>
     </g>
    </g>
    <g id="xtick_3">
     <g id="line2d_3">
      <g>
       <use style="stroke:#000000;stroke-width:0.8;" x="89.650625" xlink:href="#m3e3212ae56" y="218.04375"/>
      </g>
     </g>
     <g id="text_3">
      <!-- 2 -->
      <defs>
       <path d="M 19.1875 8.296875 
L 53.609375 8.296875 
L 53.609375 0 
L 7.328125 0 
L 7.328125 8.296875 
Q 12.9375 14.109375 22.625 23.890625 
Q 32.328125 33.6875 34.8125 36.53125 
Q 39.546875 41.84375 41.421875 45.53125 
Q 43.3125 49.21875 43.3125 52.78125 
Q 43.3125 58.59375 39.234375 62.25 
Q 35.15625 65.921875 28.609375 65.921875 
Q 23.96875 65.921875 18.8125 64.3125 
Q 13.671875 62.703125 7.8125 59.421875 
L 7.8125 69.390625 
Q 13.765625 71.78125 18.9375 73 
Q 24.125 74.21875 28.421875 74.21875 
Q 39.75 74.21875 46.484375 68.546875 
Q 53.21875 62.890625 53.21875 53.421875 
Q 53.21875 48.921875 51.53125 44.890625 
Q 49.859375 40.875 45.40625 35.40625 
Q 44.1875 33.984375 37.640625 27.21875 
Q 31.109375 20.453125 19.1875 8.296875 
z
" id="DejaVuSans-32"/>
      </defs>
      <g transform="translate(86.469375 232.642187)scale(0.1 -0.1)">
       <use xlink:href="#DejaVuSans-32"/>
      </g>
     </g>
    </g>
    <g id="xtick_4">
     <g id="line2d_4">
      <g>
       <use style="stroke:#000000;stroke-width:0.8;" x="110.785313" xlink:href="#m3e3212ae56" y="218.04375"/>
      </g>
     </g>
     <g id="text_4">
      <!-- 3 -->
      <defs>
       <path d="M 40.578125 39.3125 
Q 47.65625 37.796875 51.625 33 
Q 55.609375 28.21875 55.609375 21.1875 
Q 55.609375 10.40625 48.1875 4.484375 
Q 40.765625 -1.421875 27.09375 -1.421875 
Q 22.515625 -1.421875 17.65625 -0.515625 
Q 12.796875 0.390625 7.625 2.203125 
L 7.625 11.71875 
Q 11.71875 9.328125 16.59375 8.109375 
Q 21.484375 6.890625 26.8125 6.890625 
Q 36.078125 6.890625 40.9375 10.546875 
Q 45.796875 14.203125 45.796875 21.1875 
Q 45.796875 27.640625 41.28125 31.265625 
Q 36.765625 34.90625 28.71875 34.90625 
L 20.21875 34.90625 
L 20.21875 43.015625 
L 29.109375 43.015625 
Q 36.375 43.015625 40.234375 45.921875 
Q 44.09375 48.828125 44.09375 54.296875 
Q 44.09375 59.90625 40.109375 62.90625 
Q 36.140625 65.921875 28.71875 65.921875 
Q 24.65625 65.921875 20.015625 65.03125 
Q 15.375 64.15625 9.8125 62.3125 
L 9.8125 71.09375 
Q 15.4375 72.65625 20.34375 73.4375 
Q 25.25 74.21875 29.59375 74.21875 
Q 40.828125 74.21875 47.359375 69.109375 
Q 53.90625 64.015625 53.90625 55.328125 
Q 53.90625 49.265625 50.4375 45.09375 
Q 46.96875 40.921875 40.578125 39.3125 
z
" id="DejaVuSans-33"/>
      </defs>
      <g transform="translate(107.604062 232.642187)scale(0.1 -0.1)">
       <use xlink:href="#DejaVuSans-33"/>
      </g>
     </g>
    </g>
    <g id="xtick_5">
     <g id="line2d_5">
      <g>
       <use style="stroke:#000000;stroke-width:0.8;" x="131.92" xlink:href="#m3e3212ae56" y="218.04375"/>
      </g>
     </g>
     <g id="text_5">
      <!-- 4 -->
      <defs>
       <path d="M 37.796875 64.3125 
L 12.890625 25.390625 
L 37.796875 25.390625 
z
M 35.203125 72.90625 
L 47.609375 72.90625 
L 47.609375 25.390625 
L 58.015625 25.390625 
L 58.015625 17.1875 
L 47.609375 17.1875 
L 47.609375 0 
L 37.796875 0 
L 37.796875 17.1875 
L 4.890625 17.1875 
L 4.890625 26.703125 
z
" id="DejaVuSans-34"/>
      </defs>
      <g transform="translate(128.73875 232.642187)scale(0.1 -0.1)">
       <use xlink:href="#DejaVuSans-34"/>
      </g>
     </g>
    </g>
    <g id="xtick_6">
     <g id="line2d_6">
      <g>
       <use style="stroke:#000000;stroke-width:0.8;" x="153.054688" xlink:href="#m3e3212ae56" y="218.04375"/>
      </g>
     </g>
     <g id="text_6">
      <!-- 5 -->
      <defs>
       <path d="M 10.796875 72.90625 
L 49.515625 72.90625 
L 49.515625 64.59375 
L 19.828125 64.59375 
L 19.828125 46.734375 
Q 21.96875 47.46875 24.109375 47.828125 
Q 26.265625 48.1875 28.421875 48.1875 
Q 40.625 48.1875 47.75 41.5 
Q 54.890625 34.8125 54.890625 23.390625 
Q 54.890625 11.625 47.5625 5.09375 
Q 40.234375 -1.421875 26.90625 -1.421875 
Q 22.3125 -1.421875 17.546875 -0.640625 
Q 12.796875 0.140625 7.71875 1.703125 
L 7.71875 11.625 
Q 12.109375 9.234375 16.796875 8.0625 
Q 21.484375 6.890625 26.703125 6.890625 
Q 35.15625 6.890625 40.078125 11.328125 
Q 45.015625 15.765625 45.015625 23.390625 
Q 45.015625 31 40.078125 35.4375 
Q 35.15625 39.890625 26.703125 39.890625 
Q 22.75 39.890625 18.8125 39.015625 
Q 14.890625 38.140625 10.796875 36.28125 
z
" id="DejaVuSans-35"/>
      </defs>
      <g transform="translate(149.873437 232.642187)scale(0.1 -0.1)">
       <use xlink:href="#DejaVuSans-35"/>
      </g>
     </g>
    </g>
    <g id="xtick_7">
     <g id="line2d_7">
      <g>
       <use style="stroke:#000000;stroke-width:0.8;" x="174.189375" xlink:href="#m3e3212ae56" y="218.04375"/>
      </g>
     </g>
     <g id="text_7">
      <!-- 6 -->
      <defs>
       <path d="M 33.015625 40.375 
Q 26.375 40.375 22.484375 35.828125 
Q 18.609375 31.296875 18.609375 23.390625 
Q 18.609375 15.53125 22.484375 10.953125 
Q 26.375 6.390625 33.015625 6.390625 
Q 39.65625 6.390625 43.53125 10.953125 
Q 47.40625 15.53125 47.40625 23.390625 
Q 47.40625 31.296875 43.53125 35.828125 
Q 39.65625 40.375 33.015625 40.375 
z
M 52.59375 71.296875 
L 52.59375 62.3125 
Q 48.875 64.0625 45.09375 64.984375 
Q 41.3125 65.921875 37.59375 65.921875 
Q 27.828125 65.921875 22.671875 59.328125 
Q 17.53125 52.734375 16.796875 39.40625 
Q 19.671875 43.65625 24.015625 45.921875 
Q 28.375 48.1875 33.59375 48.1875 
Q 44.578125 48.1875 50.953125 41.515625 
Q 57.328125 34.859375 57.328125 23.390625 
Q 57.328125 12.15625 50.6875 5.359375 
Q 44.046875 -1.421875 33.015625 -1.421875 
Q 20.359375 -1.421875 13.671875 8.265625 
Q 6.984375 17.96875 6.984375 36.375 
Q 6.984375 53.65625 15.1875 63.9375 
Q 23.390625 74.21875 37.203125 74.21875 
Q 40.921875 74.21875 44.703125 73.484375 
Q 48.484375 72.75 52.59375 71.296875 
z
" id="DejaVuSans-36"/>
      </defs>
      <g transform="translate(171.008125 232.642187)scale(0.1 -0.1)">
       <use xlink:href="#DejaVuSans-36"/>
      </g>
     </g>
    </g>
    <g id="xtick_8">
     <g id="line2d_8">
      <g>
       <use style="stroke:#000000;stroke-width:0.8;" x="195.324063" xlink:href="#m3e3212ae56" y="218.04375"/>
      </g>
     </g>
     <g id="text_8">
      <!-- 7 -->
      <defs>
       <path d="M 8.203125 72.90625 
L 55.078125 72.90625 
L 55.078125 68.703125 
L 28.609375 0 
L 18.3125 0 
L 43.21875 64.59375 
L 8.203125 64.59375 
z
" id="DejaVuSans-37"/>
      </defs>
      <g transform="translate(192.142813 232.642187)scale(0.1 -0.1)">
       <use xlink:href="#DejaVuSans-37"/>
      </g>
     </g>
    </g>
    <g id="xtick_9">
     <g id="line2d_9">
      <g>
       <use style="stroke:#000000;stroke-width:0.8;" x="216.45875" xlink:href="#m3e3212ae56" y="218.04375"/>
      </g>
     </g>
     <g id="text_9">
      <!-- 8 -->
      <defs>
       <path d="M 31.78125 34.625 
Q 24.75 34.625 20.71875 30.859375 
Q 16.703125 27.09375 16.703125 20.515625 
Q 16.703125 13.921875 20.71875 10.15625 
Q 24.75 6.390625 31.78125 6.390625 
Q 38.8125 6.390625 42.859375 10.171875 
Q 46.921875 13.96875 46.921875 20.515625 
Q 46.921875 27.09375 42.890625 30.859375 
Q 38.875 34.625 31.78125 34.625 
z
M 21.921875 38.8125 
Q 15.578125 40.375 12.03125 44.71875 
Q 8.5 49.078125 8.5 55.328125 
Q 8.5 64.0625 14.71875 69.140625 
Q 20.953125 74.21875 31.78125 74.21875 
Q 42.671875 74.21875 48.875 69.140625 
Q 55.078125 64.0625 55.078125 55.328125 
Q 55.078125 49.078125 51.53125 44.71875 
Q 48 40.375 41.703125 38.8125 
Q 48.828125 37.15625 52.796875 32.3125 
Q 56.78125 27.484375 56.78125 20.515625 
Q 56.78125 9.90625 50.3125 4.234375 
Q 43.84375 -1.421875 31.78125 -1.421875 
Q 19.734375 -1.421875 13.25 4.234375 
Q 6.78125 9.90625 6.78125 20.515625 
Q 6.78125 27.484375 10.78125 32.3125 
Q 14.796875 37.15625 21.921875 38.8125 
z
M 18.3125 54.390625 
Q 18.3125 48.734375 21.84375 45.5625 
Q 25.390625 42.390625 31.78125 42.390625 
Q 38.140625 42.390625 41.71875 45.5625 
Q 45.3125 48.734375 45.3125 54.390625 
Q 45.3125 60.0625 41.71875 63.234375 
Q 38.140625 66.40625 31.78125 66.40625 
Q 25.390625 66.40625 21.84375 63.234375 
Q 18.3125 60.0625 18.3125 54.390625 
z
" id="DejaVuSans-38"/>
      </defs>
      <g transform="translate(213.2775 232.642187)scale(0.1 -0.1)">
       <use xlink:href="#DejaVuSans-38"/>
      </g>
     </g>
    </g>
    <g id="xtick_10">
     <g id="line2d_10">
      <g>
       <use style="stroke:#000000;stroke-width:0.8;" x="237.593437" xlink:href="#m3e3212ae56" y="218.04375"/>
      </g>
     </g>
     <g id="text_10">
      <!-- 9 -->
      <defs>
       <path d="M 10.984375 1.515625 
L 10.984375 10.5 
Q 14.703125 8.734375 18.5 7.8125 
Q 22.3125 6.890625 25.984375 6.890625 
Q 35.75 6.890625 40.890625 13.453125 
Q 46.046875 20.015625 46.78125 33.40625 
Q 43.953125 29.203125 39.59375 26.953125 
Q 35.25 24.703125 29.984375 24.703125 
Q 19.046875 24.703125 12.671875 31.3125 
Q 6.296875 37.9375 6.296875 49.421875 
Q 6.296875 60.640625 12.9375 67.421875 
Q 19.578125 74.21875 30.609375 74.21875 
Q 43.265625 74.21875 49.921875 64.515625 
Q 56.59375 54.828125 56.59375 36.375 
Q 56.59375 19.140625 48.40625 8.859375 
Q 40.234375 -1.421875 26.421875 -1.421875 
Q 22.703125 -1.421875 18.890625 -0.6875 
Q 15.09375 0.046875 10.984375 1.515625 
z
M 30.609375 32.421875 
Q 37.25 32.421875 41.125 36.953125 
Q 45.015625 41.5 45.015625 49.421875 
Q 45.015625 57.28125 41.125 61.84375 
Q 37.25 66.40625 30.609375 66.40625 
Q 23.96875 66.40625 20.09375 61.84375 
Q 16.21875 57.28125 16.21875 49.421875 
Q 16.21875 41.5 20.09375 36.953125 
Q 23.96875 32.421875 30.609375 32.421875 
z
" id="DejaVuSans-39"/>
      </defs>
      <g transform="translate(234.412187 232.642187)scale(0.1 -0.1)">
       <use xlink:href="#DejaVuSans-39"/>
      </g>
     </g>
    </g>
    <g id="text_11">
     <!-- Stimulus Numerosity -->
     <defs>
      <path d="M 53.515625 70.515625 
L 53.515625 60.890625 
Q 47.90625 63.578125 42.921875 64.890625 
Q 37.9375 66.21875 33.296875 66.21875 
Q 25.25 66.21875 20.875 63.09375 
Q 16.5 59.96875 16.5 54.203125 
Q 16.5 49.359375 19.40625 46.890625 
Q 22.3125 44.4375 30.421875 42.921875 
L 36.375 41.703125 
Q 47.40625 39.59375 52.65625 34.296875 
Q 57.90625 29 57.90625 20.125 
Q 57.90625 9.515625 50.796875 4.046875 
Q 43.703125 -1.421875 29.984375 -1.421875 
Q 24.8125 -1.421875 18.96875 -0.25 
Q 13.140625 0.921875 6.890625 3.21875 
L 6.890625 13.375 
Q 12.890625 10.015625 18.65625 8.296875 
Q 24.421875 6.59375 29.984375 6.59375 
Q 38.421875 6.59375 43.015625 9.90625 
Q 47.609375 13.234375 47.609375 19.390625 
Q 47.609375 24.75 44.3125 27.78125 
Q 41.015625 30.8125 33.5 32.328125 
L 27.484375 33.5 
Q 16.453125 35.6875 11.515625 40.375 
Q 6.59375 45.0625 6.59375 53.421875 
Q 6.59375 63.09375 13.40625 68.65625 
Q 20.21875 74.21875 32.171875 74.21875 
Q 37.3125 74.21875 42.625 73.28125 
Q 47.953125 72.359375 53.515625 70.515625 
z
" id="DejaVuSans-53"/>
      <path d="M 18.3125 70.21875 
L 18.3125 54.6875 
L 36.8125 54.6875 
L 36.8125 47.703125 
L 18.3125 47.703125 
L 18.3125 18.015625 
Q 18.3125 11.328125 20.140625 9.421875 
Q 21.96875 7.515625 27.59375 7.515625 
L 36.8125 7.515625 
L 36.8125 0 
L 27.59375 0 
Q 17.1875 0 13.234375 3.875 
Q 9.28125 7.765625 9.28125 18.015625 
L 9.28125 47.703125 
L 2.6875 47.703125 
L 2.6875 54.6875 
L 9.28125 54.6875 
L 9.28125 70.21875 
z
" id="DejaVuSans-74"/>
      <path d="M 9.421875 54.6875 
L 18.40625 54.6875 
L 18.40625 0 
L 9.421875 0 
z
M 9.421875 75.984375 
L 18.40625 75.984375 
L 18.40625 64.59375 
L 9.421875 64.59375 
z
" id="DejaVuSans-69"/>
      <path d="M 52 44.1875 
Q 55.375 50.25 60.0625 53.125 
Q 64.75 56 71.09375 56 
Q 79.640625 56 84.28125 50.015625 
Q 88.921875 44.046875 88.921875 33.015625 
L 88.921875 0 
L 79.890625 0 
L 79.890625 32.71875 
Q 79.890625 40.578125 77.09375 44.375 
Q 74.3125 48.1875 68.609375 48.1875 
Q 61.625 48.1875 57.5625 43.546875 
Q 53.515625 38.921875 53.515625 30.90625 
L 53.515625 0 
L 44.484375 0 
L 44.484375 32.71875 
Q 44.484375 40.625 41.703125 44.40625 
Q 38.921875 48.1875 33.109375 48.1875 
Q 26.21875 48.1875 22.15625 43.53125 
Q 18.109375 38.875 18.109375 30.90625 
L 18.109375 0 
L 9.078125 0 
L 9.078125 54.6875 
L 18.109375 54.6875 
L 18.109375 46.1875 
Q 21.1875 51.21875 25.484375 53.609375 
Q 29.78125 56 35.6875 56 
Q 41.65625 56 45.828125 52.96875 
Q 50 49.953125 52 44.1875 
z
" id="DejaVuSans-6d"/>
      <path d="M 8.5 21.578125 
L 8.5 54.6875 
L 17.484375 54.6875 
L 17.484375 21.921875 
Q 17.484375 14.15625 20.5 10.265625 
Q 23.53125 6.390625 29.59375 6.390625 
Q 36.859375 6.390625 41.078125 11.03125 
Q 45.3125 15.671875 45.3125 23.6875 
L 45.3125 54.6875 
L 54.296875 54.6875 
L 54.296875 0 
L 45.3125 0 
L 45.3125 8.40625 
Q 42.046875 3.421875 37.71875 1 
Q 33.40625 -1.421875 27.6875 -1.421875 
Q 18.265625 -1.421875 13.375 4.4375 
Q 8.5 10.296875 8.5 21.578125 
z
M 31.109375 56 
z
" id="DejaVuSans-75"/>
      <path d="M 9.421875 75.984375 
L 18.40625 75.984375 
L 18.40625 0 
L 9.421875 0 
z
" id="DejaVuSans-6c"/>
      <path d="M 44.28125 53.078125 
L 44.28125 44.578125 
Q 40.484375 46.53125 36.375 47.5 
Q 32.28125 48.484375 27.875 48.484375 
Q 21.1875 48.484375 17.84375 46.4375 
Q 14.5 44.390625 14.5 40.28125 
Q 14.5 37.15625 16.890625 35.375 
Q 19.28125 33.59375 26.515625 31.984375 
L 29.59375 31.296875 
Q 39.15625 29.25 43.1875 25.515625 
Q 47.21875 21.78125 47.21875 15.09375 
Q 47.21875 7.46875 41.1875 3.015625 
Q 35.15625 -1.421875 24.609375 -1.421875 
Q 20.21875 -1.421875 15.453125 -0.5625 
Q 10.6875 0.296875 5.421875 2 
L 5.421875 11.28125 
Q 10.40625 8.6875 15.234375 7.390625 
Q 20.0625 6.109375 24.8125 6.109375 
Q 31.15625 6.109375 34.5625 8.28125 
Q 37.984375 10.453125 37.984375 14.40625 
Q 37.984375 18.0625 35.515625 20.015625 
Q 33.0625 21.96875 24.703125 23.78125 
L 21.578125 24.515625 
Q 13.234375 26.265625 9.515625 29.90625 
Q 5.8125 33.546875 5.8125 39.890625 
Q 5.8125 47.609375 11.28125 51.796875 
Q 16.75 56 26.8125 56 
Q 31.78125 56 36.171875 55.265625 
Q 40.578125 54.546875 44.28125 53.078125 
z
" id="DejaVuSans-73"/>
      <path id="DejaVuSans-20"/>
      <path d="M 9.8125 72.90625 
L 23.09375 72.90625 
L 55.421875 11.921875 
L 55.421875 72.90625 
L 64.984375 72.90625 
L 64.984375 0 
L 51.703125 0 
L 19.390625 60.984375 
L 19.390625 0 
L 9.8125 0 
z
" id="DejaVuSans-4e"/>
      <path d="M 56.203125 29.59375 
L 56.203125 25.203125 
L 14.890625 25.203125 
Q 15.484375 15.921875 20.484375 11.0625 
Q 25.484375 6.203125 34.421875 6.203125 
Q 39.59375 6.203125 44.453125 7.46875 
Q 49.3125 8.734375 54.109375 11.28125 
L 54.109375 2.78125 
Q 49.265625 0.734375 44.1875 -0.34375 
Q 39.109375 -1.421875 33.890625 -1.421875 
Q 20.796875 -1.421875 13.15625 6.1875 
Q 5.515625 13.8125 5.515625 26.8125 
Q 5.515625 40.234375 12.765625 48.109375 
Q 20.015625 56 32.328125 56 
Q 43.359375 56 49.78125 48.890625 
Q 56.203125 41.796875 56.203125 29.59375 
z
M 47.21875 32.234375 
Q 47.125 39.59375 43.09375 43.984375 
Q 39.0625 48.390625 32.421875 48.390625 
Q 24.90625 48.390625 20.390625 44.140625 
Q 15.875 39.890625 15.1875 32.171875 
z
" id="DejaVuSans-65"/>
      <path d="M 41.109375 46.296875 
Q 39.59375 47.171875 37.8125 47.578125 
Q 36.03125 48 33.890625 48 
Q 26.265625 48 22.1875 43.046875 
Q 18.109375 38.09375 18.109375 28.8125 
L 18.109375 0 
L 9.078125 0 
L 9.078125 54.6875 
L 18.109375 54.6875 
L 18.109375 46.1875 
Q 20.953125 51.171875 25.484375 53.578125 
Q 30.03125 56 36.53125 56 
Q 37.453125 56 38.578125 55.875 
Q 39.703125 55.765625 41.0625 55.515625 
z
" id="DejaVuSans-72"/>
      <path d="M 30.609375 48.390625 
Q 23.390625 48.390625 19.1875 42.75 
Q 14.984375 37.109375 14.984375 27.296875 
Q 14.984375 17.484375 19.15625 11.84375 
Q 23.34375 6.203125 30.609375 6.203125 
Q 37.796875 6.203125 41.984375 11.859375 
Q 46.1875 17.53125 46.1875 27.296875 
Q 46.1875 37.015625 41.984375 42.703125 
Q 37.796875 48.390625 30.609375 48.390625 
z
M 30.609375 56 
Q 42.328125 56 49.015625 48.375 
Q 55.71875 40.765625 55.71875 27.296875 
Q 55.71875 13.875 49.015625 6.21875 
Q 42.328125 -1.421875 30.609375 -1.421875 
Q 18.84375 -1.421875 12.171875 6.21875 
Q 5.515625 13.875 5.515625 27.296875 
Q 5.515625 40.765625 12.171875 48.375 
Q 18.84375 56 30.609375 56 
z
" id="DejaVuSans-6f"/>
      <path d="M 32.171875 -5.078125 
Q 28.375 -14.84375 24.75 -17.8125 
Q 21.140625 -20.796875 15.09375 -20.796875 
L 7.90625 -20.796875 
L 7.90625 -13.28125 
L 13.1875 -13.28125 
Q 16.890625 -13.28125 18.9375 -11.515625 
Q 21 -9.765625 23.484375 -3.21875 
L 25.09375 0.875 
L 2.984375 54.6875 
L 12.5 54.6875 
L 29.59375 11.921875 
L 46.6875 54.6875 
L 56.203125 54.6875 
z
" id="DejaVuSans-79"/>
     </defs>
     <g transform="translate(100.857812 246.320312)scale(0.1 -0.1)">
      <use xlink:href="#DejaVuSans-53"/>
      <use x="63.476562" xlink:href="#DejaVuSans-74"/>
      <use x="102.685547" xlink:href="#DejaVuSans-69"/>
      <use x="130.46875" xlink:href="#DejaVuSans-6d"/>
      <use x="227.880859" xlink:href="#DejaVuSans-75"/>
      <use x="291.259766" xlink:href="#DejaVuSans-6c"/>
      <use x="319.042969" xlink:href="#DejaVuSans-75"/>
      <use x="382.421875" xlink:href="#DejaVuSans-73"/>
      <use x="434.521484" xlink:href="#DejaVuSans-20"/>
      <use x="466.308594" xlink:href="#DejaVuSans-4e"/>
      <use x="541.113281" xlink:href="#DejaVuSans-75"/>
      <use x="604.492188" xlink:href="#DejaVuSans-6d"/>
      <use x="701.904297" xlink:href="#DejaVuSans-65"/>
      <use x="763.427734" xlink:href="#DejaVuSans-72"/>
      <use x="804.509766" xlink:href="#DejaVuSans-6f"/>
      <use x="865.691406" xlink:href="#DejaVuSans-73"/>
      <use x="917.791016" xlink:href="#DejaVuSans-69"/>
      <use x="945.574219" xlink:href="#DejaVuSans-74"/>
      <use x="984.783203" xlink:href="#DejaVuSans-79"/>
     </g>
    </g>
   </g>
   <g id="matplotlib.axis_2">
    <g id="ytick_1">
     <g id="line2d_11">
      <defs>
       <path d="M 0 0 
L -3.5 0 
" id="m7c45d74245" style="stroke:#000000;stroke-width:0.8;"/>
      </defs>
      <g>
       <use style="stroke:#000000;stroke-width:0.8;" x="47.38125" xlink:href="#m7c45d74245" y="218.04375"/>
      </g>
     </g>
     <g id="text_12">
      <!-- 0.0 -->
      <defs>
       <path d="M 10.6875 12.40625 
L 21 12.40625 
L 21 0 
L 10.6875 0 
z
" id="DejaVuSans-2e"/>
      </defs>
      <g transform="translate(24.478125 221.842969)scale(0.1 -0.1)">
       <use xlink:href="#DejaVuSans-30"/>
       <use x="63.623047" xlink:href="#DejaVuSans-2e"/>
       <use x="95.410156" xlink:href="#DejaVuSans-30"/>
      </g>
     </g>
    </g>
    <g id="ytick_2">
     <g id="line2d_12">
      <g>
       <use style="stroke:#000000;stroke-width:0.8;" x="47.38125" xlink:href="#m7c45d74245" y="181.6926"/>
      </g>
     </g>
     <g id="text_13">
      <!-- 0.2 -->
      <g transform="translate(24.478125 185.491819)scale(0.1 -0.1)">
       <use xlink:href="#DejaVuSans-30"/>
       <use x="63.623047" xlink:href="#DejaVuSans-2e"/>
       <use x="95.410156" xlink:href="#DejaVuSans-32"/>
      </g>
     </g>
    </g>
    <g id="ytick_3">
     <g id="line2d_13">
      <g>
       <use style="stroke:#000000;stroke-width:0.8;" x="47.38125" xlink:href="#m7c45d74245" y="145.34145"/>
      </g>
     </g>
     <g id="text_14">
      <!-- 0.4 -->
      <g transform="translate(24.478125 149.140669)scale(0.1 -0.1)">
       <use xlink:href="#DejaVuSans-30"/>
       <use x="63.623047" xlink:href="#DejaVuSans-2e"/>
       <use x="95.410156" xlink:href="#DejaVuSans-34"/>
      </g>
     </g>
    </g>
    <g id="ytick_4">
     <g id="line2d_14">
      <g>
       <use style="stroke:#000000;stroke-width:0.8;" x="47.38125" xlink:href="#m7c45d74245" y="108.9903"/>
      </g>
     </g>
     <g id="text_15">
      <!-- 0.6 -->
      <g transform="translate(24.478125 112.789519)scale(0.1 -0.1)">
       <use xlink:href="#DejaVuSans-30"/>
       <use x="63.623047" xlink:href="#DejaVuSans-2e"/>
       <use x="95.410156" xlink:href="#DejaVuSans-36"/>
      </g>
     </g>
    </g>
    <g id="ytick_5">
     <g id="line2d_15">
      <g>
       <use style="stroke:#000000;stroke-width:0.8;" x="47.38125" xlink:href="#m7c45d74245" y="72.63915"/>
      </g>
     </g>
     <g id="text_16">
      <!-- 0.8 -->
      <g transform="translate(24.478125 76.438369)scale(0.1 -0.1)">
       <use xlink:href="#DejaVuSans-30"/>
       <use x="63.623047" xlink:href="#DejaVuSans-2e"/>
       <use x="95.410156" xlink:href="#DejaVuSans-38"/>
      </g>
     </g>
    </g>
    <g id="ytick_6">
     <g id="line2d_16">
      <g>
       <use style="stroke:#000000;stroke-width:0.8;" x="47.38125" xlink:href="#m7c45d74245" y="36.288"/>
      </g>
     </g>
     <g id="text_17">
      <!-- 1.0 -->
      <g transform="translate(24.478125 40.087219)scale(0.1 -0.1)">
       <use xlink:href="#DejaVuSans-31"/>
       <use x="63.623047" xlink:href="#DejaVuSans-2e"/>
       <use x="95.410156" xlink:href="#DejaVuSans-30"/>
      </g>
     </g>
    </g>
    <g id="text_18">
     <!-- Numerosity Estimate -->
     <defs>
      <path d="M 9.8125 72.90625 
L 55.90625 72.90625 
L 55.90625 64.59375 
L 19.671875 64.59375 
L 19.671875 43.015625 
L 54.390625 43.015625 
L 54.390625 34.71875 
L 19.671875 34.71875 
L 19.671875 8.296875 
L 56.78125 8.296875 
L 56.78125 0 
L 9.8125 0 
z
" id="DejaVuSans-45"/>
      <path d="M 34.28125 27.484375 
Q 23.390625 27.484375 19.1875 25 
Q 14.984375 22.515625 14.984375 16.5 
Q 14.984375 11.71875 18.140625 8.90625 
Q 21.296875 6.109375 26.703125 6.109375 
Q 34.1875 6.109375 38.703125 11.40625 
Q 43.21875 16.703125 43.21875 25.484375 
L 43.21875 27.484375 
z
M 52.203125 31.203125 
L 52.203125 0 
L 43.21875 0 
L 43.21875 8.296875 
Q 40.140625 3.328125 35.546875 0.953125 
Q 30.953125 -1.421875 24.3125 -1.421875 
Q 15.921875 -1.421875 10.953125 3.296875 
Q 6 8.015625 6 15.921875 
Q 6 25.140625 12.171875 29.828125 
Q 18.359375 34.515625 30.609375 34.515625 
L 43.21875 34.515625 
L 43.21875 35.40625 
Q 43.21875 41.609375 39.140625 45 
Q 35.0625 48.390625 27.6875 48.390625 
Q 23 48.390625 18.546875 47.265625 
Q 14.109375 46.140625 10.015625 43.890625 
L 10.015625 52.203125 
Q 14.9375 54.109375 19.578125 55.046875 
Q 24.21875 56 28.609375 56 
Q 40.484375 56 46.34375 49.84375 
Q 52.203125 43.703125 52.203125 31.203125 
z
" id="DejaVuSans-61"/>
     </defs>
     <g transform="translate(18.398438 179.722125)rotate(-90)scale(0.1 -0.1)">
      <use xlink:href="#DejaVuSans-4e"/>
      <use x="74.804688" xlink:href="#DejaVuSans-75"/>
      <use x="138.183594" xlink:href="#DejaVuSans-6d"/>
      <use x="235.595703" xlink:href="#DejaVuSans-65"/>
      <use x="297.119141" xlink:href="#DejaVuSans-72"/>
      <use x="338.201172" xlink:href="#DejaVuSans-6f"/>
      <use x="399.382812" xlink:href="#DejaVuSans-73"/>
      <use x="451.482422" xlink:href="#DejaVuSans-69"/>
      <use x="479.265625" xlink:href="#DejaVuSans-74"/>
      <use x="518.474609" xlink:href="#DejaVuSans-79"/>
      <use x="577.654297" xlink:href="#DejaVuSans-20"/>
      <use x="609.441406" xlink:href="#DejaVuSans-45"/>
      <use x="672.625" xlink:href="#DejaVuSans-73"/>
      <use x="724.724609" xlink:href="#DejaVuSans-74"/>
      <use x="763.933594" xlink:href="#DejaVuSans-69"/>
      <use x="791.716797" xlink:href="#DejaVuSans-6d"/>
      <use x="889.128906" xlink:href="#DejaVuSans-61"/>
      <use x="950.408203" xlink:href="#DejaVuSans-74"/>
      <use x="989.617188" xlink:href="#DejaVuSans-65"/>
     </g>
    </g>
   </g>
   <g id="line2d_17">
    <path clip-path="url(#p5ee458386d)" d="M 68.515938 97.688338 
L 89.650625 91.288277 
L 110.785313 104.859862 
L 131.92 117.495678 
L 153.054688 128.835846 
L 174.189375 140.083853 
L 195.324063 149.089398 
L 216.45875 156.800388 
L 237.593437 162.487363 
" style="fill:none;stroke:#0000ff;stroke-dasharray:6.4,1.6,1,1.6;stroke-dashoffset:0;"/>
   </g>
   <g id="line2d_18">
    <path clip-path="url(#p5ee458386d)" d="M 68.515938 148.666555 
L 89.650625 155.086311 
L 110.785313 158.353146 
L 131.92 162.877033 
L 153.054688 167.203825 
L 174.189375 170.542757 
L 195.324063 175.174824 
L 216.45875 179.538973 
L 237.593437 184.890715 
" style="fill:none;stroke:#0000ff;stroke-dasharray:3.7,1.6;stroke-dashoffset:0;"/>
   </g>
   <g id="line2d_19">
    <path clip-path="url(#p5ee458386d)" d="M 68.515938 157.910655 
L 89.650625 173.633071 
L 110.785313 179.948097 
L 131.92 179.37806 
L 153.054688 181.212419 
L 174.189375 183.109919 
L 195.324063 182.772185 
L 216.45875 184.467517 
L 237.593437 188.362066 
" style="fill:none;stroke:#0000ff;stroke-linecap:square;"/>
   </g>
   <g id="line2d_20">
    <path clip-path="url(#p5ee458386d)" d="M 68.515938 95.848732 
L 89.650625 88.076877 
L 110.785313 93.759211 
L 131.92 107.211457 
L 153.054688 123.553759 
L 174.189375 136.061901 
L 195.324063 147.342023 
L 216.45875 155.129992 
L 237.593437 163.586726 
" style="fill:none;stroke:#ff0000;stroke-dasharray:6.4,1.6,1,1.6;stroke-dashoffset:0;"/>
   </g>
   <g id="line2d_21">
    <path clip-path="url(#p5ee458386d)" d="M 68.515938 182.389625 
L 89.650625 142.827576 
L 110.785313 152.290145 
L 131.92 157.73173 
L 153.054688 164.640371 
L 174.189375 168.582261 
L 195.324063 172.477848 
L 216.45875 177.587872 
L 237.593437 184.940627 
" style="fill:none;stroke:#ff0000;stroke-dasharray:3.7,1.6;stroke-dashoffset:0;"/>
   </g>
   <g id="line2d_22">
    <path clip-path="url(#p5ee458386d)" d="M 68.515938 212.596464 
L 89.650625 171.761843 
L 110.785313 172.256789 
L 131.92 174.971678 
L 153.054688 177.63263 
L 174.189375 180.855396 
L 195.324063 181.725265 
L 216.45875 183.947742 
L 237.593437 188.785248 
" style="fill:none;stroke:#ff0000;stroke-linecap:square;"/>
   </g>
   <g id="line2d_23">
    <path clip-path="url(#p5ee458386d)" d="M 68.515938 94.942769 
L 89.650625 86.769094 
L 110.785313 93.183159 
L 131.92 102.272952 
L 153.054688 112.051594 
L 174.189375 122.621496 
L 195.324063 133.04239 
L 216.45875 140.499295 
L 237.593437 147.834687 
" style="fill:none;stroke:#008000;stroke-dasharray:6.4,1.6,1,1.6;stroke-dashoffset:0;"/>
   </g>
   <g id="line2d_24">
    <path clip-path="url(#p5ee458386d)" d="M 68.515938 157.625743 
L 89.650625 139.360678 
L 110.785313 146.441038 
L 131.92 150.423913 
L 153.054688 154.792245 
L 174.189375 158.502003 
L 195.324063 162.08849 
L 216.45875 166.022538 
L 237.593437 169.895495 
" style="fill:none;stroke:#008000;stroke-dasharray:3.7,1.6;stroke-dashoffset:0;"/>
   </g>
   <g id="line2d_25">
    <path clip-path="url(#p5ee458386d)" d="M 68.515938 177.36501 
L 89.650625 161.439466 
L 110.785313 163.816507 
L 131.92 166.811544 
L 153.054688 168.226998 
L 174.189375 170.666253 
L 195.324063 172.087179 
L 216.45875 174.483043 
L 237.593437 175.606103 
" style="fill:none;stroke:#008000;stroke-linecap:square;"/>
   </g>
   <g id="line2d_26">
    <path clip-path="url(#p5ee458386d)" d="M 68.515938 136.519434 
L 89.650625 98.907711 
L 110.785313 84.207003 
L 131.92 105.006264 
L 153.054688 121.256407 
L 174.189375 131.785449 
L 195.324063 141.014466 
L 216.45875 152.629518 
L 237.593437 162.959783 
" style="fill:none;stroke:#1f77b4;stroke-dasharray:6.4,1.6,1,1.6;stroke-dashoffset:0;"/>
    <defs>
     <path d="M 0 3 
C 0.795609 3 1.55874 2.683901 2.12132 2.12132 
C 2.683901 1.55874 3 0.795609 3 0 
C 3 -0.795609 2.683901 -1.55874 2.12132 -2.12132 
C 1.55874 -2.683901 0.795609 -3 0 -3 
C -0.795609 -3 -1.55874 -2.683901 -2.12132 -2.12132 
C -2.683901 -1.55874 -3 -0.795609 -3 0 
C -3 0.795609 -2.683901 1.55874 -2.12132 2.12132 
C -1.55874 2.683901 -0.795609 3 0 3 
z
" id="meed4ecf936" style="stroke:#1f77b4;"/>
    </defs>
    <g clip-path="url(#p5ee458386d)">
     <use style="fill:#1f77b4;stroke:#1f77b4;" x="68.515938" xlink:href="#meed4ecf936" y="136.519434"/>
     <use style="fill:#1f77b4;stroke:#1f77b4;" x="89.650625" xlink:href="#meed4ecf936" y="98.907711"/>
     <use style="fill:#1f77b4;stroke:#1f77b4;" x="110.785313" xlink:href="#meed4ecf936" y="84.207003"/>
     <use style="fill:#1f77b4;stroke:#1f77b4;" x="131.92" xlink:href="#meed4ecf936" y="105.006264"/>
     <use style="fill:#1f77b4;stroke:#1f77b4;" x="153.054688" xlink:href="#meed4ecf936" y="121.256407"/>
     <use style="fill:#1f77b4;stroke:#1f77b4;" x="174.189375" xlink:href="#meed4ecf936" y="131.785449"/>
     <use style="fill:#1f77b4;stroke:#1f77b4;" x="195.324063" xlink:href="#meed4ecf936" y="141.014466"/>
     <use style="fill:#1f77b4;stroke:#1f77b4;" x="216.45875" xlink:href="#meed4ecf936" y="152.629518"/>
     <use style="fill:#1f77b4;stroke:#1f77b4;" x="237.593437" xlink:href="#meed4ecf936" y="162.959783"/>
    </g>
   </g>
   <g id="line2d_27">
    <path clip-path="url(#p5ee458386d)" d="M 68.515938 203.861008 
L 89.650625 142.395349 
L 110.785313 142.329102 
L 131.92 162.079311 
L 153.054688 167.517916 
L 174.189375 166.505999 
L 195.324063 169.068928 
L 216.45875 174.639894 
L 237.593437 181.792764 
" style="fill:none;stroke:#ff7f0e;stroke-dasharray:3.7,1.6;stroke-dashoffset:0;"/>
    <defs>
     <path d="M 0 3 
C 0.795609 3 1.55874 2.683901 2.12132 2.12132 
C 2.683901 1.55874 3 0.795609 3 0 
C 3 -0.795609 2.683901 -1.55874 2.12132 -2.12132 
C 1.55874 -2.683901 0.795609 -3 0 -3 
C -0.795609 -3 -1.55874 -2.683901 -2.12132 -2.12132 
C -2.683901 -1.55874 -3 -0.795609 -3 0 
C -3 0.795609 -2.683901 1.55874 -2.12132 2.12132 
C -1.55874 2.683901 -0.795609 3 0 3 
z
" id="m9ccac7492b" style="stroke:#ff7f0e;"/>
    </defs>
    <g clip-path="url(#p5ee458386d)">
     <use style="fill:#ff7f0e;stroke:#ff7f0e;" x="68.515938" xlink:href="#m9ccac7492b" y="203.861008"/>
     <use style="fill:#ff7f0e;stroke:#ff7f0e;" x="89.650625" xlink:href="#m9ccac7492b" y="142.395349"/>
     <use style="fill:#ff7f0e;stroke:#ff7f0e;" x="110.785313" xlink:href="#m9ccac7492b" y="142.329102"/>
     <use style="fill:#ff7f0e;stroke:#ff7f0e;" x="131.92" xlink:href="#m9ccac7492b" y="162.079311"/>
     <use style="fill:#ff7f0e;stroke:#ff7f0e;" x="153.054688" xlink:href="#m9ccac7492b" y="167.517916"/>
     <use style="fill:#ff7f0e;stroke:#ff7f0e;" x="174.189375" xlink:href="#m9ccac7492b" y="166.505999"/>
     <use style="fill:#ff7f0e;stroke:#ff7f0e;" x="195.324063" xlink:href="#m9ccac7492b" y="169.068928"/>
     <use style="fill:#ff7f0e;stroke:#ff7f0e;" x="216.45875" xlink:href="#m9ccac7492b" y="174.639894"/>
     <use style="fill:#ff7f0e;stroke:#ff7f0e;" x="237.593437" xlink:href="#m9ccac7492b" y="181.792764"/>
    </g>
   </g>
   <g id="line2d_28">
    <path clip-path="url(#p5ee458386d)" d="M 68.515938 218.043748 
L 89.650625 153.999189 
L 110.785313 160.854693 
L 131.92 171.043223 
L 153.054688 173.702975 
L 174.189375 174.6606 
L 195.324063 181.073373 
L 216.45875 184.314991 
L 237.593437 188.278424 
" style="fill:none;stroke:#2ca02c;stroke-linecap:square;"/>
    <defs>
     <path d="M 0 3 
C 0.795609 3 1.55874 2.683901 2.12132 2.12132 
C 2.683901 1.55874 3 0.795609 3 0 
C 3 -0.795609 2.683901 -1.55874 2.12132 -2.12132 
C 1.55874 -2.683901 0.795609 -3 0 -3 
C -0.795609 -3 -1.55874 -2.683901 -2.12132 -2.12132 
C -2.683901 -1.55874 -3 -0.795609 -3 0 
C -3 0.795609 -2.683901 1.55874 -2.12132 2.12132 
C -1.55874 2.683901 -0.795609 3 0 3 
z
" id="m6192c8b638" style="stroke:#2ca02c;"/>
    </defs>
    <g clip-path="url(#p5ee458386d)">
     <use style="fill:#2ca02c;stroke:#2ca02c;" x="68.515938" xlink:href="#m6192c8b638" y="218.043748"/>
     <use style="fill:#2ca02c;stroke:#2ca02c;" x="89.650625" xlink:href="#m6192c8b638" y="153.999189"/>
     <use style="fill:#2ca02c;stroke:#2ca02c;" x="110.785313" xlink:href="#m6192c8b638" y="160.854693"/>
     <use style="fill:#2ca02c;stroke:#2ca02c;" x="131.92" xlink:href="#m6192c8b638" y="171.043223"/>
     <use style="fill:#2ca02c;stroke:#2ca02c;" x="153.054688" xlink:href="#m6192c8b638" y="173.702975"/>
     <use style="fill:#2ca02c;stroke:#2ca02c;" x="174.189375" xlink:href="#m6192c8b638" y="174.6606"/>
     <use style="fill:#2ca02c;stroke:#2ca02c;" x="195.324063" xlink:href="#m6192c8b638" y="181.073373"/>
     <use style="fill:#2ca02c;stroke:#2ca02c;" x="216.45875" xlink:href="#m6192c8b638" y="184.314991"/>
     <use style="fill:#2ca02c;stroke:#2ca02c;" x="237.593437" xlink:href="#m6192c8b638" y="188.278424"/>
    </g>
   </g>
   <g id="line2d_29">
    <path clip-path="url(#p5ee458386d)" d="M 68.515938 96.634508 
L 89.650625 88.494882 
L 110.785313 98.560828 
L 131.92 111.974439 
L 153.054688 125.93612 
L 174.189375 138.254016 
L 195.324063 148.697412 
L 216.45875 156.057826 
L 237.593437 163.554622 
" style="fill:none;stroke:#000000;stroke-dasharray:12.8,3.2,2,3.2;stroke-dashoffset:0;stroke-width:2;"/>
   </g>
   <g id="line2d_30">
    <path clip-path="url(#p5ee458386d)" d="M 68.515938 155.136276 
L 89.650625 145.344109 
L 110.785313 152.199673 
L 131.92 158.972428 
L 153.054688 165.303942 
L 174.189375 169.424099 
L 195.324063 173.144892 
L 216.45875 178.798718 
L 237.593437 184.340137 
" style="fill:none;stroke:#000000;stroke-dasharray:7.4,3.2;stroke-dashoffset:0;stroke-width:2;"/>
   </g>
   <g id="line2d_31">
    <path clip-path="url(#p5ee458386d)" d="M 68.515938 168.176404 
L 89.650625 165.77677 
L 110.785313 172.694441 
L 131.92 175.597506 
L 153.054688 178.601676 
L 174.189375 181.491855 
L 195.324063 182.57819 
L 216.45875 184.263688 
L 237.593437 188.595132 
" style="fill:none;stroke:#000000;stroke-linecap:square;stroke-width:2;"/>
   </g>
   <g id="patch_3">
    <path d="M 47.38125 218.04375 
L 47.38125 36.288 
" style="fill:none;stroke:#000000;stroke-linecap:square;stroke-linejoin:miter;stroke-width:0.8;"/>
   </g>
   <g id="patch_4">
    <path d="M 258.728125 218.04375 
L 258.728125 36.288 
" style="fill:none;stroke:#000000;stroke-linecap:square;stroke-linejoin:miter;stroke-width:0.8;"/>
   </g>
   <g id="patch_5">
    <path d="M 47.38125 218.04375 
L 258.728125 218.04375 
" style="fill:none;stroke:#000000;stroke-linecap:square;stroke-linejoin:miter;stroke-width:0.8;"/>
   </g>
   <g id="patch_6">
    <path d="M 47.38125 36.288 
L 258.728125 36.288 
" style="fill:none;stroke:#000000;stroke-linecap:square;stroke-linejoin:miter;stroke-width:0.8;"/>
   </g>
   <g id="text_19">
    <!-- Coefficient of Variation -->
    <defs>
     <path d="M 64.40625 67.28125 
L 64.40625 56.890625 
Q 59.421875 61.53125 53.78125 63.8125 
Q 48.140625 66.109375 41.796875 66.109375 
Q 29.296875 66.109375 22.65625 58.46875 
Q 16.015625 50.828125 16.015625 36.375 
Q 16.015625 21.96875 22.65625 14.328125 
Q 29.296875 6.6875 41.796875 6.6875 
Q 48.140625 6.6875 53.78125 8.984375 
Q 59.421875 11.28125 64.40625 15.921875 
L 64.40625 5.609375 
Q 59.234375 2.09375 53.4375 0.328125 
Q 47.65625 -1.421875 41.21875 -1.421875 
Q 24.65625 -1.421875 15.125 8.703125 
Q 5.609375 18.84375 5.609375 36.375 
Q 5.609375 53.953125 15.125 64.078125 
Q 24.65625 74.21875 41.21875 74.21875 
Q 47.75 74.21875 53.53125 72.484375 
Q 59.328125 70.75 64.40625 67.28125 
z
" id="DejaVuSans-43"/>
     <path d="M 37.109375 75.984375 
L 37.109375 68.5 
L 28.515625 68.5 
Q 23.6875 68.5 21.796875 66.546875 
Q 19.921875 64.59375 19.921875 59.515625 
L 19.921875 54.6875 
L 34.71875 54.6875 
L 34.71875 47.703125 
L 19.921875 47.703125 
L 19.921875 0 
L 10.890625 0 
L 10.890625 47.703125 
L 2.296875 47.703125 
L 2.296875 54.6875 
L 10.890625 54.6875 
L 10.890625 58.5 
Q 10.890625 67.625 15.140625 71.796875 
Q 19.390625 75.984375 28.609375 75.984375 
z
" id="DejaVuSans-66"/>
     <path d="M 48.78125 52.59375 
L 48.78125 44.1875 
Q 44.96875 46.296875 41.140625 47.34375 
Q 37.3125 48.390625 33.40625 48.390625 
Q 24.65625 48.390625 19.8125 42.84375 
Q 14.984375 37.3125 14.984375 27.296875 
Q 14.984375 17.28125 19.8125 11.734375 
Q 24.65625 6.203125 33.40625 6.203125 
Q 37.3125 6.203125 41.140625 7.25 
Q 44.96875 8.296875 48.78125 10.40625 
L 48.78125 2.09375 
Q 45.015625 0.34375 40.984375 -0.53125 
Q 36.96875 -1.421875 32.421875 -1.421875 
Q 20.0625 -1.421875 12.78125 6.34375 
Q 5.515625 14.109375 5.515625 27.296875 
Q 5.515625 40.671875 12.859375 48.328125 
Q 20.21875 56 33.015625 56 
Q 37.15625 56 41.109375 55.140625 
Q 45.0625 54.296875 48.78125 52.59375 
z
" id="DejaVuSans-63"/>
     <path d="M 54.890625 33.015625 
L 54.890625 0 
L 45.90625 0 
L 45.90625 32.71875 
Q 45.90625 40.484375 42.875 44.328125 
Q 39.84375 48.1875 33.796875 48.1875 
Q 26.515625 48.1875 22.3125 43.546875 
Q 18.109375 38.921875 18.109375 30.90625 
L 18.109375 0 
L 9.078125 0 
L 9.078125 54.6875 
L 18.109375 54.6875 
L 18.109375 46.1875 
Q 21.34375 51.125 25.703125 53.5625 
Q 30.078125 56 35.796875 56 
Q 45.21875 56 50.046875 50.171875 
Q 54.890625 44.34375 54.890625 33.015625 
z
" id="DejaVuSans-6e"/>
     <path d="M 28.609375 0 
L 0.78125 72.90625 
L 11.078125 72.90625 
L 34.1875 11.53125 
L 57.328125 72.90625 
L 67.578125 72.90625 
L 39.796875 0 
z
" id="DejaVuSans-56"/>
    </defs>
    <g transform="translate(84.123125 30.288)scale(0.12 -0.12)">
     <use xlink:href="#DejaVuSans-43"/>
     <use x="69.824219" xlink:href="#DejaVuSans-6f"/>
     <use x="131.005859" xlink:href="#DejaVuSans-65"/>
     <use x="192.529297" xlink:href="#DejaVuSans-66"/>
     <use x="227.734375" xlink:href="#DejaVuSans-66"/>
     <use x="262.939453" xlink:href="#DejaVuSans-69"/>
     <use x="290.722656" xlink:href="#DejaVuSans-63"/>
     <use x="345.703125" xlink:href="#DejaVuSans-69"/>
     <use x="373.486328" xlink:href="#DejaVuSans-65"/>
     <use x="435.009766" xlink:href="#DejaVuSans-6e"/>
     <use x="498.388672" xlink:href="#DejaVuSans-74"/>
     <use x="537.597656" xlink:href="#DejaVuSans-20"/>
     <use x="569.384766" xlink:href="#DejaVuSans-6f"/>
     <use x="630.566406" xlink:href="#DejaVuSans-66"/>
     <use x="665.771484" xlink:href="#DejaVuSans-20"/>
     <use x="697.558594" xlink:href="#DejaVuSans-56"/>
     <use x="765.857422" xlink:href="#DejaVuSans-61"/>
     <use x="827.136719" xlink:href="#DejaVuSans-72"/>
     <use x="868.25" xlink:href="#DejaVuSans-69"/>
     <use x="896.033203" xlink:href="#DejaVuSans-61"/>
     <use x="957.3125" xlink:href="#DejaVuSans-74"/>
     <use x="996.521484" xlink:href="#DejaVuSans-69"/>
     <use x="1024.304688" xlink:href="#DejaVuSans-6f"/>
     <use x="1085.486328" xlink:href="#DejaVuSans-6e"/>
    </g>
   </g>
  </g>
  <g id="axes_2">
   <g id="patch_7">
    <path d="M 292.753125 218.04375 
L 504.1 218.04375 
L 504.1 36.288 
L 292.753125 36.288 
z
" style="fill:#ffffff;"/>
   </g>
   <g id="matplotlib.axis_3">
    <g id="xtick_11">
     <g id="line2d_32">
      <g>
       <use style="stroke:#000000;stroke-width:0.8;" x="292.753125" xlink:href="#m3e3212ae56" y="218.04375"/>
      </g>
     </g>
     <g id="text_20">
      <!-- 0 -->
      <g transform="translate(289.571875 232.642187)scale(0.1 -0.1)">
       <use xlink:href="#DejaVuSans-30"/>
      </g>
     </g>
    </g>
    <g id="xtick_12">
     <g id="line2d_33">
      <g>
       <use style="stroke:#000000;stroke-width:0.8;" x="313.887812" xlink:href="#m3e3212ae56" y="218.04375"/>
      </g>
     </g>
     <g id="text_21">
      <!-- 1 -->
      <g transform="translate(310.706563 232.642187)scale(0.1 -0.1)">
       <use xlink:href="#DejaVuSans-31"/>
      </g>
     </g>
    </g>
    <g id="xtick_13">
     <g id="line2d_34">
      <g>
       <use style="stroke:#000000;stroke-width:0.8;" x="335.0225" xlink:href="#m3e3212ae56" y="218.04375"/>
      </g>
     </g>
     <g id="text_22">
      <!-- 2 -->
      <g transform="translate(331.84125 232.642187)scale(0.1 -0.1)">
       <use xlink:href="#DejaVuSans-32"/>
      </g>
     </g>
    </g>
    <g id="xtick_14">
     <g id="line2d_35">
      <g>
       <use style="stroke:#000000;stroke-width:0.8;" x="356.157188" xlink:href="#m3e3212ae56" y="218.04375"/>
      </g>
     </g>
     <g id="text_23">
      <!-- 3 -->
      <g transform="translate(352.975938 232.642187)scale(0.1 -0.1)">
       <use xlink:href="#DejaVuSans-33"/>
      </g>
     </g>
    </g>
    <g id="xtick_15">
     <g id="line2d_36">
      <g>
       <use style="stroke:#000000;stroke-width:0.8;" x="377.291875" xlink:href="#m3e3212ae56" y="218.04375"/>
      </g>
     </g>
     <g id="text_24">
      <!-- 4 -->
      <g transform="translate(374.110625 232.642187)scale(0.1 -0.1)">
       <use xlink:href="#DejaVuSans-34"/>
      </g>
     </g>
    </g>
    <g id="xtick_16">
     <g id="line2d_37">
      <g>
       <use style="stroke:#000000;stroke-width:0.8;" x="398.426562" xlink:href="#m3e3212ae56" y="218.04375"/>
      </g>
     </g>
     <g id="text_25">
      <!-- 5 -->
      <g transform="translate(395.245313 232.642187)scale(0.1 -0.1)">
       <use xlink:href="#DejaVuSans-35"/>
      </g>
     </g>
    </g>
    <g id="xtick_17">
     <g id="line2d_38">
      <g>
       <use style="stroke:#000000;stroke-width:0.8;" x="419.56125" xlink:href="#m3e3212ae56" y="218.04375"/>
      </g>
     </g>
     <g id="text_26">
      <!-- 6 -->
      <g transform="translate(416.38 232.642187)scale(0.1 -0.1)">
       <use xlink:href="#DejaVuSans-36"/>
      </g>
     </g>
    </g>
    <g id="xtick_18">
     <g id="line2d_39">
      <g>
       <use style="stroke:#000000;stroke-width:0.8;" x="440.695938" xlink:href="#m3e3212ae56" y="218.04375"/>
      </g>
     </g>
     <g id="text_27">
      <!-- 7 -->
      <g transform="translate(437.514688 232.642187)scale(0.1 -0.1)">
       <use xlink:href="#DejaVuSans-37"/>
      </g>
     </g>
    </g>
    <g id="xtick_19">
     <g id="line2d_40">
      <g>
       <use style="stroke:#000000;stroke-width:0.8;" x="461.830625" xlink:href="#m3e3212ae56" y="218.04375"/>
      </g>
     </g>
     <g id="text_28">
      <!-- 8 -->
      <g transform="translate(458.649375 232.642187)scale(0.1 -0.1)">
       <use xlink:href="#DejaVuSans-38"/>
      </g>
     </g>
    </g>
    <g id="xtick_20">
     <g id="line2d_41">
      <g>
       <use style="stroke:#000000;stroke-width:0.8;" x="482.965312" xlink:href="#m3e3212ae56" y="218.04375"/>
      </g>
     </g>
     <g id="text_29">
      <!-- 9 -->
      <g transform="translate(479.784063 232.642187)scale(0.1 -0.1)">
       <use xlink:href="#DejaVuSans-39"/>
      </g>
     </g>
    </g>
    <g id="text_30">
     <!-- Stimulus Numerosity -->
     <g transform="translate(346.229687 246.320312)scale(0.1 -0.1)">
      <use xlink:href="#DejaVuSans-53"/>
      <use x="63.476562" xlink:href="#DejaVuSans-74"/>
      <use x="102.685547" xlink:href="#DejaVuSans-69"/>
      <use x="130.46875" xlink:href="#DejaVuSans-6d"/>
      <use x="227.880859" xlink:href="#DejaVuSans-75"/>
      <use x="291.259766" xlink:href="#DejaVuSans-6c"/>
      <use x="319.042969" xlink:href="#DejaVuSans-75"/>
      <use x="382.421875" xlink:href="#DejaVuSans-73"/>
      <use x="434.521484" xlink:href="#DejaVuSans-20"/>
      <use x="466.308594" xlink:href="#DejaVuSans-4e"/>
      <use x="541.113281" xlink:href="#DejaVuSans-75"/>
      <use x="604.492188" xlink:href="#DejaVuSans-6d"/>
      <use x="701.904297" xlink:href="#DejaVuSans-65"/>
      <use x="763.427734" xlink:href="#DejaVuSans-72"/>
      <use x="804.509766" xlink:href="#DejaVuSans-6f"/>
      <use x="865.691406" xlink:href="#DejaVuSans-73"/>
      <use x="917.791016" xlink:href="#DejaVuSans-69"/>
      <use x="945.574219" xlink:href="#DejaVuSans-74"/>
      <use x="984.783203" xlink:href="#DejaVuSans-79"/>
     </g>
    </g>
   </g>
   <g id="matplotlib.axis_4">
    <g id="ytick_7">
     <g id="line2d_42">
      <g>
       <use style="stroke:#000000;stroke-width:0.8;" x="292.753125" xlink:href="#m7c45d74245" y="218.04375"/>
      </g>
     </g>
    </g>
    <g id="ytick_8">
     <g id="line2d_43">
      <g>
       <use style="stroke:#000000;stroke-width:0.8;" x="292.753125" xlink:href="#m7c45d74245" y="181.6926"/>
      </g>
     </g>
    </g>
    <g id="ytick_9">
     <g id="line2d_44">
      <g>
       <use style="stroke:#000000;stroke-width:0.8;" x="292.753125" xlink:href="#m7c45d74245" y="145.34145"/>
      </g>
     </g>
    </g>
    <g id="ytick_10">
     <g id="line2d_45">
      <g>
       <use style="stroke:#000000;stroke-width:0.8;" x="292.753125" xlink:href="#m7c45d74245" y="108.9903"/>
      </g>
     </g>
    </g>
    <g id="ytick_11">
     <g id="line2d_46">
      <g>
       <use style="stroke:#000000;stroke-width:0.8;" x="292.753125" xlink:href="#m7c45d74245" y="72.63915"/>
      </g>
     </g>
    </g>
    <g id="ytick_12">
     <g id="line2d_47">
      <g>
       <use style="stroke:#000000;stroke-width:0.8;" x="292.753125" xlink:href="#m7c45d74245" y="36.288"/>
      </g>
     </g>
    </g>
   </g>
   <g id="patch_8">
    <path d="M 292.753125 218.04375 
L 292.753125 36.288 
" style="fill:none;stroke:#000000;stroke-linecap:square;stroke-linejoin:miter;stroke-width:0.8;"/>
   </g>
   <g id="patch_9">
    <path d="M 504.1 218.04375 
L 504.1 36.288 
" style="fill:none;stroke:#000000;stroke-linecap:square;stroke-linejoin:miter;stroke-width:0.8;"/>
   </g>
   <g id="patch_10">
    <path d="M 292.753125 218.04375 
L 504.1 218.04375 
" style="fill:none;stroke:#000000;stroke-linecap:square;stroke-linejoin:miter;stroke-width:0.8;"/>
   </g>
   <g id="patch_11">
    <path d="M 292.753125 36.288 
L 504.1 36.288 
" style="fill:none;stroke:#000000;stroke-linecap:square;stroke-linejoin:miter;stroke-width:0.8;"/>
   </g>
   <g id="text_31">
    <!-- Coefficient of Variation -->
    <g transform="translate(329.495 30.288)scale(0.12 -0.12)">
     <use xlink:href="#DejaVuSans-43"/>
     <use x="69.824219" xlink:href="#DejaVuSans-6f"/>
     <use x="131.005859" xlink:href="#DejaVuSans-65"/>
     <use x="192.529297" xlink:href="#DejaVuSans-66"/>
     <use x="227.734375" xlink:href="#DejaVuSans-66"/>
     <use x="262.939453" xlink:href="#DejaVuSans-69"/>
     <use x="290.722656" xlink:href="#DejaVuSans-63"/>
     <use x="345.703125" xlink:href="#DejaVuSans-69"/>
     <use x="373.486328" xlink:href="#DejaVuSans-65"/>
     <use x="435.009766" xlink:href="#DejaVuSans-6e"/>
     <use x="498.388672" xlink:href="#DejaVuSans-74"/>
     <use x="537.597656" xlink:href="#DejaVuSans-20"/>
     <use x="569.384766" xlink:href="#DejaVuSans-6f"/>
     <use x="630.566406" xlink:href="#DejaVuSans-66"/>
     <use x="665.771484" xlink:href="#DejaVuSans-20"/>
     <use x="697.558594" xlink:href="#DejaVuSans-56"/>
     <use x="765.857422" xlink:href="#DejaVuSans-61"/>
     <use x="827.136719" xlink:href="#DejaVuSans-72"/>
     <use x="868.25" xlink:href="#DejaVuSans-69"/>
     <use x="896.033203" xlink:href="#DejaVuSans-61"/>
     <use x="957.3125" xlink:href="#DejaVuSans-74"/>
     <use x="996.521484" xlink:href="#DejaVuSans-69"/>
     <use x="1024.304688" xlink:href="#DejaVuSans-6f"/>
     <use x="1085.486328" xlink:href="#DejaVuSans-6e"/>
    </g>
   </g>
  </g>
  <g id="axes_3">
   <g id="matplotlib.axis_5">
    <g id="ytick_13">
     <g id="line2d_48">
      <g>
       <use style="stroke:#000000;stroke-width:0.8;" x="292.753125" xlink:href="#m7c45d74245" y="218.04375"/>
      </g>
     </g>
     <g id="text_32">
      <!-- 0 -->
      <g transform="translate(279.390625 221.842969)scale(0.1 -0.1)">
       <use xlink:href="#DejaVuSans-30"/>
      </g>
     </g>
    </g>
    <g id="ytick_14">
     <g id="line2d_49">
      <g>
       <use style="stroke:#000000;stroke-width:0.8;" x="292.753125" xlink:href="#m7c45d74245" y="181.6926"/>
      </g>
     </g>
     <g id="text_33">
      <!-- 2 -->
      <g transform="translate(279.390625 185.491819)scale(0.1 -0.1)">
       <use xlink:href="#DejaVuSans-32"/>
      </g>
     </g>
    </g>
    <g id="ytick_15">
     <g id="line2d_50">
      <g>
       <use style="stroke:#000000;stroke-width:0.8;" x="292.753125" xlink:href="#m7c45d74245" y="145.34145"/>
      </g>
     </g>
     <g id="text_34">
      <!-- 4 -->
      <g transform="translate(279.390625 149.140669)scale(0.1 -0.1)">
       <use xlink:href="#DejaVuSans-34"/>
      </g>
     </g>
    </g>
    <g id="ytick_16">
     <g id="line2d_51">
      <g>
       <use style="stroke:#000000;stroke-width:0.8;" x="292.753125" xlink:href="#m7c45d74245" y="108.9903"/>
      </g>
     </g>
     <g id="text_35">
      <!-- 6 -->
      <g transform="translate(279.390625 112.789519)scale(0.1 -0.1)">
       <use xlink:href="#DejaVuSans-36"/>
      </g>
     </g>
    </g>
    <g id="ytick_17">
     <g id="line2d_52">
      <g>
       <use style="stroke:#000000;stroke-width:0.8;" x="292.753125" xlink:href="#m7c45d74245" y="72.63915"/>
      </g>
     </g>
     <g id="text_36">
      <!-- 8 -->
      <g transform="translate(279.390625 76.438369)scale(0.1 -0.1)">
       <use xlink:href="#DejaVuSans-38"/>
      </g>
     </g>
    </g>
    <g id="ytick_18">
     <g id="line2d_53">
      <g>
       <use style="stroke:#000000;stroke-width:0.8;" x="292.753125" xlink:href="#m7c45d74245" y="36.288"/>
      </g>
     </g>
     <g id="text_37">
      <!-- 10 -->
      <g transform="translate(273.028125 40.087219)scale(0.1 -0.1)">
       <use xlink:href="#DejaVuSans-31"/>
       <use x="63.623047" xlink:href="#DejaVuSans-30"/>
      </g>
     </g>
    </g>
   </g>
   <g id="line2d_54">
    <path clip-path="url(#p23a5234250)" d="M 313.887812 175.869147 
L 335.0225 148.889324 
L 356.157188 123.363547 
L 377.291875 97.85231 
L 398.426562 77.633801 
L 419.56125 59.022012 
L 440.695938 42.922088 
L 461.830625 29.988349 
L 482.965312 22.372784 
" style="fill:none;stroke:#0000ff;stroke-dasharray:6.4,1.6,1,1.6;stroke-dashoffset:0;"/>
   </g>
   <g id="line2d_55">
    <path clip-path="url(#p23a5234250)" d="M 313.887812 194.161045 
L 335.0225 167.980947 
L 356.157188 144.243647 
L 377.291875 118.772396 
L 398.426562 93.959102 
L 419.56125 68.622351 
L 440.695938 43.558233 
L 461.830625 23.190685 
L 482.965312 4.913327 
" style="fill:none;stroke:#0000ff;stroke-dasharray:3.7,1.6;stroke-dashoffset:0;"/>
   </g>
   <g id="line2d_56">
    <path clip-path="url(#p23a5234250)" d="M 313.887812 196.094926 
L 335.0225 170.151111 
L 356.157188 145.93761 
L 377.291875 121.222464 
L 398.426562 95.834821 
L 419.56125 71.577699 
L 440.695938 46.757135 
L 461.830625 21.863868 
L 482.965312 2.354206 
" style="fill:none;stroke:#0000ff;stroke-linecap:square;"/>
   </g>
   <g id="patch_12">
    <path d="M 292.753125 218.04375 
L 292.753125 36.288 
" style="fill:none;stroke:#000000;stroke-linecap:square;stroke-linejoin:miter;stroke-width:0.8;"/>
   </g>
   <g id="patch_13">
    <path d="M 504.1 218.04375 
L 504.1 36.288 
" style="fill:none;stroke:#000000;stroke-linecap:square;stroke-linejoin:miter;stroke-width:0.8;"/>
   </g>
   <g id="patch_14">
    <path d="M 292.753125 218.04375 
L 504.1 218.04375 
" style="fill:none;stroke:#000000;stroke-linecap:square;stroke-linejoin:miter;stroke-width:0.8;"/>
   </g>
   <g id="patch_15">
    <path d="M 292.753125 36.288 
L 504.1 36.288 
" style="fill:none;stroke:#000000;stroke-linecap:square;stroke-linejoin:miter;stroke-width:0.8;"/>
   </g>
   <g id="legend_1">
    <g id="patch_16">
     <path d="M 493.1 49.288 
L 497.1 49.288 
Q 499.1 49.288 499.1 47.288 
L 499.1 43.288 
Q 499.1 41.288 497.1 41.288 
L 493.1 41.288 
Q 491.1 41.288 491.1 43.288 
L 491.1 47.288 
Q 491.1 49.288 493.1 49.288 
z
" style="fill:#ffffff;opacity:0.8;stroke:#cccccc;stroke-linejoin:miter;"/>
    </g>
   </g>
  </g>
  <g id="axes_4">
   <g id="matplotlib.axis_6">
    <g id="ytick_19">
     <g id="line2d_57">
      <g>
       <use style="stroke:#000000;stroke-width:0.8;" x="292.753125" xlink:href="#m7c45d74245" y="218.04375"/>
      </g>
     </g>
     <g id="text_38">
      <!-- 0 -->
      <g transform="translate(279.390625 221.842969)scale(0.1 -0.1)">
       <use xlink:href="#DejaVuSans-30"/>
      </g>
     </g>
    </g>
    <g id="ytick_20">
     <g id="line2d_58">
      <g>
       <use style="stroke:#000000;stroke-width:0.8;" x="292.753125" xlink:href="#m7c45d74245" y="181.6926"/>
      </g>
     </g>
     <g id="text_39">
      <!-- 2 -->
      <g transform="translate(279.390625 185.491819)scale(0.1 -0.1)">
       <use xlink:href="#DejaVuSans-32"/>
      </g>
     </g>
    </g>
    <g id="ytick_21">
     <g id="line2d_59">
      <g>
       <use style="stroke:#000000;stroke-width:0.8;" x="292.753125" xlink:href="#m7c45d74245" y="145.34145"/>
      </g>
     </g>
     <g id="text_40">
      <!-- 4 -->
      <g transform="translate(279.390625 149.140669)scale(0.1 -0.1)">
       <use xlink:href="#DejaVuSans-34"/>
      </g>
     </g>
    </g>
    <g id="ytick_22">
     <g id="line2d_60">
      <g>
       <use style="stroke:#000000;stroke-width:0.8;" x="292.753125" xlink:href="#m7c45d74245" y="108.9903"/>
      </g>
     </g>
     <g id="text_41">
      <!-- 6 -->
      <g transform="translate(279.390625 112.789519)scale(0.1 -0.1)">
       <use xlink:href="#DejaVuSans-36"/>
      </g>
     </g>
    </g>
    <g id="ytick_23">
     <g id="line2d_61">
      <g>
       <use style="stroke:#000000;stroke-width:0.8;" x="292.753125" xlink:href="#m7c45d74245" y="72.63915"/>
      </g>
     </g>
     <g id="text_42">
      <!-- 8 -->
      <g transform="translate(279.390625 76.438369)scale(0.1 -0.1)">
       <use xlink:href="#DejaVuSans-38"/>
      </g>
     </g>
    </g>
    <g id="ytick_24">
     <g id="line2d_62">
      <g>
       <use style="stroke:#000000;stroke-width:0.8;" x="292.753125" xlink:href="#m7c45d74245" y="36.288"/>
      </g>
     </g>
     <g id="text_43">
      <!-- 10 -->
      <g transform="translate(273.028125 40.087219)scale(0.1 -0.1)">
       <use xlink:href="#DejaVuSans-31"/>
       <use x="63.623047" xlink:href="#DejaVuSans-30"/>
      </g>
     </g>
    </g>
   </g>
   <g id="line2d_63">
    <path clip-path="url(#p23a5234250)" d="M 313.887812 180.801998 
L 335.0225 159.53294 
L 356.157188 134.945023 
L 377.291875 110.273498 
L 398.426562 85.125773 
L 419.56125 65.89238 
L 440.695938 47.516874 
L 461.830625 32.780118 
L 482.965312 19.999054 
" style="fill:none;stroke:#ff0000;stroke-dasharray:6.4,1.6,1,1.6;stroke-dashoffset:0;"/>
   </g>
   <g id="line2d_64">
    <path clip-path="url(#p23a5234250)" d="M 313.887812 199.043004 
L 335.0225 179.809611 
L 356.157188 156.686645 
L 377.291875 130.793722 
L 398.426562 103.817534 
L 419.56125 77.622895 
L 440.695938 50.817558 
L 461.830625 26.342329 
L 482.965312 4.55345 
" style="fill:none;stroke:#ff0000;stroke-dasharray:3.7,1.6;stroke-dashoffset:0;"/>
   </g>
   <g id="line2d_65">
    <path clip-path="url(#p23a5234250)" d="M 313.887812 199.839094 
L 335.0225 181.641709 
L 356.157188 158.449676 
L 377.291875 133.770881 
L 398.426562 107.852511 
L 419.56125 81.516104 
L 440.695938 54.525375 
L 461.830625 26.113317 
L 482.965312 1.721696 
" style="fill:none;stroke:#ff0000;stroke-linecap:square;"/>
   </g>
   <g id="patch_17">
    <path d="M 292.753125 218.04375 
L 292.753125 36.288 
" style="fill:none;stroke:#000000;stroke-linecap:square;stroke-linejoin:miter;stroke-width:0.8;"/>
   </g>
   <g id="patch_18">
    <path d="M 504.1 218.04375 
L 504.1 36.288 
" style="fill:none;stroke:#000000;stroke-linecap:square;stroke-linejoin:miter;stroke-width:0.8;"/>
   </g>
   <g id="patch_19">
    <path d="M 292.753125 218.04375 
L 504.1 218.04375 
" style="fill:none;stroke:#000000;stroke-linecap:square;stroke-linejoin:miter;stroke-width:0.8;"/>
   </g>
   <g id="patch_20">
    <path d="M 292.753125 36.288 
L 504.1 36.288 
" style="fill:none;stroke:#000000;stroke-linecap:square;stroke-linejoin:miter;stroke-width:0.8;"/>
   </g>
   <g id="legend_2">
    <g id="patch_21">
     <path d="M 493.1 49.288 
L 497.1 49.288 
Q 499.1 49.288 499.1 47.288 
L 499.1 43.288 
Q 499.1 41.288 497.1 41.288 
L 493.1 41.288 
Q 491.1 41.288 491.1 43.288 
L 491.1 47.288 
Q 491.1 49.288 493.1 49.288 
z
" style="fill:#ffffff;opacity:0.8;stroke:#cccccc;stroke-linejoin:miter;"/>
    </g>
   </g>
  </g>
  <g id="axes_5">
   <g id="matplotlib.axis_7">
    <g id="ytick_25">
     <g id="line2d_66">
      <g>
       <use style="stroke:#000000;stroke-width:0.8;" x="292.753125" xlink:href="#m7c45d74245" y="218.04375"/>
      </g>
     </g>
     <g id="text_44">
      <!-- 0 -->
      <g transform="translate(279.390625 221.842969)scale(0.1 -0.1)">
       <use xlink:href="#DejaVuSans-30"/>
      </g>
     </g>
    </g>
    <g id="ytick_26">
     <g id="line2d_67">
      <g>
       <use style="stroke:#000000;stroke-width:0.8;" x="292.753125" xlink:href="#m7c45d74245" y="181.6926"/>
      </g>
     </g>
     <g id="text_45">
      <!-- 2 -->
      <g transform="translate(279.390625 185.491819)scale(0.1 -0.1)">
       <use xlink:href="#DejaVuSans-32"/>
      </g>
     </g>
    </g>
    <g id="ytick_27">
     <g id="line2d_68">
      <g>
       <use style="stroke:#000000;stroke-width:0.8;" x="292.753125" xlink:href="#m7c45d74245" y="145.34145"/>
      </g>
     </g>
     <g id="text_46">
      <!-- 4 -->
      <g transform="translate(279.390625 149.140669)scale(0.1 -0.1)">
       <use xlink:href="#DejaVuSans-34"/>
      </g>
     </g>
    </g>
    <g id="ytick_28">
     <g id="line2d_69">
      <g>
       <use style="stroke:#000000;stroke-width:0.8;" x="292.753125" xlink:href="#m7c45d74245" y="108.9903"/>
      </g>
     </g>
     <g id="text_47">
      <!-- 6 -->
      <g transform="translate(279.390625 112.789519)scale(0.1 -0.1)">
       <use xlink:href="#DejaVuSans-36"/>
      </g>
     </g>
    </g>
    <g id="ytick_29">
     <g id="line2d_70">
      <g>
       <use style="stroke:#000000;stroke-width:0.8;" x="292.753125" xlink:href="#m7c45d74245" y="72.63915"/>
      </g>
     </g>
     <g id="text_48">
      <!-- 8 -->
      <g transform="translate(279.390625 76.438369)scale(0.1 -0.1)">
       <use xlink:href="#DejaVuSans-38"/>
      </g>
     </g>
    </g>
    <g id="ytick_30">
     <g id="line2d_71">
      <g>
       <use style="stroke:#000000;stroke-width:0.8;" x="292.753125" xlink:href="#m7c45d74245" y="36.288"/>
      </g>
     </g>
     <g id="text_49">
      <!-- 10 -->
      <g transform="translate(273.028125 40.087219)scale(0.1 -0.1)">
       <use xlink:href="#DejaVuSans-31"/>
       <use x="63.623047" xlink:href="#DejaVuSans-30"/>
      </g>
     </g>
    </g>
   </g>
   <g id="line2d_72">
    <path clip-path="url(#p23a5234250)" d="M 313.887812 178.544591 
L 335.0225 159.674709 
L 356.157188 139.925129 
L 377.291875 121.695028 
L 398.426562 103.123226 
L 419.56125 85.258453 
L 440.695938 68.780477 
L 461.830625 56.144817 
L 482.965312 44.828704 
" style="fill:none;stroke:#008000;stroke-dasharray:6.4,1.6,1,1.6;stroke-dashoffset:0;"/>
   </g>
   <g id="line2d_73">
    <path clip-path="url(#p23a5234250)" d="M 313.887812 197.045508 
L 335.0225 179.011703 
L 356.157188 160.116375 
L 377.291875 140.87753 
L 398.426562 121.249726 
L 419.56125 101.131183 
L 440.695938 82.650258 
L 461.830625 63.547729 
L 482.965312 45.977401 
" style="fill:none;stroke:#008000;stroke-dasharray:3.7,1.6;stroke-dashoffset:0;"/>
   </g>
   <g id="line2d_74">
    <path clip-path="url(#p23a5234250)" d="M 313.887812 198.766735 
L 335.0225 179.622402 
L 356.157188 161.210545 
L 377.291875 142.842309 
L 398.426562 123.719787 
L 419.56125 104.704501 
L 440.695938 85.083968 
L 461.830625 66.428558 
L 482.965312 47.425994 
" style="fill:none;stroke:#008000;stroke-linecap:square;"/>
   </g>
   <g id="patch_22">
    <path d="M 292.753125 218.04375 
L 292.753125 36.288 
" style="fill:none;stroke:#000000;stroke-linecap:square;stroke-linejoin:miter;stroke-width:0.8;"/>
   </g>
   <g id="patch_23">
    <path d="M 504.1 218.04375 
L 504.1 36.288 
" style="fill:none;stroke:#000000;stroke-linecap:square;stroke-linejoin:miter;stroke-width:0.8;"/>
   </g>
   <g id="patch_24">
    <path d="M 292.753125 218.04375 
L 504.1 218.04375 
" style="fill:none;stroke:#000000;stroke-linecap:square;stroke-linejoin:miter;stroke-width:0.8;"/>
   </g>
   <g id="patch_25">
    <path d="M 292.753125 36.288 
L 504.1 36.288 
" style="fill:none;stroke:#000000;stroke-linecap:square;stroke-linejoin:miter;stroke-width:0.8;"/>
   </g>
   <g id="legend_3">
    <g id="patch_26">
     <path d="M 493.1 49.288 
L 497.1 49.288 
Q 499.1 49.288 499.1 47.288 
L 499.1 43.288 
Q 499.1 41.288 497.1 41.288 
L 493.1 41.288 
Q 491.1 41.288 491.1 43.288 
L 491.1 47.288 
Q 491.1 49.288 493.1 49.288 
z
" style="fill:#ffffff;opacity:0.8;stroke:#cccccc;stroke-linejoin:miter;"/>
    </g>
   </g>
  </g>
  <g id="axes_6">
   <g id="matplotlib.axis_8">
    <g id="ytick_31">
     <g id="line2d_75">
      <g>
       <use style="stroke:#000000;stroke-width:0.8;" x="292.753125" xlink:href="#m7c45d74245" y="218.04375"/>
      </g>
     </g>
     <g id="text_50">
      <!-- 0 -->
      <g transform="translate(279.390625 221.842969)scale(0.1 -0.1)">
       <use xlink:href="#DejaVuSans-30"/>
      </g>
     </g>
    </g>
    <g id="ytick_32">
     <g id="line2d_76">
      <g>
       <use style="stroke:#000000;stroke-width:0.8;" x="292.753125" xlink:href="#m7c45d74245" y="181.6926"/>
      </g>
     </g>
     <g id="text_51">
      <!-- 2 -->
      <g transform="translate(279.390625 185.491819)scale(0.1 -0.1)">
       <use xlink:href="#DejaVuSans-32"/>
      </g>
     </g>
    </g>
    <g id="ytick_33">
     <g id="line2d_77">
      <g>
       <use style="stroke:#000000;stroke-width:0.8;" x="292.753125" xlink:href="#m7c45d74245" y="145.34145"/>
      </g>
     </g>
     <g id="text_52">
      <!-- 4 -->
      <g transform="translate(279.390625 149.140669)scale(0.1 -0.1)">
       <use xlink:href="#DejaVuSans-34"/>
      </g>
     </g>
    </g>
    <g id="ytick_34">
     <g id="line2d_78">
      <g>
       <use style="stroke:#000000;stroke-width:0.8;" x="292.753125" xlink:href="#m7c45d74245" y="108.9903"/>
      </g>
     </g>
     <g id="text_53">
      <!-- 6 -->
      <g transform="translate(279.390625 112.789519)scale(0.1 -0.1)">
       <use xlink:href="#DejaVuSans-36"/>
      </g>
     </g>
    </g>
    <g id="ytick_35">
     <g id="line2d_79">
      <g>
       <use style="stroke:#000000;stroke-width:0.8;" x="292.753125" xlink:href="#m7c45d74245" y="72.63915"/>
      </g>
     </g>
     <g id="text_54">
      <!-- 8 -->
      <g transform="translate(279.390625 76.438369)scale(0.1 -0.1)">
       <use xlink:href="#DejaVuSans-38"/>
      </g>
     </g>
    </g>
    <g id="ytick_36">
     <g id="line2d_80">
      <g>
       <use style="stroke:#000000;stroke-width:0.8;" x="292.753125" xlink:href="#m7c45d74245" y="36.288"/>
      </g>
     </g>
     <g id="text_55">
      <!-- 10 -->
      <g transform="translate(273.028125 40.087219)scale(0.1 -0.1)">
       <use xlink:href="#DejaVuSans-31"/>
       <use x="63.623047" xlink:href="#DejaVuSans-30"/>
      </g>
     </g>
    </g>
   </g>
   <g id="line2d_81">
    <path clip-path="url(#p23a5234250)" d="M 313.887812 187.490609 
L 335.0225 173.76078 
L 356.157188 152.18092 
L 377.291875 124.564951 
L 398.426562 103.065064 
L 419.56125 80.649127 
L 440.695938 58.583979 
L 461.830625 37.383989 
L 482.965312 19.615547 
" style="fill:none;stroke:#1f77b4;stroke-dasharray:6.4,1.6,1,1.6;stroke-dashoffset:0;"/>
    <g clip-path="url(#p23a5234250)">
     <use style="fill:#1f77b4;stroke:#1f77b4;" x="313.887812" xlink:href="#meed4ecf936" y="187.490609"/>
     <use style="fill:#1f77b4;stroke:#1f77b4;" x="335.0225" xlink:href="#meed4ecf936" y="173.76078"/>
     <use style="fill:#1f77b4;stroke:#1f77b4;" x="356.157188" xlink:href="#meed4ecf936" y="152.18092"/>
     <use style="fill:#1f77b4;stroke:#1f77b4;" x="377.291875" xlink:href="#meed4ecf936" y="124.564951"/>
     <use style="fill:#1f77b4;stroke:#1f77b4;" x="398.426562" xlink:href="#meed4ecf936" y="103.065064"/>
     <use style="fill:#1f77b4;stroke:#1f77b4;" x="419.56125" xlink:href="#meed4ecf936" y="80.649127"/>
     <use style="fill:#1f77b4;stroke:#1f77b4;" x="440.695938" xlink:href="#meed4ecf936" y="58.583979"/>
     <use style="fill:#1f77b4;stroke:#1f77b4;" x="461.830625" xlink:href="#meed4ecf936" y="37.383989"/>
     <use style="fill:#1f77b4;stroke:#1f77b4;" x="482.965312" xlink:href="#meed4ecf936" y="19.615547"/>
    </g>
   </g>
   <g id="line2d_82">
    <path clip-path="url(#p23a5234250)" d="M 313.887812 199.304732 
L 335.0225 191.607376 
L 356.157188 171.00718 
L 377.291875 144.930683 
L 398.426562 124.163271 
L 419.56125 98.777446 
L 440.695938 69.445703 
L 461.830625 40.826443 
L 482.965312 10.776765 
" style="fill:none;stroke:#ff7f0e;stroke-dasharray:3.7,1.6;stroke-dashoffset:0;"/>
    <g clip-path="url(#p23a5234250)">
     <use style="fill:#ff7f0e;stroke:#ff7f0e;" x="313.887812" xlink:href="#m9ccac7492b" y="199.304732"/>
     <use style="fill:#ff7f0e;stroke:#ff7f0e;" x="335.0225" xlink:href="#m9ccac7492b" y="191.607376"/>
     <use style="fill:#ff7f0e;stroke:#ff7f0e;" x="356.157188" xlink:href="#m9ccac7492b" y="171.00718"/>
     <use style="fill:#ff7f0e;stroke:#ff7f0e;" x="377.291875" xlink:href="#m9ccac7492b" y="144.930683"/>
     <use style="fill:#ff7f0e;stroke:#ff7f0e;" x="398.426562" xlink:href="#m9ccac7492b" y="124.163271"/>
     <use style="fill:#ff7f0e;stroke:#ff7f0e;" x="419.56125" xlink:href="#m9ccac7492b" y="98.777446"/>
     <use style="fill:#ff7f0e;stroke:#ff7f0e;" x="440.695938" xlink:href="#m9ccac7492b" y="69.445703"/>
     <use style="fill:#ff7f0e;stroke:#ff7f0e;" x="461.830625" xlink:href="#m9ccac7492b" y="40.826443"/>
     <use style="fill:#ff7f0e;stroke:#ff7f0e;" x="482.965312" xlink:href="#m9ccac7492b" y="10.776765"/>
    </g>
   </g>
   <g id="line2d_83">
    <path clip-path="url(#p23a5234250)" d="M 313.887812 199.868175 
L 335.0225 191.727335 
L 356.157188 171.708757 
L 377.291875 147.946011 
L 398.426562 123.986968 
L 419.56125 94.709752 
L 440.695938 65.139909 
L 461.830625 36.346164 
L 482.965312 7.472446 
" style="fill:none;stroke:#2ca02c;stroke-linecap:square;"/>
    <g clip-path="url(#p23a5234250)">
     <use style="fill:#2ca02c;stroke:#2ca02c;" x="313.887812" xlink:href="#m6192c8b638" y="199.868175"/>
     <use style="fill:#2ca02c;stroke:#2ca02c;" x="335.0225" xlink:href="#m6192c8b638" y="191.727335"/>
     <use style="fill:#2ca02c;stroke:#2ca02c;" x="356.157188" xlink:href="#m6192c8b638" y="171.708757"/>
     <use style="fill:#2ca02c;stroke:#2ca02c;" x="377.291875" xlink:href="#m6192c8b638" y="147.946011"/>
     <use style="fill:#2ca02c;stroke:#2ca02c;" x="398.426562" xlink:href="#m6192c8b638" y="123.986968"/>
     <use style="fill:#2ca02c;stroke:#2ca02c;" x="419.56125" xlink:href="#m6192c8b638" y="94.709752"/>
     <use style="fill:#2ca02c;stroke:#2ca02c;" x="440.695938" xlink:href="#m6192c8b638" y="65.139909"/>
     <use style="fill:#2ca02c;stroke:#2ca02c;" x="461.830625" xlink:href="#m6192c8b638" y="36.346164"/>
     <use style="fill:#2ca02c;stroke:#2ca02c;" x="482.965312" xlink:href="#m6192c8b638" y="7.472446"/>
    </g>
   </g>
   <g id="patch_27">
    <path d="M 292.753125 218.04375 
L 292.753125 36.288 
" style="fill:none;stroke:#000000;stroke-linecap:square;stroke-linejoin:miter;stroke-width:0.8;"/>
   </g>
   <g id="patch_28">
    <path d="M 504.1 218.04375 
L 504.1 36.288 
" style="fill:none;stroke:#000000;stroke-linecap:square;stroke-linejoin:miter;stroke-width:0.8;"/>
   </g>
   <g id="patch_29">
    <path d="M 292.753125 218.04375 
L 504.1 218.04375 
" style="fill:none;stroke:#000000;stroke-linecap:square;stroke-linejoin:miter;stroke-width:0.8;"/>
   </g>
   <g id="patch_30">
    <path d="M 292.753125 36.288 
L 504.1 36.288 
" style="fill:none;stroke:#000000;stroke-linecap:square;stroke-linejoin:miter;stroke-width:0.8;"/>
   </g>
   <g id="legend_4">
    <g id="patch_31">
     <path d="M 493.1 49.288 
L 497.1 49.288 
Q 499.1 49.288 499.1 47.288 
L 499.1 43.288 
Q 499.1 41.288 497.1 41.288 
L 493.1 41.288 
Q 491.1 41.288 491.1 43.288 
L 491.1 47.288 
Q 491.1 49.288 493.1 49.288 
z
" style="fill:#ffffff;opacity:0.8;stroke:#cccccc;stroke-linejoin:miter;"/>
    </g>
   </g>
  </g>
  <g id="axes_7">
   <g id="matplotlib.axis_9">
    <g id="ytick_37">
     <g id="line2d_84">
      <g>
       <use style="stroke:#000000;stroke-width:0.8;" x="292.753125" xlink:href="#m7c45d74245" y="218.04375"/>
      </g>
     </g>
     <g id="text_56">
      <!-- 0 -->
      <g transform="translate(279.390625 221.842969)scale(0.1 -0.1)">
       <use xlink:href="#DejaVuSans-30"/>
      </g>
     </g>
    </g>
    <g id="ytick_38">
     <g id="line2d_85">
      <g>
       <use style="stroke:#000000;stroke-width:0.8;" x="292.753125" xlink:href="#m7c45d74245" y="181.6926"/>
      </g>
     </g>
     <g id="text_57">
      <!-- 2 -->
      <g transform="translate(279.390625 185.491819)scale(0.1 -0.1)">
       <use xlink:href="#DejaVuSans-32"/>
      </g>
     </g>
    </g>
    <g id="ytick_39">
     <g id="line2d_86">
      <g>
       <use style="stroke:#000000;stroke-width:0.8;" x="292.753125" xlink:href="#m7c45d74245" y="145.34145"/>
      </g>
     </g>
     <g id="text_58">
      <!-- 4 -->
      <g transform="translate(279.390625 149.140669)scale(0.1 -0.1)">
       <use xlink:href="#DejaVuSans-34"/>
      </g>
     </g>
    </g>
    <g id="ytick_40">
     <g id="line2d_87">
      <g>
       <use style="stroke:#000000;stroke-width:0.8;" x="292.753125" xlink:href="#m7c45d74245" y="108.9903"/>
      </g>
     </g>
     <g id="text_59">
      <!-- 6 -->
      <g transform="translate(279.390625 112.789519)scale(0.1 -0.1)">
       <use xlink:href="#DejaVuSans-36"/>
      </g>
     </g>
    </g>
    <g id="ytick_41">
     <g id="line2d_88">
      <g>
       <use style="stroke:#000000;stroke-width:0.8;" x="292.753125" xlink:href="#m7c45d74245" y="72.63915"/>
      </g>
     </g>
     <g id="text_60">
      <!-- 8 -->
      <g transform="translate(279.390625 76.438369)scale(0.1 -0.1)">
       <use xlink:href="#DejaVuSans-38"/>
      </g>
     </g>
    </g>
    <g id="ytick_42">
     <g id="line2d_89">
      <g>
       <use style="stroke:#000000;stroke-width:0.8;" x="292.753125" xlink:href="#m7c45d74245" y="36.288"/>
      </g>
     </g>
     <g id="text_61">
      <!-- 10 -->
      <g transform="translate(273.028125 40.087219)scale(0.1 -0.1)">
       <use xlink:href="#DejaVuSans-31"/>
       <use x="63.623047" xlink:href="#DejaVuSans-30"/>
      </g>
     </g>
    </g>
   </g>
   <g id="line2d_90">
    <path clip-path="url(#p23a5234250)" d="M 313.887812 178.1211 
L 335.0225 154.147517 
L 356.157188 129.356033 
L 377.291875 104.106524 
L 398.426562 81.038085 
L 419.56125 60.846839 
L 440.695938 44.425207 
L 461.830625 31.195206 
L 482.965312 20.689724 
" style="fill:none;stroke:#000000;stroke-dasharray:12.8,3.2,2,3.2;stroke-dashoffset:0;stroke-width:2;"/>
   </g>
   <g id="line2d_91">
    <path clip-path="url(#p23a5234250)" d="M 313.887812 196.60566 
L 335.0225 174.037048 
L 356.157188 150.301565 
L 377.291875 124.972084 
L 398.426562 99.095518 
L 419.56125 72.444673 
L 440.695938 47.811316 
L 461.830625 24.435709 
L 482.965312 5.65307 
" style="fill:none;stroke:#000000;stroke-dasharray:7.4,3.2;stroke-dashoffset:0;stroke-width:2;"/>
   </g>
   <g id="line2d_92">
    <path clip-path="url(#p23a5234250)" d="M 313.887812 197.976098 
L 335.0225 175.689208 
L 356.157188 152.424472 
L 377.291875 127.820197 
L 398.426562 101.45289 
L 419.56125 76.0707 
L 440.695938 49.721569 
L 461.830625 24.624735 
L 482.965312 1.041927 
" style="fill:none;stroke:#000000;stroke-linecap:square;stroke-width:2;"/>
   </g>
   <g id="patch_32">
    <path d="M 292.753125 218.04375 
L 292.753125 36.288 
" style="fill:none;stroke:#000000;stroke-linecap:square;stroke-linejoin:miter;stroke-width:0.8;"/>
   </g>
   <g id="patch_33">
    <path d="M 504.1 218.04375 
L 504.1 36.288 
" style="fill:none;stroke:#000000;stroke-linecap:square;stroke-linejoin:miter;stroke-width:0.8;"/>
   </g>
   <g id="patch_34">
    <path d="M 292.753125 218.04375 
L 504.1 218.04375 
" style="fill:none;stroke:#000000;stroke-linecap:square;stroke-linejoin:miter;stroke-width:0.8;"/>
   </g>
   <g id="patch_35">
    <path d="M 292.753125 36.288 
L 504.1 36.288 
" style="fill:none;stroke:#000000;stroke-linecap:square;stroke-linejoin:miter;stroke-width:0.8;"/>
   </g>
   <g id="legend_5">
    <g id="patch_36">
     <path d="M 366.2 213.04375 
L 497.1 213.04375 
Q 499.1 213.04375 499.1 211.04375 
L 499.1 182.6875 
Q 499.1 180.6875 497.1 180.6875 
L 366.2 180.6875 
Q 364.2 180.6875 364.2 182.6875 
L 364.2 211.04375 
Q 364.2 213.04375 366.2 213.04375 
z
" style="fill:#ffffff;opacity:0.8;stroke:#cccccc;stroke-linejoin:miter;"/>
    </g>
    <g id="line2d_93">
     <path d="M 368.2 188.785937 
L 388.2 188.785937 
" style="fill:none;stroke:#000000;stroke-dasharray:12.8,3.2,2,3.2;stroke-dashoffset:0;stroke-width:2;"/>
    </g>
    <g id="line2d_94"/>
    <g id="text_62">
     <!-- 400 -->
     <g transform="translate(396.2 192.285937)scale(0.1 -0.1)">
      <use xlink:href="#DejaVuSans-34"/>
      <use x="63.623047" xlink:href="#DejaVuSans-30"/>
      <use x="127.246094" xlink:href="#DejaVuSans-30"/>
     </g>
    </g>
    <g id="line2d_95">
     <path d="M 368.2 203.464062 
L 388.2 203.464062 
" style="fill:none;stroke:#000000;stroke-dasharray:7.4,3.2;stroke-dashoffset:0;stroke-width:2;"/>
    </g>
    <g id="line2d_96"/>
    <g id="text_63">
     <!-- 1600 -->
     <g transform="translate(396.2 206.964062)scale(0.1 -0.1)">
      <use xlink:href="#DejaVuSans-31"/>
      <use x="63.623047" xlink:href="#DejaVuSans-36"/>
      <use x="127.246094" xlink:href="#DejaVuSans-30"/>
      <use x="190.869141" xlink:href="#DejaVuSans-30"/>
     </g>
    </g>
    <g id="line2d_97">
     <path d="M 441.65 188.785937 
L 461.65 188.785937 
" style="fill:none;stroke:#000000;stroke-linecap:square;stroke-width:2;"/>
    </g>
    <g id="line2d_98"/>
    <g id="text_64">
     <!-- 6400 -->
     <g transform="translate(469.65 192.285937)scale(0.1 -0.1)">
      <use xlink:href="#DejaVuSans-36"/>
      <use x="63.623047" xlink:href="#DejaVuSans-34"/>
      <use x="127.246094" xlink:href="#DejaVuSans-30"/>
      <use x="190.869141" xlink:href="#DejaVuSans-30"/>
     </g>
    </g>
   </g>
  </g>
  <g id="text_65">
   <!-- Expt 2 Results: $f(n)$ Const, Decr Avg Area, Development -->
   <defs>
    <path d="M 54.890625 54.6875 
L 35.109375 28.078125 
L 55.90625 0 
L 45.3125 0 
L 29.390625 21.484375 
L 13.484375 0 
L 2.875 0 
L 24.125 28.609375 
L 4.6875 54.6875 
L 15.28125 54.6875 
L 29.78125 35.203125 
L 44.28125 54.6875 
z
" id="DejaVuSans-78"/>
    <path d="M 18.109375 8.203125 
L 18.109375 -20.796875 
L 9.078125 -20.796875 
L 9.078125 54.6875 
L 18.109375 54.6875 
L 18.109375 46.390625 
Q 20.953125 51.265625 25.265625 53.625 
Q 29.59375 56 35.59375 56 
Q 45.5625 56 51.78125 48.09375 
Q 58.015625 40.1875 58.015625 27.296875 
Q 58.015625 14.40625 51.78125 6.484375 
Q 45.5625 -1.421875 35.59375 -1.421875 
Q 29.59375 -1.421875 25.265625 0.953125 
Q 20.953125 3.328125 18.109375 8.203125 
z
M 48.6875 27.296875 
Q 48.6875 37.203125 44.609375 42.84375 
Q 40.53125 48.484375 33.40625 48.484375 
Q 26.265625 48.484375 22.1875 42.84375 
Q 18.109375 37.203125 18.109375 27.296875 
Q 18.109375 17.390625 22.1875 11.75 
Q 26.265625 6.109375 33.40625 6.109375 
Q 40.53125 6.109375 44.609375 11.75 
Q 48.6875 17.390625 48.6875 27.296875 
z
" id="DejaVuSans-70"/>
    <path d="M 44.390625 34.1875 
Q 47.5625 33.109375 50.5625 29.59375 
Q 53.5625 26.078125 56.59375 19.921875 
L 66.609375 0 
L 56 0 
L 46.6875 18.703125 
Q 43.0625 26.03125 39.671875 28.421875 
Q 36.28125 30.8125 30.421875 30.8125 
L 19.671875 30.8125 
L 19.671875 0 
L 9.8125 0 
L 9.8125 72.90625 
L 32.078125 72.90625 
Q 44.578125 72.90625 50.734375 67.671875 
Q 56.890625 62.453125 56.890625 51.90625 
Q 56.890625 45.015625 53.6875 40.46875 
Q 50.484375 35.9375 44.390625 34.1875 
z
M 19.671875 64.796875 
L 19.671875 38.921875 
L 32.078125 38.921875 
Q 39.203125 38.921875 42.84375 42.21875 
Q 46.484375 45.515625 46.484375 51.90625 
Q 46.484375 58.296875 42.84375 61.546875 
Q 39.203125 64.796875 32.078125 64.796875 
z
" id="DejaVuSans-52"/>
    <path d="M 11.71875 12.40625 
L 22.015625 12.40625 
L 22.015625 0 
L 11.71875 0 
z
M 11.71875 51.703125 
L 22.015625 51.703125 
L 22.015625 39.3125 
L 11.71875 39.3125 
z
" id="DejaVuSans-3a"/>
    <path d="M 47.796875 75.984375 
L 46.390625 68.5 
L 37.796875 68.5 
Q 32.90625 68.5 30.6875 66.578125 
Q 28.46875 64.65625 27.390625 59.515625 
L 26.421875 54.6875 
L 41.21875 54.6875 
L 39.890625 47.703125 
L 25.09375 47.703125 
L 15.828125 0 
L 6.78125 0 
L 16.109375 47.703125 
L 7.515625 47.703125 
L 8.796875 54.6875 
L 17.390625 54.6875 
L 18.109375 58.5 
Q 19.96875 68.171875 24.625 72.078125 
Q 29.296875 75.984375 39.3125 75.984375 
z
" id="DejaVuSans-Oblique-66"/>
    <path d="M 31 75.875 
Q 24.46875 64.65625 21.28125 53.65625 
Q 18.109375 42.671875 18.109375 31.390625 
Q 18.109375 20.125 21.3125 9.0625 
Q 24.515625 -2 31 -13.1875 
L 23.1875 -13.1875 
Q 15.875 -1.703125 12.234375 9.375 
Q 8.59375 20.453125 8.59375 31.390625 
Q 8.59375 42.28125 12.203125 53.3125 
Q 15.828125 64.359375 23.1875 75.875 
z
" id="DejaVuSans-28"/>
    <path d="M 55.71875 33.015625 
L 49.3125 0 
L 40.28125 0 
L 46.6875 32.671875 
Q 47.125 34.96875 47.359375 36.71875 
Q 47.609375 38.484375 47.609375 39.5 
Q 47.609375 43.609375 45.015625 45.890625 
Q 42.4375 48.1875 37.796875 48.1875 
Q 30.5625 48.1875 25.34375 43.375 
Q 20.125 38.578125 18.5 30.328125 
L 12.5 0 
L 3.515625 0 
L 14.109375 54.6875 
L 23.09375 54.6875 
L 21.296875 46.09375 
Q 25.046875 50.828125 30.3125 53.40625 
Q 35.59375 56 41.40625 56 
Q 48.640625 56 52.609375 52.09375 
Q 56.59375 48.1875 56.59375 41.109375 
Q 56.59375 39.359375 56.375 37.359375 
Q 56.15625 35.359375 55.71875 33.015625 
z
" id="DejaVuSans-Oblique-6e"/>
    <path d="M 8.015625 75.875 
L 15.828125 75.875 
Q 23.140625 64.359375 26.78125 53.3125 
Q 30.421875 42.28125 30.421875 31.390625 
Q 30.421875 20.453125 26.78125 9.375 
Q 23.140625 -1.703125 15.828125 -13.1875 
L 8.015625 -13.1875 
Q 14.5 -2 17.703125 9.0625 
Q 20.90625 20.125 20.90625 31.390625 
Q 20.90625 42.671875 17.703125 53.65625 
Q 14.5 64.65625 8.015625 75.875 
z
" id="DejaVuSans-29"/>
    <path d="M 11.71875 12.40625 
L 22.015625 12.40625 
L 22.015625 4 
L 14.015625 -11.625 
L 7.71875 -11.625 
L 11.71875 4 
z
" id="DejaVuSans-2c"/>
    <path d="M 19.671875 64.796875 
L 19.671875 8.109375 
L 31.59375 8.109375 
Q 46.6875 8.109375 53.6875 14.9375 
Q 60.6875 21.78125 60.6875 36.53125 
Q 60.6875 51.171875 53.6875 57.984375 
Q 46.6875 64.796875 31.59375 64.796875 
z
M 9.8125 72.90625 
L 30.078125 72.90625 
Q 51.265625 72.90625 61.171875 64.09375 
Q 71.09375 55.28125 71.09375 36.53125 
Q 71.09375 17.671875 61.125 8.828125 
Q 51.171875 0 30.078125 0 
L 9.8125 0 
z
" id="DejaVuSans-44"/>
    <path d="M 34.1875 63.1875 
L 20.796875 26.90625 
L 47.609375 26.90625 
z
M 28.609375 72.90625 
L 39.796875 72.90625 
L 67.578125 0 
L 57.328125 0 
L 50.6875 18.703125 
L 17.828125 18.703125 
L 11.1875 0 
L 0.78125 0 
z
" id="DejaVuSans-41"/>
    <path d="M 2.984375 54.6875 
L 12.5 54.6875 
L 29.59375 8.796875 
L 46.6875 54.6875 
L 56.203125 54.6875 
L 35.6875 0 
L 23.484375 0 
z
" id="DejaVuSans-76"/>
    <path d="M 45.40625 27.984375 
Q 45.40625 37.75 41.375 43.109375 
Q 37.359375 48.484375 30.078125 48.484375 
Q 22.859375 48.484375 18.828125 43.109375 
Q 14.796875 37.75 14.796875 27.984375 
Q 14.796875 18.265625 18.828125 12.890625 
Q 22.859375 7.515625 30.078125 7.515625 
Q 37.359375 7.515625 41.375 12.890625 
Q 45.40625 18.265625 45.40625 27.984375 
z
M 54.390625 6.78125 
Q 54.390625 -7.171875 48.1875 -13.984375 
Q 42 -20.796875 29.203125 -20.796875 
Q 24.46875 -20.796875 20.265625 -20.09375 
Q 16.0625 -19.390625 12.109375 -17.921875 
L 12.109375 -9.1875 
Q 16.0625 -11.328125 19.921875 -12.34375 
Q 23.78125 -13.375 27.78125 -13.375 
Q 36.625 -13.375 41.015625 -8.765625 
Q 45.40625 -4.15625 45.40625 5.171875 
L 45.40625 9.625 
Q 42.625 4.78125 38.28125 2.390625 
Q 33.9375 0 27.875 0 
Q 17.828125 0 11.671875 7.65625 
Q 5.515625 15.328125 5.515625 27.984375 
Q 5.515625 40.671875 11.671875 48.328125 
Q 17.828125 56 27.875 56 
Q 33.9375 56 38.28125 53.609375 
Q 42.625 51.21875 45.40625 46.390625 
L 45.40625 54.6875 
L 54.390625 54.6875 
z
" id="DejaVuSans-67"/>
   </defs>
   <g transform="translate(77.2 15.064)scale(0.13 -0.13)">
    <use transform="translate(0 0.015625)" xlink:href="#DejaVuSans-45"/>
    <use transform="translate(63.183594 0.015625)" xlink:href="#DejaVuSans-78"/>
    <use transform="translate(122.363281 0.015625)" xlink:href="#DejaVuSans-70"/>
    <use transform="translate(185.839844 0.015625)" xlink:href="#DejaVuSans-74"/>
    <use transform="translate(225.048828 0.015625)" xlink:href="#DejaVuSans-20"/>
    <use transform="translate(256.835938 0.015625)" xlink:href="#DejaVuSans-32"/>
    <use transform="translate(320.458984 0.015625)" xlink:href="#DejaVuSans-20"/>
    <use transform="translate(352.246094 0.015625)" xlink:href="#DejaVuSans-52"/>
    <use transform="translate(421.728516 0.015625)" xlink:href="#DejaVuSans-65"/>
    <use transform="translate(483.251953 0.015625)" xlink:href="#DejaVuSans-73"/>
    <use transform="translate(535.351562 0.015625)" xlink:href="#DejaVuSans-75"/>
    <use transform="translate(598.730469 0.015625)" xlink:href="#DejaVuSans-6c"/>
    <use transform="translate(626.513672 0.015625)" xlink:href="#DejaVuSans-74"/>
    <use transform="translate(665.722656 0.015625)" xlink:href="#DejaVuSans-73"/>
    <use transform="translate(717.822266 0.015625)" xlink:href="#DejaVuSans-3a"/>
    <use transform="translate(751.513672 0.015625)" xlink:href="#DejaVuSans-20"/>
    <use transform="translate(783.300781 0.015625)" xlink:href="#DejaVuSans-Oblique-66"/>
    <use transform="translate(818.505859 0.015625)" xlink:href="#DejaVuSans-28"/>
    <use transform="translate(857.519531 0.015625)" xlink:href="#DejaVuSans-Oblique-6e"/>
    <use transform="translate(920.898438 0.015625)" xlink:href="#DejaVuSans-29"/>
    <use transform="translate(959.912109 0.015625)" xlink:href="#DejaVuSans-20"/>
    <use transform="translate(991.699219 0.015625)" xlink:href="#DejaVuSans-43"/>
    <use transform="translate(1061.523438 0.015625)" xlink:href="#DejaVuSans-6f"/>
    <use transform="translate(1122.705078 0.015625)" xlink:href="#DejaVuSans-6e"/>
    <use transform="translate(1186.083984 0.015625)" xlink:href="#DejaVuSans-73"/>
    <use transform="translate(1238.183594 0.015625)" xlink:href="#DejaVuSans-74"/>
    <use transform="translate(1277.392578 0.015625)" xlink:href="#DejaVuSans-2c"/>
    <use transform="translate(1309.179688 0.015625)" xlink:href="#DejaVuSans-20"/>
    <use transform="translate(1340.966797 0.015625)" xlink:href="#DejaVuSans-44"/>
    <use transform="translate(1417.96875 0.015625)" xlink:href="#DejaVuSans-65"/>
    <use transform="translate(1479.492188 0.015625)" xlink:href="#DejaVuSans-63"/>
    <use transform="translate(1534.472656 0.015625)" xlink:href="#DejaVuSans-72"/>
    <use transform="translate(1575.585938 0.015625)" xlink:href="#DejaVuSans-20"/>
    <use transform="translate(1607.373047 0.015625)" xlink:href="#DejaVuSans-41"/>
    <use transform="translate(1675.78125 0.015625)" xlink:href="#DejaVuSans-76"/>
    <use transform="translate(1734.960938 0.015625)" xlink:href="#DejaVuSans-67"/>
    <use transform="translate(1798.4375 0.015625)" xlink:href="#DejaVuSans-20"/>
    <use transform="translate(1830.224609 0.015625)" xlink:href="#DejaVuSans-41"/>
    <use transform="translate(1898.632812 0.015625)" xlink:href="#DejaVuSans-72"/>
    <use transform="translate(1939.746094 0.015625)" xlink:href="#DejaVuSans-65"/>
    <use transform="translate(2001.269531 0.015625)" xlink:href="#DejaVuSans-61"/>
    <use transform="translate(2062.548828 0.015625)" xlink:href="#DejaVuSans-2c"/>
    <use transform="translate(2094.335938 0.015625)" xlink:href="#DejaVuSans-20"/>
    <use transform="translate(2126.123047 0.015625)" xlink:href="#DejaVuSans-44"/>
    <use transform="translate(2203.125 0.015625)" xlink:href="#DejaVuSans-65"/>
    <use transform="translate(2264.648438 0.015625)" xlink:href="#DejaVuSans-76"/>
    <use transform="translate(2323.828125 0.015625)" xlink:href="#DejaVuSans-65"/>
    <use transform="translate(2385.351562 0.015625)" xlink:href="#DejaVuSans-6c"/>
    <use transform="translate(2413.134766 0.015625)" xlink:href="#DejaVuSans-6f"/>
    <use transform="translate(2474.316406 0.015625)" xlink:href="#DejaVuSans-70"/>
    <use transform="translate(2537.792969 0.015625)" xlink:href="#DejaVuSans-6d"/>
    <use transform="translate(2635.205078 0.015625)" xlink:href="#DejaVuSans-65"/>
    <use transform="translate(2696.728516 0.015625)" xlink:href="#DejaVuSans-6e"/>
    <use transform="translate(2760.107422 0.015625)" xlink:href="#DejaVuSans-74"/>
   </g>
  </g>
 </g>
 <defs>
  <clipPath id="p5ee458386d">
   <rect height="181.75575" width="211.346875" x="47.38125" y="36.288"/>
  </clipPath>
  <clipPath id="p23a5234250">
   <rect height="181.75575" width="211.346875" x="292.753125" y="36.288"/>
  </clipPath>
 </defs>
</svg>
