<?xml version="1.0" encoding="utf-8" standalone="no"?>
<!DOCTYPE svg PUBLIC "-//W3C//DTD SVG 1.1//EN"
  "http://www.w3.org/Graphics/SVG/1.1/DTD/svg11.dtd">
<!-- Created with matplotlib (http://matplotlib.org/) -->
<svg height="259pt" version="1.1" viewBox="0 0 518 259" width="518pt" xmlns="http://www.w3.org/2000/svg" xmlns:xlink="http://www.w3.org/1999/xlink">
 <defs>
  <style type="text/css">
*{stroke-linecap:butt;stroke-linejoin:round;}
  </style>
 </defs>
 <g id="figure_1">
  <g id="patch_1">
   <path d="M 0 259.2 
L 518.4 259.2 
L 518.4 0 
L 0 0 
z
" style="fill:#ffffff;"/>
  </g>
  <g id="axes_1">
   <g id="patch_2">
    <path d="M 44.425 217.4 
L 255.675 217.4 
L 255.675 36.288 
L 44.425 36.288 
z
" style="fill:#ffffff;"/>
   </g>
   <g id="matplotlib.axis_1">
    <g id="xtick_1">
     <g id="line2d_1">
      <defs>
       <path d="M 0 0 
L 0 3.5 
" id="m917fcbcc0e" style="stroke:#000000;stroke-width:0.8;"/>
      </defs>
      <g>
       <use style="stroke:#000000;stroke-width:0.8;" x="44.425" xlink:href="#m917fcbcc0e" y="217.4"/>
      </g>
     </g>
     <g id="text_1">
      <!-- 0 -->
      <defs>
       <path d="M 31.78125 66.40625 
Q 24.171875 66.40625 20.328125 58.90625 
Q 16.5 51.421875 16.5 36.375 
Q 16.5 21.390625 20.328125 13.890625 
Q 24.171875 6.390625 31.78125 6.390625 
Q 39.453125 6.390625 43.28125 13.890625 
Q 47.125 21.390625 47.125 36.375 
Q 47.125 51.421875 43.28125 58.90625 
Q 39.453125 66.40625 31.78125 66.40625 
z
M 31.78125 74.21875 
Q 44.046875 74.21875 50.515625 64.515625 
Q 56.984375 54.828125 56.984375 36.375 
Q 56.984375 17.96875 50.515625 8.265625 
Q 44.046875 -1.421875 31.78125 -1.421875 
Q 19.53125 -1.421875 13.0625 8.265625 
Q 6.59375 17.96875 6.59375 36.375 
Q 6.59375 54.828125 13.0625 64.515625 
Q 19.53125 74.21875 31.78125 74.21875 
z
" id="DejaVuSans-30"/>
      </defs>
      <g transform="translate(41.24375 231.998437)scale(0.1 -0.1)">
       <use xlink:href="#DejaVuSans-30"/>
      </g>
     </g>
    </g>
    <g id="xtick_2">
     <g id="line2d_2">
      <g>
       <use style="stroke:#000000;stroke-width:0.8;" x="65.55" xlink:href="#m917fcbcc0e" y="217.4"/>
      </g>
     </g>
     <g id="text_2">
      <!-- 1 -->
      <defs>
       <path d="M 12.40625 8.296875 
L 28.515625 8.296875 
L 28.515625 63.921875 
L 10.984375 60.40625 
L 10.984375 69.390625 
L 28.421875 72.90625 
L 38.28125 72.90625 
L 38.28125 8.296875 
L 54.390625 8.296875 
L 54.390625 0 
L 12.40625 0 
z
" id="DejaVuSans-31"/>
      </defs>
      <g transform="translate(62.36875 231.998437)scale(0.1 -0.1)">
       <use xlink:href="#DejaVuSans-31"/>
      </g>
     </g>
    </g>
    <g id="xtick_3">
     <g id="line2d_3">
      <g>
       <use style="stroke:#000000;stroke-width:0.8;" x="86.675" xlink:href="#m917fcbcc0e" y="217.4"/>
      </g>
     </g>
     <g id="text_3">
      <!-- 2 -->
      <defs>
       <path d="M 19.1875 8.296875 
L 53.609375 8.296875 
L 53.609375 0 
L 7.328125 0 
L 7.328125 8.296875 
Q 12.9375 14.109375 22.625 23.890625 
Q 32.328125 33.6875 34.8125 36.53125 
Q 39.546875 41.84375 41.421875 45.53125 
Q 43.3125 49.21875 43.3125 52.78125 
Q 43.3125 58.59375 39.234375 62.25 
Q 35.15625 65.921875 28.609375 65.921875 
Q 23.96875 65.921875 18.8125 64.3125 
Q 13.671875 62.703125 7.8125 59.421875 
L 7.8125 69.390625 
Q 13.765625 71.78125 18.9375 73 
Q 24.125 74.21875 28.421875 74.21875 
Q 39.75 74.21875 46.484375 68.546875 
Q 53.21875 62.890625 53.21875 53.421875 
Q 53.21875 48.921875 51.53125 44.890625 
Q 49.859375 40.875 45.40625 35.40625 
Q 44.1875 33.984375 37.640625 27.21875 
Q 31.109375 20.453125 19.1875 8.296875 
z
" id="DejaVuSans-32"/>
      </defs>
      <g transform="translate(83.49375 231.998437)scale(0.1 -0.1)">
       <use xlink:href="#DejaVuSans-32"/>
      </g>
     </g>
    </g>
    <g id="xtick_4">
     <g id="line2d_4">
      <g>
       <use style="stroke:#000000;stroke-width:0.8;" x="107.8" xlink:href="#m917fcbcc0e" y="217.4"/>
      </g>
     </g>
     <g id="text_4">
      <!-- 3 -->
      <defs>
       <path d="M 40.578125 39.3125 
Q 47.65625 37.796875 51.625 33 
Q 55.609375 28.21875 55.609375 21.1875 
Q 55.609375 10.40625 48.1875 4.484375 
Q 40.765625 -1.421875 27.09375 -1.421875 
Q 22.515625 -1.421875 17.65625 -0.515625 
Q 12.796875 0.390625 7.625 2.203125 
L 7.625 11.71875 
Q 11.71875 9.328125 16.59375 8.109375 
Q 21.484375 6.890625 26.8125 6.890625 
Q 36.078125 6.890625 40.9375 10.546875 
Q 45.796875 14.203125 45.796875 21.1875 
Q 45.796875 27.640625 41.28125 31.265625 
Q 36.765625 34.90625 28.71875 34.90625 
L 20.21875 34.90625 
L 20.21875 43.015625 
L 29.109375 43.015625 
Q 36.375 43.015625 40.234375 45.921875 
Q 44.09375 48.828125 44.09375 54.296875 
Q 44.09375 59.90625 40.109375 62.90625 
Q 36.140625 65.921875 28.71875 65.921875 
Q 24.65625 65.921875 20.015625 65.03125 
Q 15.375 64.15625 9.8125 62.3125 
L 9.8125 71.09375 
Q 15.4375 72.65625 20.34375 73.4375 
Q 25.25 74.21875 29.59375 74.21875 
Q 40.828125 74.21875 47.359375 69.109375 
Q 53.90625 64.015625 53.90625 55.328125 
Q 53.90625 49.265625 50.4375 45.09375 
Q 46.96875 40.921875 40.578125 39.3125 
z
" id="DejaVuSans-33"/>
      </defs>
      <g transform="translate(104.61875 231.998437)scale(0.1 -0.1)">
       <use xlink:href="#DejaVuSans-33"/>
      </g>
     </g>
    </g>
    <g id="xtick_5">
     <g id="line2d_5">
      <g>
       <use style="stroke:#000000;stroke-width:0.8;" x="128.925" xlink:href="#m917fcbcc0e" y="217.4"/>
      </g>
     </g>
     <g id="text_5">
      <!-- 4 -->
      <defs>
       <path d="M 37.796875 64.3125 
L 12.890625 25.390625 
L 37.796875 25.390625 
z
M 35.203125 72.90625 
L 47.609375 72.90625 
L 47.609375 25.390625 
L 58.015625 25.390625 
L 58.015625 17.1875 
L 47.609375 17.1875 
L 47.609375 0 
L 37.796875 0 
L 37.796875 17.1875 
L 4.890625 17.1875 
L 4.890625 26.703125 
z
" id="DejaVuSans-34"/>
      </defs>
      <g transform="translate(125.74375 231.998437)scale(0.1 -0.1)">
       <use xlink:href="#DejaVuSans-34"/>
      </g>
     </g>
    </g>
    <g id="xtick_6">
     <g id="line2d_6">
      <g>
       <use style="stroke:#000000;stroke-width:0.8;" x="150.05" xlink:href="#m917fcbcc0e" y="217.4"/>
      </g>
     </g>
     <g id="text_6">
      <!-- 5 -->
      <defs>
       <path d="M 10.796875 72.90625 
L 49.515625 72.90625 
L 49.515625 64.59375 
L 19.828125 64.59375 
L 19.828125 46.734375 
Q 21.96875 47.46875 24.109375 47.828125 
Q 26.265625 48.1875 28.421875 48.1875 
Q 40.625 48.1875 47.75 41.5 
Q 54.890625 34.8125 54.890625 23.390625 
Q 54.890625 11.625 47.5625 5.09375 
Q 40.234375 -1.421875 26.90625 -1.421875 
Q 22.3125 -1.421875 17.546875 -0.640625 
Q 12.796875 0.140625 7.71875 1.703125 
L 7.71875 11.625 
Q 12.109375 9.234375 16.796875 8.0625 
Q 21.484375 6.890625 26.703125 6.890625 
Q 35.15625 6.890625 40.078125 11.328125 
Q 45.015625 15.765625 45.015625 23.390625 
Q 45.015625 31 40.078125 35.4375 
Q 35.15625 39.890625 26.703125 39.890625 
Q 22.75 39.890625 18.8125 39.015625 
Q 14.890625 38.140625 10.796875 36.28125 
z
" id="DejaVuSans-35"/>
      </defs>
      <g transform="translate(146.86875 231.998437)scale(0.1 -0.1)">
       <use xlink:href="#DejaVuSans-35"/>
      </g>
     </g>
    </g>
    <g id="xtick_7">
     <g id="line2d_7">
      <g>
       <use style="stroke:#000000;stroke-width:0.8;" x="171.175" xlink:href="#m917fcbcc0e" y="217.4"/>
      </g>
     </g>
     <g id="text_7">
      <!-- 6 -->
      <defs>
       <path d="M 33.015625 40.375 
Q 26.375 40.375 22.484375 35.828125 
Q 18.609375 31.296875 18.609375 23.390625 
Q 18.609375 15.53125 22.484375 10.953125 
Q 26.375 6.390625 33.015625 6.390625 
Q 39.65625 6.390625 43.53125 10.953125 
Q 47.40625 15.53125 47.40625 23.390625 
Q 47.40625 31.296875 43.53125 35.828125 
Q 39.65625 40.375 33.015625 40.375 
z
M 52.59375 71.296875 
L 52.59375 62.3125 
Q 48.875 64.0625 45.09375 64.984375 
Q 41.3125 65.921875 37.59375 65.921875 
Q 27.828125 65.921875 22.671875 59.328125 
Q 17.53125 52.734375 16.796875 39.40625 
Q 19.671875 43.65625 24.015625 45.921875 
Q 28.375 48.1875 33.59375 48.1875 
Q 44.578125 48.1875 50.953125 41.515625 
Q 57.328125 34.859375 57.328125 23.390625 
Q 57.328125 12.15625 50.6875 5.359375 
Q 44.046875 -1.421875 33.015625 -1.421875 
Q 20.359375 -1.421875 13.671875 8.265625 
Q 6.984375 17.96875 6.984375 36.375 
Q 6.984375 53.65625 15.1875 63.9375 
Q 23.390625 74.21875 37.203125 74.21875 
Q 40.921875 74.21875 44.703125 73.484375 
Q 48.484375 72.75 52.59375 71.296875 
z
" id="DejaVuSans-36"/>
      </defs>
      <g transform="translate(167.99375 231.998437)scale(0.1 -0.1)">
       <use xlink:href="#DejaVuSans-36"/>
      </g>
     </g>
    </g>
    <g id="xtick_8">
     <g id="line2d_8">
      <g>
       <use style="stroke:#000000;stroke-width:0.8;" x="192.3" xlink:href="#m917fcbcc0e" y="217.4"/>
      </g>
     </g>
     <g id="text_8">
      <!-- 7 -->
      <defs>
       <path d="M 8.203125 72.90625 
L 55.078125 72.90625 
L 55.078125 68.703125 
L 28.609375 0 
L 18.3125 0 
L 43.21875 64.59375 
L 8.203125 64.59375 
z
" id="DejaVuSans-37"/>
      </defs>
      <g transform="translate(189.11875 231.998437)scale(0.1 -0.1)">
       <use xlink:href="#DejaVuSans-37"/>
      </g>
     </g>
    </g>
    <g id="xtick_9">
     <g id="line2d_9">
      <g>
       <use style="stroke:#000000;stroke-width:0.8;" x="213.425" xlink:href="#m917fcbcc0e" y="217.4"/>
      </g>
     </g>
     <g id="text_9">
      <!-- 8 -->
      <defs>
       <path d="M 31.78125 34.625 
Q 24.75 34.625 20.71875 30.859375 
Q 16.703125 27.09375 16.703125 20.515625 
Q 16.703125 13.921875 20.71875 10.15625 
Q 24.75 6.390625 31.78125 6.390625 
Q 38.8125 6.390625 42.859375 10.171875 
Q 46.921875 13.96875 46.921875 20.515625 
Q 46.921875 27.09375 42.890625 30.859375 
Q 38.875 34.625 31.78125 34.625 
z
M 21.921875 38.8125 
Q 15.578125 40.375 12.03125 44.71875 
Q 8.5 49.078125 8.5 55.328125 
Q 8.5 64.0625 14.71875 69.140625 
Q 20.953125 74.21875 31.78125 74.21875 
Q 42.671875 74.21875 48.875 69.140625 
Q 55.078125 64.0625 55.078125 55.328125 
Q 55.078125 49.078125 51.53125 44.71875 
Q 48 40.375 41.703125 38.8125 
Q 48.828125 37.15625 52.796875 32.3125 
Q 56.78125 27.484375 56.78125 20.515625 
Q 56.78125 9.90625 50.3125 4.234375 
Q 43.84375 -1.421875 31.78125 -1.421875 
Q 19.734375 -1.421875 13.25 4.234375 
Q 6.78125 9.90625 6.78125 20.515625 
Q 6.78125 27.484375 10.78125 32.3125 
Q 14.796875 37.15625 21.921875 38.8125 
z
M 18.3125 54.390625 
Q 18.3125 48.734375 21.84375 45.5625 
Q 25.390625 42.390625 31.78125 42.390625 
Q 38.140625 42.390625 41.71875 45.5625 
Q 45.3125 48.734375 45.3125 54.390625 
Q 45.3125 60.0625 41.71875 63.234375 
Q 38.140625 66.40625 31.78125 66.40625 
Q 25.390625 66.40625 21.84375 63.234375 
Q 18.3125 60.0625 18.3125 54.390625 
z
" id="DejaVuSans-38"/>
      </defs>
      <g transform="translate(210.24375 231.998437)scale(0.1 -0.1)">
       <use xlink:href="#DejaVuSans-38"/>
      </g>
     </g>
    </g>
    <g id="xtick_10">
     <g id="line2d_10">
      <g>
       <use style="stroke:#000000;stroke-width:0.8;" x="234.55" xlink:href="#m917fcbcc0e" y="217.4"/>
      </g>
     </g>
     <g id="text_10">
      <!-- 9 -->
      <defs>
       <path d="M 10.984375 1.515625 
L 10.984375 10.5 
Q 14.703125 8.734375 18.5 7.8125 
Q 22.3125 6.890625 25.984375 6.890625 
Q 35.75 6.890625 40.890625 13.453125 
Q 46.046875 20.015625 46.78125 33.40625 
Q 43.953125 29.203125 39.59375 26.953125 
Q 35.25 24.703125 29.984375 24.703125 
Q 19.046875 24.703125 12.671875 31.3125 
Q 6.296875 37.9375 6.296875 49.421875 
Q 6.296875 60.640625 12.9375 67.421875 
Q 19.578125 74.21875 30.609375 74.21875 
Q 43.265625 74.21875 49.921875 64.515625 
Q 56.59375 54.828125 56.59375 36.375 
Q 56.59375 19.140625 48.40625 8.859375 
Q 40.234375 -1.421875 26.421875 -1.421875 
Q 22.703125 -1.421875 18.890625 -0.6875 
Q 15.09375 0.046875 10.984375 1.515625 
z
M 30.609375 32.421875 
Q 37.25 32.421875 41.125 36.953125 
Q 45.015625 41.5 45.015625 49.421875 
Q 45.015625 57.28125 41.125 61.84375 
Q 37.25 66.40625 30.609375 66.40625 
Q 23.96875 66.40625 20.09375 61.84375 
Q 16.21875 57.28125 16.21875 49.421875 
Q 16.21875 41.5 20.09375 36.953125 
Q 23.96875 32.421875 30.609375 32.421875 
z
" id="DejaVuSans-39"/>
      </defs>
      <g transform="translate(231.36875 231.998437)scale(0.1 -0.1)">
       <use xlink:href="#DejaVuSans-39"/>
      </g>
     </g>
    </g>
    <g id="text_11">
     <!-- Stimulus Numerosity -->
     <defs>
      <path d="M 53.515625 70.515625 
L 53.515625 60.890625 
Q 47.90625 63.578125 42.921875 64.890625 
Q 37.9375 66.21875 33.296875 66.21875 
Q 25.25 66.21875 20.875 63.09375 
Q 16.5 59.96875 16.5 54.203125 
Q 16.5 49.359375 19.40625 46.890625 
Q 22.3125 44.4375 30.421875 42.921875 
L 36.375 41.703125 
Q 47.40625 39.59375 52.65625 34.296875 
Q 57.90625 29 57.90625 20.125 
Q 57.90625 9.515625 50.796875 4.046875 
Q 43.703125 -1.421875 29.984375 -1.421875 
Q 24.8125 -1.421875 18.96875 -0.25 
Q 13.140625 0.921875 6.890625 3.21875 
L 6.890625 13.375 
Q 12.890625 10.015625 18.65625 8.296875 
Q 24.421875 6.59375 29.984375 6.59375 
Q 38.421875 6.59375 43.015625 9.90625 
Q 47.609375 13.234375 47.609375 19.390625 
Q 47.609375 24.75 44.3125 27.78125 
Q 41.015625 30.8125 33.5 32.328125 
L 27.484375 33.5 
Q 16.453125 35.6875 11.515625 40.375 
Q 6.59375 45.0625 6.59375 53.421875 
Q 6.59375 63.09375 13.40625 68.65625 
Q 20.21875 74.21875 32.171875 74.21875 
Q 37.3125 74.21875 42.625 73.28125 
Q 47.953125 72.359375 53.515625 70.515625 
z
" id="DejaVuSans-53"/>
      <path d="M 18.3125 70.21875 
L 18.3125 54.6875 
L 36.8125 54.6875 
L 36.8125 47.703125 
L 18.3125 47.703125 
L 18.3125 18.015625 
Q 18.3125 11.328125 20.140625 9.421875 
Q 21.96875 7.515625 27.59375 7.515625 
L 36.8125 7.515625 
L 36.8125 0 
L 27.59375 0 
Q 17.1875 0 13.234375 3.875 
Q 9.28125 7.765625 9.28125 18.015625 
L 9.28125 47.703125 
L 2.6875 47.703125 
L 2.6875 54.6875 
L 9.28125 54.6875 
L 9.28125 70.21875 
z
" id="DejaVuSans-74"/>
      <path d="M 9.421875 54.6875 
L 18.40625 54.6875 
L 18.40625 0 
L 9.421875 0 
z
M 9.421875 75.984375 
L 18.40625 75.984375 
L 18.40625 64.59375 
L 9.421875 64.59375 
z
" id="DejaVuSans-69"/>
      <path d="M 52 44.1875 
Q 55.375 50.25 60.0625 53.125 
Q 64.75 56 71.09375 56 
Q 79.640625 56 84.28125 50.015625 
Q 88.921875 44.046875 88.921875 33.015625 
L 88.921875 0 
L 79.890625 0 
L 79.890625 32.71875 
Q 79.890625 40.578125 77.09375 44.375 
Q 74.3125 48.1875 68.609375 48.1875 
Q 61.625 48.1875 57.5625 43.546875 
Q 53.515625 38.921875 53.515625 30.90625 
L 53.515625 0 
L 44.484375 0 
L 44.484375 32.71875 
Q 44.484375 40.625 41.703125 44.40625 
Q 38.921875 48.1875 33.109375 48.1875 
Q 26.21875 48.1875 22.15625 43.53125 
Q 18.109375 38.875 18.109375 30.90625 
L 18.109375 0 
L 9.078125 0 
L 9.078125 54.6875 
L 18.109375 54.6875 
L 18.109375 46.1875 
Q 21.1875 51.21875 25.484375 53.609375 
Q 29.78125 56 35.6875 56 
Q 41.65625 56 45.828125 52.96875 
Q 50 49.953125 52 44.1875 
z
" id="DejaVuSans-6d"/>
      <path d="M 8.5 21.578125 
L 8.5 54.6875 
L 17.484375 54.6875 
L 17.484375 21.921875 
Q 17.484375 14.15625 20.5 10.265625 
Q 23.53125 6.390625 29.59375 6.390625 
Q 36.859375 6.390625 41.078125 11.03125 
Q 45.3125 15.671875 45.3125 23.6875 
L 45.3125 54.6875 
L 54.296875 54.6875 
L 54.296875 0 
L 45.3125 0 
L 45.3125 8.40625 
Q 42.046875 3.421875 37.71875 1 
Q 33.40625 -1.421875 27.6875 -1.421875 
Q 18.265625 -1.421875 13.375 4.4375 
Q 8.5 10.296875 8.5 21.578125 
z
M 31.109375 56 
z
" id="DejaVuSans-75"/>
      <path d="M 9.421875 75.984375 
L 18.40625 75.984375 
L 18.40625 0 
L 9.421875 0 
z
" id="DejaVuSans-6c"/>
      <path d="M 44.28125 53.078125 
L 44.28125 44.578125 
Q 40.484375 46.53125 36.375 47.5 
Q 32.28125 48.484375 27.875 48.484375 
Q 21.1875 48.484375 17.84375 46.4375 
Q 14.5 44.390625 14.5 40.28125 
Q 14.5 37.15625 16.890625 35.375 
Q 19.28125 33.59375 26.515625 31.984375 
L 29.59375 31.296875 
Q 39.15625 29.25 43.1875 25.515625 
Q 47.21875 21.78125 47.21875 15.09375 
Q 47.21875 7.46875 41.1875 3.015625 
Q 35.15625 -1.421875 24.609375 -1.421875 
Q 20.21875 -1.421875 15.453125 -0.5625 
Q 10.6875 0.296875 5.421875 2 
L 5.421875 11.28125 
Q 10.40625 8.6875 15.234375 7.390625 
Q 20.0625 6.109375 24.8125 6.109375 
Q 31.15625 6.109375 34.5625 8.28125 
Q 37.984375 10.453125 37.984375 14.40625 
Q 37.984375 18.0625 35.515625 20.015625 
Q 33.0625 21.96875 24.703125 23.78125 
L 21.578125 24.515625 
Q 13.234375 26.265625 9.515625 29.90625 
Q 5.8125 33.546875 5.8125 39.890625 
Q 5.8125 47.609375 11.28125 51.796875 
Q 16.75 56 26.8125 56 
Q 31.78125 56 36.171875 55.265625 
Q 40.578125 54.546875 44.28125 53.078125 
z
" id="DejaVuSans-73"/>
      <path id="DejaVuSans-20"/>
      <path d="M 9.8125 72.90625 
L 23.09375 72.90625 
L 55.421875 11.921875 
L 55.421875 72.90625 
L 64.984375 72.90625 
L 64.984375 0 
L 51.703125 0 
L 19.390625 60.984375 
L 19.390625 0 
L 9.8125 0 
z
" id="DejaVuSans-4e"/>
      <path d="M 56.203125 29.59375 
L 56.203125 25.203125 
L 14.890625 25.203125 
Q 15.484375 15.921875 20.484375 11.0625 
Q 25.484375 6.203125 34.421875 6.203125 
Q 39.59375 6.203125 44.453125 7.46875 
Q 49.3125 8.734375 54.109375 11.28125 
L 54.109375 2.78125 
Q 49.265625 0.734375 44.1875 -0.34375 
Q 39.109375 -1.421875 33.890625 -1.421875 
Q 20.796875 -1.421875 13.15625 6.1875 
Q 5.515625 13.8125 5.515625 26.8125 
Q 5.515625 40.234375 12.765625 48.109375 
Q 20.015625 56 32.328125 56 
Q 43.359375 56 49.78125 48.890625 
Q 56.203125 41.796875 56.203125 29.59375 
z
M 47.21875 32.234375 
Q 47.125 39.59375 43.09375 43.984375 
Q 39.0625 48.390625 32.421875 48.390625 
Q 24.90625 48.390625 20.390625 44.140625 
Q 15.875 39.890625 15.1875 32.171875 
z
" id="DejaVuSans-65"/>
      <path d="M 41.109375 46.296875 
Q 39.59375 47.171875 37.8125 47.578125 
Q 36.03125 48 33.890625 48 
Q 26.265625 48 22.1875 43.046875 
Q 18.109375 38.09375 18.109375 28.8125 
L 18.109375 0 
L 9.078125 0 
L 9.078125 54.6875 
L 18.109375 54.6875 
L 18.109375 46.1875 
Q 20.953125 51.171875 25.484375 53.578125 
Q 30.03125 56 36.53125 56 
Q 37.453125 56 38.578125 55.875 
Q 39.703125 55.765625 41.0625 55.515625 
z
" id="DejaVuSans-72"/>
      <path d="M 30.609375 48.390625 
Q 23.390625 48.390625 19.1875 42.75 
Q 14.984375 37.109375 14.984375 27.296875 
Q 14.984375 17.484375 19.15625 11.84375 
Q 23.34375 6.203125 30.609375 6.203125 
Q 37.796875 6.203125 41.984375 11.859375 
Q 46.1875 17.53125 46.1875 27.296875 
Q 46.1875 37.015625 41.984375 42.703125 
Q 37.796875 48.390625 30.609375 48.390625 
z
M 30.609375 56 
Q 42.328125 56 49.015625 48.375 
Q 55.71875 40.765625 55.71875 27.296875 
Q 55.71875 13.875 49.015625 6.21875 
Q 42.328125 -1.421875 30.609375 -1.421875 
Q 18.84375 -1.421875 12.171875 6.21875 
Q 5.515625 13.875 5.515625 27.296875 
Q 5.515625 40.765625 12.171875 48.375 
Q 18.84375 56 30.609375 56 
z
" id="DejaVuSans-6f"/>
      <path d="M 32.171875 -5.078125 
Q 28.375 -14.84375 24.75 -17.8125 
Q 21.140625 -20.796875 15.09375 -20.796875 
L 7.90625 -20.796875 
L 7.90625 -13.28125 
L 13.1875 -13.28125 
Q 16.890625 -13.28125 18.9375 -11.515625 
Q 21 -9.765625 23.484375 -3.21875 
L 25.09375 0.875 
L 2.984375 54.6875 
L 12.5 54.6875 
L 29.59375 11.921875 
L 46.6875 54.6875 
L 56.203125 54.6875 
z
" id="DejaVuSans-79"/>
     </defs>
     <g transform="translate(97.853125 245.676562)scale(0.1 -0.1)">
      <use xlink:href="#DejaVuSans-53"/>
      <use x="63.476562" xlink:href="#DejaVuSans-74"/>
      <use x="102.685547" xlink:href="#DejaVuSans-69"/>
      <use x="130.46875" xlink:href="#DejaVuSans-6d"/>
      <use x="227.880859" xlink:href="#DejaVuSans-75"/>
      <use x="291.259766" xlink:href="#DejaVuSans-6c"/>
      <use x="319.042969" xlink:href="#DejaVuSans-75"/>
      <use x="382.421875" xlink:href="#DejaVuSans-73"/>
      <use x="434.521484" xlink:href="#DejaVuSans-20"/>
      <use x="466.308594" xlink:href="#DejaVuSans-4e"/>
      <use x="541.113281" xlink:href="#DejaVuSans-75"/>
      <use x="604.492188" xlink:href="#DejaVuSans-6d"/>
      <use x="701.904297" xlink:href="#DejaVuSans-65"/>
      <use x="763.427734" xlink:href="#DejaVuSans-72"/>
      <use x="804.509766" xlink:href="#DejaVuSans-6f"/>
      <use x="865.691406" xlink:href="#DejaVuSans-73"/>
      <use x="917.791016" xlink:href="#DejaVuSans-69"/>
      <use x="945.574219" xlink:href="#DejaVuSans-74"/>
      <use x="984.783203" xlink:href="#DejaVuSans-79"/>
     </g>
    </g>
   </g>
   <g id="matplotlib.axis_2">
    <g id="ytick_1">
     <g id="line2d_11">
      <defs>
       <path d="M 0 0 
L -3.5 0 
" id="mcb46391b90" style="stroke:#000000;stroke-width:0.8;"/>
      </defs>
      <g>
       <use style="stroke:#000000;stroke-width:0.8;" x="44.425" xlink:href="#mcb46391b90" y="217.4"/>
      </g>
     </g>
     <g id="text_12">
      <!-- 0 -->
      <g transform="translate(31.0625 221.199219)scale(0.1 -0.1)">
       <use xlink:href="#DejaVuSans-30"/>
      </g>
     </g>
    </g>
    <g id="ytick_2">
     <g id="line2d_12">
      <g>
       <use style="stroke:#000000;stroke-width:0.8;" x="44.425" xlink:href="#mcb46391b90" y="181.1776"/>
      </g>
     </g>
     <g id="text_13">
      <!-- 2 -->
      <g transform="translate(31.0625 184.976819)scale(0.1 -0.1)">
       <use xlink:href="#DejaVuSans-32"/>
      </g>
     </g>
    </g>
    <g id="ytick_3">
     <g id="line2d_13">
      <g>
       <use style="stroke:#000000;stroke-width:0.8;" x="44.425" xlink:href="#mcb46391b90" y="144.9552"/>
      </g>
     </g>
     <g id="text_14">
      <!-- 4 -->
      <g transform="translate(31.0625 148.754419)scale(0.1 -0.1)">
       <use xlink:href="#DejaVuSans-34"/>
      </g>
     </g>
    </g>
    <g id="ytick_4">
     <g id="line2d_14">
      <g>
       <use style="stroke:#000000;stroke-width:0.8;" x="44.425" xlink:href="#mcb46391b90" y="108.7328"/>
      </g>
     </g>
     <g id="text_15">
      <!-- 6 -->
      <g transform="translate(31.0625 112.532019)scale(0.1 -0.1)">
       <use xlink:href="#DejaVuSans-36"/>
      </g>
     </g>
    </g>
    <g id="ytick_5">
     <g id="line2d_15">
      <g>
       <use style="stroke:#000000;stroke-width:0.8;" x="44.425" xlink:href="#mcb46391b90" y="72.5104"/>
      </g>
     </g>
     <g id="text_16">
      <!-- 8 -->
      <g transform="translate(31.0625 76.309619)scale(0.1 -0.1)">
       <use xlink:href="#DejaVuSans-38"/>
      </g>
     </g>
    </g>
    <g id="ytick_6">
     <g id="line2d_16">
      <g>
       <use style="stroke:#000000;stroke-width:0.8;" x="44.425" xlink:href="#mcb46391b90" y="36.288"/>
      </g>
     </g>
     <g id="text_17">
      <!-- 10 -->
      <g transform="translate(24.7 40.087219)scale(0.1 -0.1)">
       <use xlink:href="#DejaVuSans-31"/>
       <use x="63.623047" xlink:href="#DejaVuSans-30"/>
      </g>
     </g>
    </g>
    <g id="text_18">
     <!-- Numerosity Estimate -->
     <defs>
      <path d="M 9.8125 72.90625 
L 55.90625 72.90625 
L 55.90625 64.59375 
L 19.671875 64.59375 
L 19.671875 43.015625 
L 54.390625 43.015625 
L 54.390625 34.71875 
L 19.671875 34.71875 
L 19.671875 8.296875 
L 56.78125 8.296875 
L 56.78125 0 
L 9.8125 0 
z
" id="DejaVuSans-45"/>
      <path d="M 34.28125 27.484375 
Q 23.390625 27.484375 19.1875 25 
Q 14.984375 22.515625 14.984375 16.5 
Q 14.984375 11.71875 18.140625 8.90625 
Q 21.296875 6.109375 26.703125 6.109375 
Q 34.1875 6.109375 38.703125 11.40625 
Q 43.21875 16.703125 43.21875 25.484375 
L 43.21875 27.484375 
z
M 52.203125 31.203125 
L 52.203125 0 
L 43.21875 0 
L 43.21875 8.296875 
Q 40.140625 3.328125 35.546875 0.953125 
Q 30.953125 -1.421875 24.3125 -1.421875 
Q 15.921875 -1.421875 10.953125 3.296875 
Q 6 8.015625 6 15.921875 
Q 6 25.140625 12.171875 29.828125 
Q 18.359375 34.515625 30.609375 34.515625 
L 43.21875 34.515625 
L 43.21875 35.40625 
Q 43.21875 41.609375 39.140625 45 
Q 35.0625 48.390625 27.6875 48.390625 
Q 23 48.390625 18.546875 47.265625 
Q 14.109375 46.140625 10.015625 43.890625 
L 10.015625 52.203125 
Q 14.9375 54.109375 19.578125 55.046875 
Q 24.21875 56 28.609375 56 
Q 40.484375 56 46.34375 49.84375 
Q 52.203125 43.703125 52.203125 31.203125 
z
" id="DejaVuSans-61"/>
     </defs>
     <g transform="translate(18.620312 179.40025)rotate(-90)scale(0.1 -0.1)">
      <use xlink:href="#DejaVuSans-4e"/>
      <use x="74.804688" xlink:href="#DejaVuSans-75"/>
      <use x="138.183594" xlink:href="#DejaVuSans-6d"/>
      <use x="235.595703" xlink:href="#DejaVuSans-65"/>
      <use x="297.119141" xlink:href="#DejaVuSans-72"/>
      <use x="338.201172" xlink:href="#DejaVuSans-6f"/>
      <use x="399.382812" xlink:href="#DejaVuSans-73"/>
      <use x="451.482422" xlink:href="#DejaVuSans-69"/>
      <use x="479.265625" xlink:href="#DejaVuSans-74"/>
      <use x="518.474609" xlink:href="#DejaVuSans-79"/>
      <use x="577.654297" xlink:href="#DejaVuSans-20"/>
      <use x="609.441406" xlink:href="#DejaVuSans-45"/>
      <use x="672.625" xlink:href="#DejaVuSans-73"/>
      <use x="724.724609" xlink:href="#DejaVuSans-74"/>
      <use x="763.933594" xlink:href="#DejaVuSans-69"/>
      <use x="791.716797" xlink:href="#DejaVuSans-6d"/>
      <use x="889.128906" xlink:href="#DejaVuSans-61"/>
      <use x="950.408203" xlink:href="#DejaVuSans-74"/>
      <use x="989.617188" xlink:href="#DejaVuSans-65"/>
     </g>
    </g>
   </g>
   <g id="line2d_17">
    <path clip-path="url(#pf0df9519b7)" d="M 65.55 189.958578 
L 86.675 185.702513 
L 107.8 184.694187 
L 128.925 182.922617 
L 150.05 181.488364 
L 171.175 180.310814 
L 192.3 179.746064 
L 213.425 177.754267 
L 234.55 178.319328 
" style="fill:none;stroke:#9e0142;stroke-linecap:square;stroke-width:2;"/>
   </g>
   <g id="line2d_18">
    <path clip-path="url(#pf0df9519b7)" d="M 65.55 197.692409 
L 86.675 196.080232 
L 107.8 194.905692 
L 128.925 193.46705 
L 150.05 193.269542 
L 171.175 191.796745 
L 192.3 191.259162 
L 213.425 190.635643 
L 234.55 190.151886 
" style="fill:none;stroke:#d8434e;stroke-linecap:square;stroke-width:2;"/>
   </g>
   <g id="line2d_19">
    <path clip-path="url(#pf0df9519b7)" d="M 65.55 197.713458 
L 86.675 194.127626 
L 107.8 189.140847 
L 128.925 185.90625 
L 150.05 180.818398 
L 171.175 176.291271 
L 192.3 173.243631 
L 213.425 167.412284 
L 234.55 164.017235 
" style="fill:none;stroke:#f67a49;stroke-linecap:square;stroke-width:2;"/>
   </g>
   <g id="line2d_20">
    <path clip-path="url(#pf0df9519b7)" d="M 65.55 198.880921 
L 86.675 193.042281 
L 107.8 184.926432 
L 128.925 175.04915 
L 150.05 165.104443 
L 171.175 154.880298 
L 192.3 144.706194 
L 213.425 135.340692 
L 234.55 127.016142 
" style="fill:none;stroke:#fdbf6f;stroke-linecap:square;stroke-width:2;"/>
   </g>
   <g id="line2d_21">
    <path clip-path="url(#pf0df9519b7)" d="M 65.55 199.07547 
L 86.675 184.839814 
L 107.8 170.46279 
L 128.925 153.786736 
L 150.05 136.868866 
L 171.175 119.960556 
L 192.3 101.783632 
L 213.425 83.013227 
L 234.55 64.770937 
" style="fill:none;stroke:#feeda1;stroke-linecap:square;stroke-width:2;"/>
   </g>
   <g id="line2d_22">
    <path clip-path="url(#pf0df9519b7)" d="M 65.55 199.241598 
L 86.675 180.382969 
L 107.8 167.858036 
L 128.925 152.139909 
L 150.05 134.592 
L 171.175 116.197034 
L 192.3 98.029036 
L 213.425 79.331933 
L 234.55 62.568685 
" style="fill:none;stroke:#f1f9a9;stroke-linecap:square;stroke-width:2;"/>
   </g>
   <g id="line2d_23">
    <path clip-path="url(#pf0df9519b7)" d="M 65.55 199.166876 
L 86.675 180.185729 
L 107.8 165.031544 
L 128.925 149.128489 
L 150.05 132.840513 
L 171.175 115.38839 
L 192.3 97.50744 
L 213.425 79.051557 
L 234.55 61.711933 
" style="fill:none;stroke:#bfe5a0;stroke-linecap:square;stroke-width:2;"/>
   </g>
   <g id="line2d_24">
    <path clip-path="url(#pf0df9519b7)" d="M 65.55 199.258117 
L 86.675 180.838309 
L 107.8 164.087243 
L 128.925 146.83158 
L 150.05 130.185908 
L 171.175 112.582428 
L 192.3 95.11947 
L 213.425 77.025362 
L 234.55 59.495066 
" style="fill:none;stroke:#74c7a5;stroke-linecap:square;stroke-width:2;"/>
   </g>
   <g id="line2d_25">
    <path clip-path="url(#pf0df9519b7)" d="M 65.55 199.2888 
L 86.675 180.924423 
L 107.8 163.381977 
L 128.925 146.802864 
L 150.05 130.043812 
L 171.175 112.547386 
L 192.3 94.840597 
L 213.425 76.260528 
L 234.55 58.256463 
" style="fill:none;stroke:#378ebb;stroke-linecap:square;stroke-width:2;"/>
   </g>
   <g id="line2d_26">
    <path clip-path="url(#pf0df9519b7)" d="M 65.55 199.2888 
L 86.675 180.97563 
L 107.8 163.334868 
L 128.925 146.902822 
L 150.05 129.855645 
L 171.175 111.730465 
L 192.3 93.724948 
L 213.425 74.303529 
L 234.55 56.144344 
" style="fill:none;stroke:#5e4fa2;stroke-linecap:square;stroke-width:2;"/>
   </g>
   <g id="patch_3">
    <path d="M 44.425 217.4 
L 44.425 36.288 
" style="fill:none;stroke:#000000;stroke-linecap:square;stroke-linejoin:miter;stroke-width:0.8;"/>
   </g>
   <g id="patch_4">
    <path d="M 255.675 217.4 
L 255.675 36.288 
" style="fill:none;stroke:#000000;stroke-linecap:square;stroke-linejoin:miter;stroke-width:0.8;"/>
   </g>
   <g id="patch_5">
    <path d="M 44.425 217.4 
L 255.675 217.4 
" style="fill:none;stroke:#000000;stroke-linecap:square;stroke-linejoin:miter;stroke-width:0.8;"/>
   </g>
   <g id="patch_6">
    <path d="M 44.425 36.288 
L 255.675 36.288 
" style="fill:none;stroke:#000000;stroke-linecap:square;stroke-linejoin:miter;stroke-width:0.8;"/>
   </g>
   <g id="text_19">
    <!-- Mean Choice -->
    <defs>
     <path d="M 9.8125 72.90625 
L 24.515625 72.90625 
L 43.109375 23.296875 
L 61.8125 72.90625 
L 76.515625 72.90625 
L 76.515625 0 
L 66.890625 0 
L 66.890625 64.015625 
L 48.09375 14.015625 
L 38.1875 14.015625 
L 19.390625 64.015625 
L 19.390625 0 
L 9.8125 0 
z
" id="DejaVuSans-4d"/>
     <path d="M 54.890625 33.015625 
L 54.890625 0 
L 45.90625 0 
L 45.90625 32.71875 
Q 45.90625 40.484375 42.875 44.328125 
Q 39.84375 48.1875 33.796875 48.1875 
Q 26.515625 48.1875 22.3125 43.546875 
Q 18.109375 38.921875 18.109375 30.90625 
L 18.109375 0 
L 9.078125 0 
L 9.078125 54.6875 
L 18.109375 54.6875 
L 18.109375 46.1875 
Q 21.34375 51.125 25.703125 53.5625 
Q 30.078125 56 35.796875 56 
Q 45.21875 56 50.046875 50.171875 
Q 54.890625 44.34375 54.890625 33.015625 
z
" id="DejaVuSans-6e"/>
     <path d="M 64.40625 67.28125 
L 64.40625 56.890625 
Q 59.421875 61.53125 53.78125 63.8125 
Q 48.140625 66.109375 41.796875 66.109375 
Q 29.296875 66.109375 22.65625 58.46875 
Q 16.015625 50.828125 16.015625 36.375 
Q 16.015625 21.96875 22.65625 14.328125 
Q 29.296875 6.6875 41.796875 6.6875 
Q 48.140625 6.6875 53.78125 8.984375 
Q 59.421875 11.28125 64.40625 15.921875 
L 64.40625 5.609375 
Q 59.234375 2.09375 53.4375 0.328125 
Q 47.65625 -1.421875 41.21875 -1.421875 
Q 24.65625 -1.421875 15.125 8.703125 
Q 5.609375 18.84375 5.609375 36.375 
Q 5.609375 53.953125 15.125 64.078125 
Q 24.65625 74.21875 41.21875 74.21875 
Q 47.75 74.21875 53.53125 72.484375 
Q 59.328125 70.75 64.40625 67.28125 
z
" id="DejaVuSans-43"/>
     <path d="M 54.890625 33.015625 
L 54.890625 0 
L 45.90625 0 
L 45.90625 32.71875 
Q 45.90625 40.484375 42.875 44.328125 
Q 39.84375 48.1875 33.796875 48.1875 
Q 26.515625 48.1875 22.3125 43.546875 
Q 18.109375 38.921875 18.109375 30.90625 
L 18.109375 0 
L 9.078125 0 
L 9.078125 75.984375 
L 18.109375 75.984375 
L 18.109375 46.1875 
Q 21.34375 51.125 25.703125 53.5625 
Q 30.078125 56 35.796875 56 
Q 45.21875 56 50.046875 50.171875 
Q 54.890625 44.34375 54.890625 33.015625 
z
" id="DejaVuSans-68"/>
     <path d="M 48.78125 52.59375 
L 48.78125 44.1875 
Q 44.96875 46.296875 41.140625 47.34375 
Q 37.3125 48.390625 33.40625 48.390625 
Q 24.65625 48.390625 19.8125 42.84375 
Q 14.984375 37.3125 14.984375 27.296875 
Q 14.984375 17.28125 19.8125 11.734375 
Q 24.65625 6.203125 33.40625 6.203125 
Q 37.3125 6.203125 41.140625 7.25 
Q 44.96875 8.296875 48.78125 10.40625 
L 48.78125 2.09375 
Q 45.015625 0.34375 40.984375 -0.53125 
Q 36.96875 -1.421875 32.421875 -1.421875 
Q 20.0625 -1.421875 12.78125 6.34375 
Q 5.515625 14.109375 5.515625 27.296875 
Q 5.515625 40.671875 12.859375 48.328125 
Q 20.21875 56 33.015625 56 
Q 37.15625 56 41.109375 55.140625 
Q 45.0625 54.296875 48.78125 52.59375 
z
" id="DejaVuSans-63"/>
    </defs>
    <g transform="translate(111.47375 30.288)scale(0.12 -0.12)">
     <use xlink:href="#DejaVuSans-4d"/>
     <use x="86.279297" xlink:href="#DejaVuSans-65"/>
     <use x="147.802734" xlink:href="#DejaVuSans-61"/>
     <use x="209.082031" xlink:href="#DejaVuSans-6e"/>
     <use x="272.460938" xlink:href="#DejaVuSans-20"/>
     <use x="304.248047" xlink:href="#DejaVuSans-43"/>
     <use x="374.072266" xlink:href="#DejaVuSans-68"/>
     <use x="437.451172" xlink:href="#DejaVuSans-6f"/>
     <use x="498.632812" xlink:href="#DejaVuSans-69"/>
     <use x="526.416016" xlink:href="#DejaVuSans-63"/>
     <use x="581.396484" xlink:href="#DejaVuSans-65"/>
    </g>
   </g>
   <g id="legend_1">
    <g id="patch_7">
     <path d="M 51.425 173.667688 
L 230.8625 173.667688 
Q 232.8625 173.667688 232.8625 171.667688 
L 232.8625 43.288 
Q 232.8625 41.288 230.8625 41.288 
L 51.425 41.288 
Q 49.425 41.288 49.425 43.288 
L 49.425 171.667688 
Q 49.425 173.667688 51.425 173.667688 
z
" style="fill:#ffffff;opacity:0.8;stroke:#cccccc;stroke-linejoin:miter;"/>
    </g>
    <g id="line2d_27">
     <path d="M 53.425 56.025188 
L 73.425 56.025188 
" style="fill:none;stroke:#9e0142;stroke-linecap:square;stroke-width:2;"/>
    </g>
    <g id="line2d_28"/>
    <g id="text_20">
     <!-- 250 -->
     <g transform="translate(81.425 52.886438)scale(0.1 -0.1)">
      <use xlink:href="#DejaVuSans-32"/>
      <use x="63.623047" xlink:href="#DejaVuSans-35"/>
      <use x="127.246094" xlink:href="#DejaVuSans-30"/>
     </g>
     <!-- S=0.0763 -->
     <defs>
      <path d="M 10.59375 45.40625 
L 73.1875 45.40625 
L 73.1875 37.203125 
L 10.59375 37.203125 
z
M 10.59375 25.484375 
L 73.1875 25.484375 
L 73.1875 17.1875 
L 10.59375 17.1875 
z
" id="DejaVuSans-3d"/>
      <path d="M 10.6875 12.40625 
L 21 12.40625 
L 21 0 
L 10.6875 0 
z
" id="DejaVuSans-2e"/>
     </defs>
     <g transform="translate(81.425 64.08425)scale(0.1 -0.1)">
      <use xlink:href="#DejaVuSans-53"/>
      <use x="63.476562" xlink:href="#DejaVuSans-3d"/>
      <use x="147.265625" xlink:href="#DejaVuSans-30"/>
      <use x="210.888672" xlink:href="#DejaVuSans-2e"/>
      <use x="242.675781" xlink:href="#DejaVuSans-30"/>
      <use x="306.298828" xlink:href="#DejaVuSans-37"/>
      <use x="369.921875" xlink:href="#DejaVuSans-36"/>
      <use x="433.544922" xlink:href="#DejaVuSans-33"/>
     </g>
    </g>
    <g id="line2d_29">
     <path d="M 53.425 81.901125 
L 73.425 81.901125 
" style="fill:none;stroke:#d8434e;stroke-linecap:square;stroke-width:2;"/>
    </g>
    <g id="line2d_30"/>
    <g id="text_21">
     <!-- 1000 -->
     <g transform="translate(81.425 78.762375)scale(0.1 -0.1)">
      <use xlink:href="#DejaVuSans-31"/>
      <use x="63.623047" xlink:href="#DejaVuSans-30"/>
      <use x="127.246094" xlink:href="#DejaVuSans-30"/>
      <use x="190.869141" xlink:href="#DejaVuSans-30"/>
     </g>
     <!-- S=0.051 -->
     <g transform="translate(81.425 89.960188)scale(0.1 -0.1)">
      <use xlink:href="#DejaVuSans-53"/>
      <use x="63.476562" xlink:href="#DejaVuSans-3d"/>
      <use x="147.265625" xlink:href="#DejaVuSans-30"/>
      <use x="210.888672" xlink:href="#DejaVuSans-2e"/>
      <use x="242.675781" xlink:href="#DejaVuSans-30"/>
      <use x="306.298828" xlink:href="#DejaVuSans-35"/>
      <use x="369.921875" xlink:href="#DejaVuSans-31"/>
     </g>
    </g>
    <g id="line2d_31">
     <path d="M 53.425 107.777062 
L 73.425 107.777062 
" style="fill:none;stroke:#f67a49;stroke-linecap:square;stroke-width:2;"/>
    </g>
    <g id="line2d_32"/>
    <g id="text_22">
     <!-- 4000 -->
     <g transform="translate(81.425 104.638313)scale(0.1 -0.1)">
      <use xlink:href="#DejaVuSans-34"/>
      <use x="63.623047" xlink:href="#DejaVuSans-30"/>
      <use x="127.246094" xlink:href="#DejaVuSans-30"/>
      <use x="190.869141" xlink:href="#DejaVuSans-30"/>
     </g>
     <!-- S=0.2359 -->
     <g transform="translate(81.425 115.836125)scale(0.1 -0.1)">
      <use xlink:href="#DejaVuSans-53"/>
      <use x="63.476562" xlink:href="#DejaVuSans-3d"/>
      <use x="147.265625" xlink:href="#DejaVuSans-30"/>
      <use x="210.888672" xlink:href="#DejaVuSans-2e"/>
      <use x="242.675781" xlink:href="#DejaVuSans-32"/>
      <use x="306.298828" xlink:href="#DejaVuSans-33"/>
      <use x="369.921875" xlink:href="#DejaVuSans-35"/>
      <use x="433.544922" xlink:href="#DejaVuSans-39"/>
     </g>
    </g>
    <g id="line2d_33">
     <path d="M 53.425 133.653 
L 73.425 133.653 
" style="fill:none;stroke:#fdbf6f;stroke-linecap:square;stroke-width:2;"/>
    </g>
    <g id="line2d_34"/>
    <g id="text_23">
     <!-- 16000 -->
     <g transform="translate(81.425 130.51425)scale(0.1 -0.1)">
      <use xlink:href="#DejaVuSans-31"/>
      <use x="63.623047" xlink:href="#DejaVuSans-36"/>
      <use x="127.246094" xlink:href="#DejaVuSans-30"/>
      <use x="190.869141" xlink:href="#DejaVuSans-30"/>
      <use x="254.492188" xlink:href="#DejaVuSans-30"/>
     </g>
     <!-- S=0.5164 -->
     <g transform="translate(81.425 141.712063)scale(0.1 -0.1)">
      <use xlink:href="#DejaVuSans-53"/>
      <use x="63.476562" xlink:href="#DejaVuSans-3d"/>
      <use x="147.265625" xlink:href="#DejaVuSans-30"/>
      <use x="210.888672" xlink:href="#DejaVuSans-2e"/>
      <use x="242.675781" xlink:href="#DejaVuSans-35"/>
      <use x="306.298828" xlink:href="#DejaVuSans-31"/>
      <use x="369.921875" xlink:href="#DejaVuSans-36"/>
      <use x="433.544922" xlink:href="#DejaVuSans-34"/>
     </g>
    </g>
    <g id="line2d_35">
     <path d="M 53.425 159.528938 
L 73.425 159.528938 
" style="fill:none;stroke:#feeda1;stroke-linecap:square;stroke-width:2;"/>
    </g>
    <g id="line2d_36"/>
    <g id="text_24">
     <!-- 32000 -->
     <g transform="translate(81.425 156.390188)scale(0.1 -0.1)">
      <use xlink:href="#DejaVuSans-33"/>
      <use x="63.623047" xlink:href="#DejaVuSans-32"/>
      <use x="127.246094" xlink:href="#DejaVuSans-30"/>
      <use x="190.869141" xlink:href="#DejaVuSans-30"/>
      <use x="254.492188" xlink:href="#DejaVuSans-30"/>
     </g>
     <!-- S=0.933 -->
     <g transform="translate(81.425 167.588)scale(0.1 -0.1)">
      <use xlink:href="#DejaVuSans-53"/>
      <use x="63.476562" xlink:href="#DejaVuSans-3d"/>
      <use x="147.265625" xlink:href="#DejaVuSans-30"/>
      <use x="210.888672" xlink:href="#DejaVuSans-2e"/>
      <use x="242.675781" xlink:href="#DejaVuSans-39"/>
      <use x="306.298828" xlink:href="#DejaVuSans-33"/>
      <use x="369.921875" xlink:href="#DejaVuSans-33"/>
     </g>
    </g>
    <g id="line2d_37">
     <path d="M 151.14375 56.025188 
L 171.14375 56.025188 
" style="fill:none;stroke:#f1f9a9;stroke-linecap:square;stroke-width:2;"/>
    </g>
    <g id="line2d_38"/>
    <g id="text_25">
     <!-- 64000 -->
     <g transform="translate(179.14375 52.886438)scale(0.1 -0.1)">
      <use xlink:href="#DejaVuSans-36"/>
      <use x="63.623047" xlink:href="#DejaVuSans-34"/>
      <use x="127.246094" xlink:href="#DejaVuSans-30"/>
      <use x="190.869141" xlink:href="#DejaVuSans-30"/>
      <use x="254.492188" xlink:href="#DejaVuSans-30"/>
     </g>
     <!-- S=0.9437 -->
     <g transform="translate(179.14375 64.08425)scale(0.1 -0.1)">
      <use xlink:href="#DejaVuSans-53"/>
      <use x="63.476562" xlink:href="#DejaVuSans-3d"/>
      <use x="147.265625" xlink:href="#DejaVuSans-30"/>
      <use x="210.888672" xlink:href="#DejaVuSans-2e"/>
      <use x="242.675781" xlink:href="#DejaVuSans-39"/>
      <use x="306.298828" xlink:href="#DejaVuSans-34"/>
      <use x="369.921875" xlink:href="#DejaVuSans-33"/>
      <use x="433.544922" xlink:href="#DejaVuSans-37"/>
     </g>
    </g>
    <g id="line2d_39">
     <path d="M 151.14375 81.901125 
L 171.14375 81.901125 
" style="fill:none;stroke:#bfe5a0;stroke-linecap:square;stroke-width:2;"/>
    </g>
    <g id="line2d_40"/>
    <g id="text_26">
     <!-- 125000 -->
     <g transform="translate(179.14375 78.762375)scale(0.1 -0.1)">
      <use xlink:href="#DejaVuSans-31"/>
      <use x="63.623047" xlink:href="#DejaVuSans-32"/>
      <use x="127.246094" xlink:href="#DejaVuSans-35"/>
      <use x="190.869141" xlink:href="#DejaVuSans-30"/>
      <use x="254.492188" xlink:href="#DejaVuSans-30"/>
      <use x="318.115234" xlink:href="#DejaVuSans-30"/>
     </g>
     <!-- S=0.9405 -->
     <g transform="translate(179.14375 89.960188)scale(0.1 -0.1)">
      <use xlink:href="#DejaVuSans-53"/>
      <use x="63.476562" xlink:href="#DejaVuSans-3d"/>
      <use x="147.265625" xlink:href="#DejaVuSans-30"/>
      <use x="210.888672" xlink:href="#DejaVuSans-2e"/>
      <use x="242.675781" xlink:href="#DejaVuSans-39"/>
      <use x="306.298828" xlink:href="#DejaVuSans-34"/>
      <use x="369.921875" xlink:href="#DejaVuSans-30"/>
      <use x="433.544922" xlink:href="#DejaVuSans-35"/>
     </g>
    </g>
    <g id="line2d_41">
     <path d="M 151.14375 107.777062 
L 171.14375 107.777062 
" style="fill:none;stroke:#74c7a5;stroke-linecap:square;stroke-width:2;"/>
    </g>
    <g id="line2d_42"/>
    <g id="text_27">
     <!-- 250000 -->
     <g transform="translate(179.14375 104.638313)scale(0.1 -0.1)">
      <use xlink:href="#DejaVuSans-32"/>
      <use x="63.623047" xlink:href="#DejaVuSans-35"/>
      <use x="127.246094" xlink:href="#DejaVuSans-30"/>
      <use x="190.869141" xlink:href="#DejaVuSans-30"/>
      <use x="254.492188" xlink:href="#DejaVuSans-30"/>
      <use x="318.115234" xlink:href="#DejaVuSans-30"/>
     </g>
     <!-- S=0.9595 -->
     <g transform="translate(179.14375 115.836125)scale(0.1 -0.1)">
      <use xlink:href="#DejaVuSans-53"/>
      <use x="63.476562" xlink:href="#DejaVuSans-3d"/>
      <use x="147.265625" xlink:href="#DejaVuSans-30"/>
      <use x="210.888672" xlink:href="#DejaVuSans-2e"/>
      <use x="242.675781" xlink:href="#DejaVuSans-39"/>
      <use x="306.298828" xlink:href="#DejaVuSans-35"/>
      <use x="369.921875" xlink:href="#DejaVuSans-39"/>
      <use x="433.544922" xlink:href="#DejaVuSans-35"/>
     </g>
    </g>
    <g id="line2d_43">
     <path d="M 151.14375 133.653 
L 171.14375 133.653 
" style="fill:none;stroke:#378ebb;stroke-linecap:square;stroke-width:2;"/>
    </g>
    <g id="line2d_44"/>
    <g id="text_28">
     <!-- 500000 -->
     <g transform="translate(179.14375 130.51425)scale(0.1 -0.1)">
      <use xlink:href="#DejaVuSans-35"/>
      <use x="63.623047" xlink:href="#DejaVuSans-30"/>
      <use x="127.246094" xlink:href="#DejaVuSans-30"/>
      <use x="190.869141" xlink:href="#DejaVuSans-30"/>
      <use x="254.492188" xlink:href="#DejaVuSans-30"/>
      <use x="318.115234" xlink:href="#DejaVuSans-30"/>
     </g>
     <!-- S=0.9658 -->
     <g transform="translate(179.14375 141.712063)scale(0.1 -0.1)">
      <use xlink:href="#DejaVuSans-53"/>
      <use x="63.476562" xlink:href="#DejaVuSans-3d"/>
      <use x="147.265625" xlink:href="#DejaVuSans-30"/>
      <use x="210.888672" xlink:href="#DejaVuSans-2e"/>
      <use x="242.675781" xlink:href="#DejaVuSans-39"/>
      <use x="306.298828" xlink:href="#DejaVuSans-36"/>
      <use x="369.921875" xlink:href="#DejaVuSans-35"/>
      <use x="433.544922" xlink:href="#DejaVuSans-38"/>
     </g>
    </g>
    <g id="line2d_45">
     <path d="M 151.14375 159.528938 
L 171.14375 159.528938 
" style="fill:none;stroke:#5e4fa2;stroke-linecap:square;stroke-width:2;"/>
    </g>
    <g id="line2d_46"/>
    <g id="text_29">
     <!-- 1000000 -->
     <g transform="translate(179.14375 156.390188)scale(0.1 -0.1)">
      <use xlink:href="#DejaVuSans-31"/>
      <use x="63.623047" xlink:href="#DejaVuSans-30"/>
      <use x="127.246094" xlink:href="#DejaVuSans-30"/>
      <use x="190.869141" xlink:href="#DejaVuSans-30"/>
      <use x="254.492188" xlink:href="#DejaVuSans-30"/>
      <use x="318.115234" xlink:href="#DejaVuSans-30"/>
      <use x="381.738281" xlink:href="#DejaVuSans-30"/>
     </g>
     <!-- S=0.9819 -->
     <g transform="translate(179.14375 167.588)scale(0.1 -0.1)">
      <use xlink:href="#DejaVuSans-53"/>
      <use x="63.476562" xlink:href="#DejaVuSans-3d"/>
      <use x="147.265625" xlink:href="#DejaVuSans-30"/>
      <use x="210.888672" xlink:href="#DejaVuSans-2e"/>
      <use x="242.675781" xlink:href="#DejaVuSans-39"/>
      <use x="306.298828" xlink:href="#DejaVuSans-38"/>
      <use x="369.921875" xlink:href="#DejaVuSans-31"/>
      <use x="433.544922" xlink:href="#DejaVuSans-39"/>
     </g>
    </g>
   </g>
  </g>
  <g id="axes_2">
   <g id="patch_8">
    <path d="M 292.85 217.4 
L 504.1 217.4 
L 504.1 36.288 
L 292.85 36.288 
z
" style="fill:#ffffff;"/>
   </g>
   <g id="matplotlib.axis_3">
    <g id="xtick_11">
     <g id="line2d_47">
      <g>
       <use style="stroke:#000000;stroke-width:0.8;" x="292.85" xlink:href="#m917fcbcc0e" y="217.4"/>
      </g>
     </g>
     <g id="text_30">
      <!-- 0 -->
      <g transform="translate(289.66875 231.998437)scale(0.1 -0.1)">
       <use xlink:href="#DejaVuSans-30"/>
      </g>
     </g>
    </g>
    <g id="xtick_12">
     <g id="line2d_48">
      <g>
       <use style="stroke:#000000;stroke-width:0.8;" x="313.975" xlink:href="#m917fcbcc0e" y="217.4"/>
      </g>
     </g>
     <g id="text_31">
      <!-- 1 -->
      <g transform="translate(310.79375 231.998437)scale(0.1 -0.1)">
       <use xlink:href="#DejaVuSans-31"/>
      </g>
     </g>
    </g>
    <g id="xtick_13">
     <g id="line2d_49">
      <g>
       <use style="stroke:#000000;stroke-width:0.8;" x="335.1" xlink:href="#m917fcbcc0e" y="217.4"/>
      </g>
     </g>
     <g id="text_32">
      <!-- 2 -->
      <g transform="translate(331.91875 231.998437)scale(0.1 -0.1)">
       <use xlink:href="#DejaVuSans-32"/>
      </g>
     </g>
    </g>
    <g id="xtick_14">
     <g id="line2d_50">
      <g>
       <use style="stroke:#000000;stroke-width:0.8;" x="356.225" xlink:href="#m917fcbcc0e" y="217.4"/>
      </g>
     </g>
     <g id="text_33">
      <!-- 3 -->
      <g transform="translate(353.04375 231.998437)scale(0.1 -0.1)">
       <use xlink:href="#DejaVuSans-33"/>
      </g>
     </g>
    </g>
    <g id="xtick_15">
     <g id="line2d_51">
      <g>
       <use style="stroke:#000000;stroke-width:0.8;" x="377.35" xlink:href="#m917fcbcc0e" y="217.4"/>
      </g>
     </g>
     <g id="text_34">
      <!-- 4 -->
      <g transform="translate(374.16875 231.998437)scale(0.1 -0.1)">
       <use xlink:href="#DejaVuSans-34"/>
      </g>
     </g>
    </g>
    <g id="xtick_16">
     <g id="line2d_52">
      <g>
       <use style="stroke:#000000;stroke-width:0.8;" x="398.475" xlink:href="#m917fcbcc0e" y="217.4"/>
      </g>
     </g>
     <g id="text_35">
      <!-- 5 -->
      <g transform="translate(395.29375 231.998437)scale(0.1 -0.1)">
       <use xlink:href="#DejaVuSans-35"/>
      </g>
     </g>
    </g>
    <g id="xtick_17">
     <g id="line2d_53">
      <g>
       <use style="stroke:#000000;stroke-width:0.8;" x="419.6" xlink:href="#m917fcbcc0e" y="217.4"/>
      </g>
     </g>
     <g id="text_36">
      <!-- 6 -->
      <g transform="translate(416.41875 231.998437)scale(0.1 -0.1)">
       <use xlink:href="#DejaVuSans-36"/>
      </g>
     </g>
    </g>
    <g id="xtick_18">
     <g id="line2d_54">
      <g>
       <use style="stroke:#000000;stroke-width:0.8;" x="440.725" xlink:href="#m917fcbcc0e" y="217.4"/>
      </g>
     </g>
     <g id="text_37">
      <!-- 7 -->
      <g transform="translate(437.54375 231.998437)scale(0.1 -0.1)">
       <use xlink:href="#DejaVuSans-37"/>
      </g>
     </g>
    </g>
    <g id="xtick_19">
     <g id="line2d_55">
      <g>
       <use style="stroke:#000000;stroke-width:0.8;" x="461.85" xlink:href="#m917fcbcc0e" y="217.4"/>
      </g>
     </g>
     <g id="text_38">
      <!-- 8 -->
      <g transform="translate(458.66875 231.998437)scale(0.1 -0.1)">
       <use xlink:href="#DejaVuSans-38"/>
      </g>
     </g>
    </g>
    <g id="xtick_20">
     <g id="line2d_56">
      <g>
       <use style="stroke:#000000;stroke-width:0.8;" x="482.975" xlink:href="#m917fcbcc0e" y="217.4"/>
      </g>
     </g>
     <g id="text_39">
      <!-- 9 -->
      <g transform="translate(479.79375 231.998437)scale(0.1 -0.1)">
       <use xlink:href="#DejaVuSans-39"/>
      </g>
     </g>
    </g>
    <g id="text_40">
     <!-- Stimulus Numerosity -->
     <g transform="translate(346.278125 245.676562)scale(0.1 -0.1)">
      <use xlink:href="#DejaVuSans-53"/>
      <use x="63.476562" xlink:href="#DejaVuSans-74"/>
      <use x="102.685547" xlink:href="#DejaVuSans-69"/>
      <use x="130.46875" xlink:href="#DejaVuSans-6d"/>
      <use x="227.880859" xlink:href="#DejaVuSans-75"/>
      <use x="291.259766" xlink:href="#DejaVuSans-6c"/>
      <use x="319.042969" xlink:href="#DejaVuSans-75"/>
      <use x="382.421875" xlink:href="#DejaVuSans-73"/>
      <use x="434.521484" xlink:href="#DejaVuSans-20"/>
      <use x="466.308594" xlink:href="#DejaVuSans-4e"/>
      <use x="541.113281" xlink:href="#DejaVuSans-75"/>
      <use x="604.492188" xlink:href="#DejaVuSans-6d"/>
      <use x="701.904297" xlink:href="#DejaVuSans-65"/>
      <use x="763.427734" xlink:href="#DejaVuSans-72"/>
      <use x="804.509766" xlink:href="#DejaVuSans-6f"/>
      <use x="865.691406" xlink:href="#DejaVuSans-73"/>
      <use x="917.791016" xlink:href="#DejaVuSans-69"/>
      <use x="945.574219" xlink:href="#DejaVuSans-74"/>
      <use x="984.783203" xlink:href="#DejaVuSans-79"/>
     </g>
    </g>
   </g>
   <g id="matplotlib.axis_4">
    <g id="ytick_7">
     <g id="line2d_57">
      <g>
       <use style="stroke:#000000;stroke-width:0.8;" x="292.85" xlink:href="#mcb46391b90" y="217.4"/>
      </g>
     </g>
    </g>
    <g id="ytick_8">
     <g id="line2d_58">
      <g>
       <use style="stroke:#000000;stroke-width:0.8;" x="292.85" xlink:href="#mcb46391b90" y="181.1776"/>
      </g>
     </g>
    </g>
    <g id="ytick_9">
     <g id="line2d_59">
      <g>
       <use style="stroke:#000000;stroke-width:0.8;" x="292.85" xlink:href="#mcb46391b90" y="144.9552"/>
      </g>
     </g>
    </g>
    <g id="ytick_10">
     <g id="line2d_60">
      <g>
       <use style="stroke:#000000;stroke-width:0.8;" x="292.85" xlink:href="#mcb46391b90" y="108.7328"/>
      </g>
     </g>
    </g>
    <g id="ytick_11">
     <g id="line2d_61">
      <g>
       <use style="stroke:#000000;stroke-width:0.8;" x="292.85" xlink:href="#mcb46391b90" y="72.5104"/>
      </g>
     </g>
    </g>
    <g id="ytick_12">
     <g id="line2d_62">
      <g>
       <use style="stroke:#000000;stroke-width:0.8;" x="292.85" xlink:href="#mcb46391b90" y="36.288"/>
      </g>
     </g>
    </g>
   </g>
   <g id="patch_9">
    <path d="M 292.85 217.4 
L 292.85 36.288 
" style="fill:none;stroke:#000000;stroke-linecap:square;stroke-linejoin:miter;stroke-width:0.8;"/>
   </g>
   <g id="patch_10">
    <path d="M 504.1 217.4 
L 504.1 36.288 
" style="fill:none;stroke:#000000;stroke-linecap:square;stroke-linejoin:miter;stroke-width:0.8;"/>
   </g>
   <g id="patch_11">
    <path d="M 292.85 217.4 
L 504.1 217.4 
" style="fill:none;stroke:#000000;stroke-linecap:square;stroke-linejoin:miter;stroke-width:0.8;"/>
   </g>
   <g id="patch_12">
    <path d="M 292.85 36.288 
L 504.1 36.288 
" style="fill:none;stroke:#000000;stroke-linecap:square;stroke-linejoin:miter;stroke-width:0.8;"/>
   </g>
   <g id="text_41">
    <!-- Coefficient of Variation -->
    <defs>
     <path d="M 37.109375 75.984375 
L 37.109375 68.5 
L 28.515625 68.5 
Q 23.6875 68.5 21.796875 66.546875 
Q 19.921875 64.59375 19.921875 59.515625 
L 19.921875 54.6875 
L 34.71875 54.6875 
L 34.71875 47.703125 
L 19.921875 47.703125 
L 19.921875 0 
L 10.890625 0 
L 10.890625 47.703125 
L 2.296875 47.703125 
L 2.296875 54.6875 
L 10.890625 54.6875 
L 10.890625 58.5 
Q 10.890625 67.625 15.140625 71.796875 
Q 19.390625 75.984375 28.609375 75.984375 
z
" id="DejaVuSans-66"/>
     <path d="M 28.609375 0 
L 0.78125 72.90625 
L 11.078125 72.90625 
L 34.1875 11.53125 
L 57.328125 72.90625 
L 67.578125 72.90625 
L 39.796875 0 
z
" id="DejaVuSans-56"/>
    </defs>
    <g transform="translate(329.543437 30.288)scale(0.12 -0.12)">
     <use xlink:href="#DejaVuSans-43"/>
     <use x="69.824219" xlink:href="#DejaVuSans-6f"/>
     <use x="131.005859" xlink:href="#DejaVuSans-65"/>
     <use x="192.529297" xlink:href="#DejaVuSans-66"/>
     <use x="227.734375" xlink:href="#DejaVuSans-66"/>
     <use x="262.939453" xlink:href="#DejaVuSans-69"/>
     <use x="290.722656" xlink:href="#DejaVuSans-63"/>
     <use x="345.703125" xlink:href="#DejaVuSans-69"/>
     <use x="373.486328" xlink:href="#DejaVuSans-65"/>
     <use x="435.009766" xlink:href="#DejaVuSans-6e"/>
     <use x="498.388672" xlink:href="#DejaVuSans-74"/>
     <use x="537.597656" xlink:href="#DejaVuSans-20"/>
     <use x="569.384766" xlink:href="#DejaVuSans-6f"/>
     <use x="630.566406" xlink:href="#DejaVuSans-66"/>
     <use x="665.771484" xlink:href="#DejaVuSans-20"/>
     <use x="697.558594" xlink:href="#DejaVuSans-56"/>
     <use x="765.857422" xlink:href="#DejaVuSans-61"/>
     <use x="827.136719" xlink:href="#DejaVuSans-72"/>
     <use x="868.25" xlink:href="#DejaVuSans-69"/>
     <use x="896.033203" xlink:href="#DejaVuSans-61"/>
     <use x="957.3125" xlink:href="#DejaVuSans-74"/>
     <use x="996.521484" xlink:href="#DejaVuSans-69"/>
     <use x="1024.304688" xlink:href="#DejaVuSans-6f"/>
     <use x="1085.486328" xlink:href="#DejaVuSans-6e"/>
    </g>
   </g>
  </g>
  <g id="axes_3">
   <g id="matplotlib.axis_5">
    <g id="ytick_13">
     <g id="line2d_63">
      <g>
       <use style="stroke:#000000;stroke-width:0.8;" x="292.85" xlink:href="#mcb46391b90" y="217.4"/>
      </g>
     </g>
     <g id="text_42">
      <!-- 0.0 -->
      <g transform="translate(269.946875 221.199219)scale(0.1 -0.1)">
       <use xlink:href="#DejaVuSans-30"/>
       <use x="63.623047" xlink:href="#DejaVuSans-2e"/>
       <use x="95.410156" xlink:href="#DejaVuSans-30"/>
      </g>
     </g>
    </g>
    <g id="ytick_14">
     <g id="line2d_64">
      <g>
       <use style="stroke:#000000;stroke-width:0.8;" x="292.85" xlink:href="#mcb46391b90" y="181.1776"/>
      </g>
     </g>
     <g id="text_43">
      <!-- 0.2 -->
      <g transform="translate(269.946875 184.976819)scale(0.1 -0.1)">
       <use xlink:href="#DejaVuSans-30"/>
       <use x="63.623047" xlink:href="#DejaVuSans-2e"/>
       <use x="95.410156" xlink:href="#DejaVuSans-32"/>
      </g>
     </g>
    </g>
    <g id="ytick_15">
     <g id="line2d_65">
      <g>
       <use style="stroke:#000000;stroke-width:0.8;" x="292.85" xlink:href="#mcb46391b90" y="144.9552"/>
      </g>
     </g>
     <g id="text_44">
      <!-- 0.4 -->
      <g transform="translate(269.946875 148.754419)scale(0.1 -0.1)">
       <use xlink:href="#DejaVuSans-30"/>
       <use x="63.623047" xlink:href="#DejaVuSans-2e"/>
       <use x="95.410156" xlink:href="#DejaVuSans-34"/>
      </g>
     </g>
    </g>
    <g id="ytick_16">
     <g id="line2d_66">
      <g>
       <use style="stroke:#000000;stroke-width:0.8;" x="292.85" xlink:href="#mcb46391b90" y="108.7328"/>
      </g>
     </g>
     <g id="text_45">
      <!-- 0.6 -->
      <g transform="translate(269.946875 112.532019)scale(0.1 -0.1)">
       <use xlink:href="#DejaVuSans-30"/>
       <use x="63.623047" xlink:href="#DejaVuSans-2e"/>
       <use x="95.410156" xlink:href="#DejaVuSans-36"/>
      </g>
     </g>
    </g>
    <g id="ytick_17">
     <g id="line2d_67">
      <g>
       <use style="stroke:#000000;stroke-width:0.8;" x="292.85" xlink:href="#mcb46391b90" y="72.5104"/>
      </g>
     </g>
     <g id="text_46">
      <!-- 0.8 -->
      <g transform="translate(269.946875 76.309619)scale(0.1 -0.1)">
       <use xlink:href="#DejaVuSans-30"/>
       <use x="63.623047" xlink:href="#DejaVuSans-2e"/>
       <use x="95.410156" xlink:href="#DejaVuSans-38"/>
      </g>
     </g>
    </g>
    <g id="ytick_18">
     <g id="line2d_68">
      <g>
       <use style="stroke:#000000;stroke-width:0.8;" x="292.85" xlink:href="#mcb46391b90" y="36.288"/>
      </g>
     </g>
     <g id="text_47">
      <!-- 1.0 -->
      <g transform="translate(269.946875 40.087219)scale(0.1 -0.1)">
       <use xlink:href="#DejaVuSans-31"/>
       <use x="63.623047" xlink:href="#DejaVuSans-2e"/>
       <use x="95.410156" xlink:href="#DejaVuSans-30"/>
      </g>
     </g>
    </g>
   </g>
   <g id="line2d_69">
    <path clip-path="url(#pab02f7fcbd)" d="M 313.975 65.623217 
L 335.1 35.518095 
L 356.225 18.263872 
L 377.35 18.149405 
L 398.475 8.3114 
L 419.6 0.395724 
L 440.725 3.058486 
L 461.85 4.924566 
L 474.898471 -1 
" style="fill:none;stroke:#9e0142;stroke-linecap:square;stroke-width:2;"/>
   </g>
   <g id="line2d_70">
    <path clip-path="url(#pab02f7fcbd)" d="M 313.975 170.052099 
L 335.1 148.281832 
L 356.225 138.146057 
L 377.35 112.396792 
L 398.475 120.733127 
L 419.6 115.677927 
L 440.725 98.122412 
L 461.85 92.478601 
L 482.975 102.829981 
" style="fill:none;stroke:#d8434e;stroke-linecap:square;stroke-width:2;"/>
   </g>
   <g id="line2d_71">
    <path clip-path="url(#pab02f7fcbd)" d="M 313.975 135.890314 
L 335.1 81.725423 
L 356.225 57.620212 
L 377.35 49.175075 
L 398.475 38.337191 
L 419.6 33.183777 
L 440.725 39.669864 
L 461.85 41.691918 
L 482.975 42.580603 
" style="fill:none;stroke:#f67a49;stroke-linecap:square;stroke-width:2;"/>
   </g>
   <g id="line2d_72">
    <path clip-path="url(#pab02f7fcbd)" d="M 313.975 187.598419 
L 335.1 125.938307 
L 356.225 101.365553 
L 377.35 85.863515 
L 398.475 77.431327 
L 419.6 74.552893 
L 440.725 75.228282 
L 461.85 79.386976 
L 482.975 83.125265 
" style="fill:none;stroke:#fdbf6f;stroke-linecap:square;stroke-width:2;"/>
   </g>
   <g id="line2d_73">
    <path clip-path="url(#pab02f7fcbd)" d="M 313.975 205.266069 
L 335.1 154.280012 
L 356.225 150.930534 
L 377.35 156.366076 
L 398.475 163.485361 
L 419.6 165.57994 
L 440.725 165.348052 
L 461.85 165.07697 
L 482.975 167.300039 
" style="fill:none;stroke:#feeda1;stroke-linecap:square;stroke-width:2;"/>
   </g>
   <g id="line2d_74">
    <path clip-path="url(#pab02f7fcbd)" d="M 313.975 211.274074 
L 335.1 177.01732 
L 356.225 165.125643 
L 377.35 164.83599 
L 398.475 168.01215 
L 419.6 169.679948 
L 440.725 170.339341 
L 461.85 174.306629 
L 482.975 177.012559 
" style="fill:none;stroke:#f1f9a9;stroke-linecap:square;stroke-width:2;"/>
   </g>
   <g id="line2d_75">
    <path clip-path="url(#pab02f7fcbd)" d="M 313.975 209.481606 
L 335.1 186.182064 
L 356.225 173.877904 
L 377.35 175.609334 
L 398.475 174.111551 
L 419.6 175.539257 
L 440.725 177.073387 
L 461.85 178.16694 
L 482.975 179.404941 
" style="fill:none;stroke:#bfe5a0;stroke-linecap:square;stroke-width:2;"/>
   </g>
   <g id="line2d_76">
    <path clip-path="url(#pab02f7fcbd)" d="M 313.975 212.576999 
L 335.1 198.02735 
L 356.225 183.894527 
L 377.35 181.208057 
L 398.475 183.063715 
L 419.6 183.508844 
L 440.725 182.179225 
L 461.85 183.883625 
L 482.975 185.393443 
" style="fill:none;stroke:#74c7a5;stroke-linecap:square;stroke-width:2;"/>
   </g>
   <g id="line2d_77">
    <path clip-path="url(#pab02f7fcbd)" d="M 313.975 217.4 
L 335.1 202.294647 
L 356.225 191.05422 
L 377.35 188.646692 
L 398.475 186.712145 
L 419.6 186.076177 
L 440.725 185.668866 
L 461.85 185.386173 
L 482.975 186.885758 
" style="fill:none;stroke:#378ebb;stroke-linecap:square;stroke-width:2;"/>
   </g>
   <g id="line2d_78">
    <path clip-path="url(#pab02f7fcbd)" d="M 313.975 217.4 
L 335.1 203.937197 
L 356.225 194.313377 
L 377.35 191.480454 
L 398.475 188.392743 
L 419.6 188.97657 
L 440.725 187.55639 
L 461.85 187.335584 
L 482.975 188.779106 
" style="fill:none;stroke:#5e4fa2;stroke-linecap:square;stroke-width:2;"/>
   </g>
   <g id="patch_13">
    <path d="M 292.85 217.4 
L 292.85 36.288 
" style="fill:none;stroke:#000000;stroke-linecap:square;stroke-linejoin:miter;stroke-width:0.8;"/>
   </g>
   <g id="patch_14">
    <path d="M 504.1 217.4 
L 504.1 36.288 
" style="fill:none;stroke:#000000;stroke-linecap:square;stroke-linejoin:miter;stroke-width:0.8;"/>
   </g>
   <g id="patch_15">
    <path d="M 292.85 217.4 
L 504.1 217.4 
" style="fill:none;stroke:#000000;stroke-linecap:square;stroke-linejoin:miter;stroke-width:0.8;"/>
   </g>
   <g id="patch_16">
    <path d="M 292.85 36.288 
L 504.1 36.288 
" style="fill:none;stroke:#000000;stroke-linecap:square;stroke-linejoin:miter;stroke-width:0.8;"/>
   </g>
   <g id="legend_2">
    <g id="patch_17">
     <path d="M 299.85 173.667688 
L 472.490625 173.667688 
Q 474.490625 173.667688 474.490625 171.667688 
L 474.490625 43.288 
Q 474.490625 41.288 472.490625 41.288 
L 299.85 41.288 
Q 297.85 41.288 297.85 43.288 
L 297.85 171.667688 
Q 297.85 173.667688 299.85 173.667688 
z
" style="fill:#ffffff;opacity:0.8;stroke:#cccccc;stroke-linejoin:miter;"/>
    </g>
    <g id="line2d_79">
     <path d="M 301.85 56.025188 
L 321.85 56.025188 
" style="fill:none;stroke:#9e0142;stroke-linecap:square;stroke-width:2;"/>
    </g>
    <g id="line2d_80"/>
    <g id="text_48">
     <!-- 250 -->
     <g transform="translate(329.85 52.886438)scale(0.1 -0.1)">
      <use xlink:href="#DejaVuSans-32"/>
      <use x="63.623047" xlink:href="#DejaVuSans-35"/>
      <use x="127.246094" xlink:href="#DejaVuSans-30"/>
     </g>
     <!-- I=1.1043 -->
     <defs>
      <path d="M 9.8125 72.90625 
L 19.671875 72.90625 
L 19.671875 0 
L 9.8125 0 
z
" id="DejaVuSans-49"/>
     </defs>
     <g transform="translate(329.85 64.08425)scale(0.1 -0.1)">
      <use xlink:href="#DejaVuSans-49"/>
      <use x="29.492188" xlink:href="#DejaVuSans-3d"/>
      <use x="113.28125" xlink:href="#DejaVuSans-31"/>
      <use x="176.904297" xlink:href="#DejaVuSans-2e"/>
      <use x="208.691406" xlink:href="#DejaVuSans-31"/>
      <use x="272.314453" xlink:href="#DejaVuSans-30"/>
      <use x="335.9375" xlink:href="#DejaVuSans-34"/>
      <use x="399.560547" xlink:href="#DejaVuSans-33"/>
     </g>
    </g>
    <g id="line2d_81">
     <path d="M 301.85 81.901125 
L 321.85 81.901125 
" style="fill:none;stroke:#d8434e;stroke-linecap:square;stroke-width:2;"/>
    </g>
    <g id="line2d_82"/>
    <g id="text_49">
     <!-- 1000 -->
     <g transform="translate(329.85 78.762375)scale(0.1 -0.1)">
      <use xlink:href="#DejaVuSans-31"/>
      <use x="63.623047" xlink:href="#DejaVuSans-30"/>
      <use x="127.246094" xlink:href="#DejaVuSans-30"/>
      <use x="190.869141" xlink:href="#DejaVuSans-30"/>
     </g>
     <!-- I=0.3872 -->
     <g transform="translate(329.85 89.960188)scale(0.1 -0.1)">
      <use xlink:href="#DejaVuSans-49"/>
      <use x="29.492188" xlink:href="#DejaVuSans-3d"/>
      <use x="113.28125" xlink:href="#DejaVuSans-30"/>
      <use x="176.904297" xlink:href="#DejaVuSans-2e"/>
      <use x="208.691406" xlink:href="#DejaVuSans-33"/>
      <use x="272.314453" xlink:href="#DejaVuSans-38"/>
      <use x="335.9375" xlink:href="#DejaVuSans-37"/>
      <use x="399.560547" xlink:href="#DejaVuSans-32"/>
     </g>
    </g>
    <g id="line2d_83">
     <path d="M 301.85 107.777062 
L 321.85 107.777062 
" style="fill:none;stroke:#f67a49;stroke-linecap:square;stroke-width:2;"/>
    </g>
    <g id="line2d_84"/>
    <g id="text_50">
     <!-- 4000 -->
     <g transform="translate(329.85 104.638313)scale(0.1 -0.1)">
      <use xlink:href="#DejaVuSans-34"/>
      <use x="63.623047" xlink:href="#DejaVuSans-30"/>
      <use x="127.246094" xlink:href="#DejaVuSans-30"/>
      <use x="190.869141" xlink:href="#DejaVuSans-30"/>
     </g>
     <!-- I=1.0502 -->
     <g transform="translate(329.85 115.836125)scale(0.1 -0.1)">
      <use xlink:href="#DejaVuSans-49"/>
      <use x="29.492188" xlink:href="#DejaVuSans-3d"/>
      <use x="113.28125" xlink:href="#DejaVuSans-31"/>
      <use x="176.904297" xlink:href="#DejaVuSans-2e"/>
      <use x="208.691406" xlink:href="#DejaVuSans-30"/>
      <use x="272.314453" xlink:href="#DejaVuSans-35"/>
      <use x="335.9375" xlink:href="#DejaVuSans-30"/>
      <use x="399.560547" xlink:href="#DejaVuSans-32"/>
     </g>
    </g>
    <g id="line2d_85">
     <path d="M 301.85 133.653 
L 321.85 133.653 
" style="fill:none;stroke:#fdbf6f;stroke-linecap:square;stroke-width:2;"/>
    </g>
    <g id="line2d_86"/>
    <g id="text_51">
     <!-- 16000 -->
     <g transform="translate(329.85 130.51425)scale(0.1 -0.1)">
      <use xlink:href="#DejaVuSans-31"/>
      <use x="63.623047" xlink:href="#DejaVuSans-36"/>
      <use x="127.246094" xlink:href="#DejaVuSans-30"/>
      <use x="190.869141" xlink:href="#DejaVuSans-30"/>
      <use x="254.492188" xlink:href="#DejaVuSans-30"/>
     </g>
     <!-- I=0.8327 -->
     <g transform="translate(329.85 141.712063)scale(0.1 -0.1)">
      <use xlink:href="#DejaVuSans-49"/>
      <use x="29.492188" xlink:href="#DejaVuSans-3d"/>
      <use x="113.28125" xlink:href="#DejaVuSans-30"/>
      <use x="176.904297" xlink:href="#DejaVuSans-2e"/>
      <use x="208.691406" xlink:href="#DejaVuSans-38"/>
      <use x="272.314453" xlink:href="#DejaVuSans-33"/>
      <use x="335.9375" xlink:href="#DejaVuSans-32"/>
      <use x="399.560547" xlink:href="#DejaVuSans-37"/>
     </g>
    </g>
    <g id="line2d_87">
     <path d="M 301.85 159.528938 
L 321.85 159.528938 
" style="fill:none;stroke:#feeda1;stroke-linecap:square;stroke-width:2;"/>
    </g>
    <g id="line2d_88"/>
    <g id="text_52">
     <!-- 32000 -->
     <g transform="translate(329.85 156.390188)scale(0.1 -0.1)">
      <use xlink:href="#DejaVuSans-33"/>
      <use x="63.623047" xlink:href="#DejaVuSans-32"/>
      <use x="127.246094" xlink:href="#DejaVuSans-30"/>
      <use x="190.869141" xlink:href="#DejaVuSans-30"/>
      <use x="254.492188" xlink:href="#DejaVuSans-30"/>
     </g>
     <!-- I=0.3149 -->
     <g transform="translate(329.85 167.588)scale(0.1 -0.1)">
      <use xlink:href="#DejaVuSans-49"/>
      <use x="29.492188" xlink:href="#DejaVuSans-3d"/>
      <use x="113.28125" xlink:href="#DejaVuSans-30"/>
      <use x="176.904297" xlink:href="#DejaVuSans-2e"/>
      <use x="208.691406" xlink:href="#DejaVuSans-33"/>
      <use x="272.314453" xlink:href="#DejaVuSans-31"/>
      <use x="335.9375" xlink:href="#DejaVuSans-34"/>
      <use x="399.560547" xlink:href="#DejaVuSans-39"/>
     </g>
    </g>
    <g id="line2d_89">
     <path d="M 396.170312 56.025188 
L 416.170312 56.025188 
" style="fill:none;stroke:#f1f9a9;stroke-linecap:square;stroke-width:2;"/>
    </g>
    <g id="line2d_90"/>
    <g id="text_53">
     <!-- 64000 -->
     <g transform="translate(424.170312 52.886438)scale(0.1 -0.1)">
      <use xlink:href="#DejaVuSans-36"/>
      <use x="63.623047" xlink:href="#DejaVuSans-34"/>
      <use x="127.246094" xlink:href="#DejaVuSans-30"/>
      <use x="190.869141" xlink:href="#DejaVuSans-30"/>
      <use x="254.492188" xlink:href="#DejaVuSans-30"/>
     </g>
     <!-- I=0.3388 -->
     <g transform="translate(424.170312 64.08425)scale(0.1 -0.1)">
      <use xlink:href="#DejaVuSans-49"/>
      <use x="29.492188" xlink:href="#DejaVuSans-3d"/>
      <use x="113.28125" xlink:href="#DejaVuSans-30"/>
      <use x="176.904297" xlink:href="#DejaVuSans-2e"/>
      <use x="208.691406" xlink:href="#DejaVuSans-33"/>
      <use x="272.314453" xlink:href="#DejaVuSans-33"/>
      <use x="335.9375" xlink:href="#DejaVuSans-38"/>
      <use x="399.560547" xlink:href="#DejaVuSans-38"/>
     </g>
    </g>
    <g id="line2d_91">
     <path d="M 396.170312 81.901125 
L 416.170312 81.901125 
" style="fill:none;stroke:#bfe5a0;stroke-linecap:square;stroke-width:2;"/>
    </g>
    <g id="line2d_92"/>
    <g id="text_54">
     <!-- 125000 -->
     <g transform="translate(424.170312 78.762375)scale(0.1 -0.1)">
      <use xlink:href="#DejaVuSans-31"/>
      <use x="63.623047" xlink:href="#DejaVuSans-32"/>
      <use x="127.246094" xlink:href="#DejaVuSans-35"/>
      <use x="190.869141" xlink:href="#DejaVuSans-30"/>
      <use x="254.492188" xlink:href="#DejaVuSans-30"/>
      <use x="318.115234" xlink:href="#DejaVuSans-30"/>
     </g>
     <!-- I=0.2749 -->
     <g transform="translate(424.170312 89.960188)scale(0.1 -0.1)">
      <use xlink:href="#DejaVuSans-49"/>
      <use x="29.492188" xlink:href="#DejaVuSans-3d"/>
      <use x="113.28125" xlink:href="#DejaVuSans-30"/>
      <use x="176.904297" xlink:href="#DejaVuSans-2e"/>
      <use x="208.691406" xlink:href="#DejaVuSans-32"/>
      <use x="272.314453" xlink:href="#DejaVuSans-37"/>
      <use x="335.9375" xlink:href="#DejaVuSans-34"/>
      <use x="399.560547" xlink:href="#DejaVuSans-39"/>
     </g>
    </g>
    <g id="line2d_93">
     <path d="M 396.170312 107.777062 
L 416.170312 107.777062 
" style="fill:none;stroke:#74c7a5;stroke-linecap:square;stroke-width:2;"/>
    </g>
    <g id="line2d_94"/>
    <g id="text_55">
     <!-- 250000 -->
     <g transform="translate(424.170312 104.638313)scale(0.1 -0.1)">
      <use xlink:href="#DejaVuSans-32"/>
      <use x="63.623047" xlink:href="#DejaVuSans-35"/>
      <use x="127.246094" xlink:href="#DejaVuSans-30"/>
      <use x="190.869141" xlink:href="#DejaVuSans-30"/>
      <use x="254.492188" xlink:href="#DejaVuSans-30"/>
      <use x="318.115234" xlink:href="#DejaVuSans-30"/>
     </g>
     <!-- I=0.2061 -->
     <g transform="translate(424.170312 115.836125)scale(0.1 -0.1)">
      <use xlink:href="#DejaVuSans-49"/>
      <use x="29.492188" xlink:href="#DejaVuSans-3d"/>
      <use x="113.28125" xlink:href="#DejaVuSans-30"/>
      <use x="176.904297" xlink:href="#DejaVuSans-2e"/>
      <use x="208.691406" xlink:href="#DejaVuSans-32"/>
      <use x="272.314453" xlink:href="#DejaVuSans-30"/>
      <use x="335.9375" xlink:href="#DejaVuSans-36"/>
      <use x="399.560547" xlink:href="#DejaVuSans-31"/>
     </g>
    </g>
    <g id="line2d_95">
     <path d="M 396.170312 133.653 
L 416.170312 133.653 
" style="fill:none;stroke:#378ebb;stroke-linecap:square;stroke-width:2;"/>
    </g>
    <g id="line2d_96"/>
    <g id="text_56">
     <!-- 500000 -->
     <g transform="translate(424.170312 130.51425)scale(0.1 -0.1)">
      <use xlink:href="#DejaVuSans-35"/>
      <use x="63.623047" xlink:href="#DejaVuSans-30"/>
      <use x="127.246094" xlink:href="#DejaVuSans-30"/>
      <use x="190.869141" xlink:href="#DejaVuSans-30"/>
      <use x="254.492188" xlink:href="#DejaVuSans-30"/>
      <use x="318.115234" xlink:href="#DejaVuSans-30"/>
     </g>
     <!-- I=0.1712 -->
     <g transform="translate(424.170312 141.712063)scale(0.1 -0.1)">
      <use xlink:href="#DejaVuSans-49"/>
      <use x="29.492188" xlink:href="#DejaVuSans-3d"/>
      <use x="113.28125" xlink:href="#DejaVuSans-30"/>
      <use x="176.904297" xlink:href="#DejaVuSans-2e"/>
      <use x="208.691406" xlink:href="#DejaVuSans-31"/>
      <use x="272.314453" xlink:href="#DejaVuSans-37"/>
      <use x="335.9375" xlink:href="#DejaVuSans-31"/>
      <use x="399.560547" xlink:href="#DejaVuSans-32"/>
     </g>
    </g>
    <g id="line2d_97">
     <path d="M 396.170312 159.528938 
L 416.170312 159.528938 
" style="fill:none;stroke:#5e4fa2;stroke-linecap:square;stroke-width:2;"/>
    </g>
    <g id="line2d_98"/>
    <g id="text_57">
     <!-- 1000000 -->
     <g transform="translate(424.170312 156.390188)scale(0.1 -0.1)">
      <use xlink:href="#DejaVuSans-31"/>
      <use x="63.623047" xlink:href="#DejaVuSans-30"/>
      <use x="127.246094" xlink:href="#DejaVuSans-30"/>
      <use x="190.869141" xlink:href="#DejaVuSans-30"/>
      <use x="254.492188" xlink:href="#DejaVuSans-30"/>
      <use x="318.115234" xlink:href="#DejaVuSans-30"/>
      <use x="381.738281" xlink:href="#DejaVuSans-30"/>
     </g>
     <!-- I=0.1578 -->
     <g transform="translate(424.170312 167.588)scale(0.1 -0.1)">
      <use xlink:href="#DejaVuSans-49"/>
      <use x="29.492188" xlink:href="#DejaVuSans-3d"/>
      <use x="113.28125" xlink:href="#DejaVuSans-30"/>
      <use x="176.904297" xlink:href="#DejaVuSans-2e"/>
      <use x="208.691406" xlink:href="#DejaVuSans-31"/>
      <use x="272.314453" xlink:href="#DejaVuSans-35"/>
      <use x="335.9375" xlink:href="#DejaVuSans-37"/>
      <use x="399.560547" xlink:href="#DejaVuSans-38"/>
     </g>
    </g>
   </g>
  </g>
  <g id="text_58">
   <!-- Experiment 1 Results: DRAM Network -->
   <defs>
    <path d="M 54.890625 54.6875 
L 35.109375 28.078125 
L 55.90625 0 
L 45.3125 0 
L 29.390625 21.484375 
L 13.484375 0 
L 2.875 0 
L 24.125 28.609375 
L 4.6875 54.6875 
L 15.28125 54.6875 
L 29.78125 35.203125 
L 44.28125 54.6875 
z
" id="DejaVuSans-78"/>
    <path d="M 18.109375 8.203125 
L 18.109375 -20.796875 
L 9.078125 -20.796875 
L 9.078125 54.6875 
L 18.109375 54.6875 
L 18.109375 46.390625 
Q 20.953125 51.265625 25.265625 53.625 
Q 29.59375 56 35.59375 56 
Q 45.5625 56 51.78125 48.09375 
Q 58.015625 40.1875 58.015625 27.296875 
Q 58.015625 14.40625 51.78125 6.484375 
Q 45.5625 -1.421875 35.59375 -1.421875 
Q 29.59375 -1.421875 25.265625 0.953125 
Q 20.953125 3.328125 18.109375 8.203125 
z
M 48.6875 27.296875 
Q 48.6875 37.203125 44.609375 42.84375 
Q 40.53125 48.484375 33.40625 48.484375 
Q 26.265625 48.484375 22.1875 42.84375 
Q 18.109375 37.203125 18.109375 27.296875 
Q 18.109375 17.390625 22.1875 11.75 
Q 26.265625 6.109375 33.40625 6.109375 
Q 40.53125 6.109375 44.609375 11.75 
Q 48.6875 17.390625 48.6875 27.296875 
z
" id="DejaVuSans-70"/>
    <path d="M 44.390625 34.1875 
Q 47.5625 33.109375 50.5625 29.59375 
Q 53.5625 26.078125 56.59375 19.921875 
L 66.609375 0 
L 56 0 
L 46.6875 18.703125 
Q 43.0625 26.03125 39.671875 28.421875 
Q 36.28125 30.8125 30.421875 30.8125 
L 19.671875 30.8125 
L 19.671875 0 
L 9.8125 0 
L 9.8125 72.90625 
L 32.078125 72.90625 
Q 44.578125 72.90625 50.734375 67.671875 
Q 56.890625 62.453125 56.890625 51.90625 
Q 56.890625 45.015625 53.6875 40.46875 
Q 50.484375 35.9375 44.390625 34.1875 
z
M 19.671875 64.796875 
L 19.671875 38.921875 
L 32.078125 38.921875 
Q 39.203125 38.921875 42.84375 42.21875 
Q 46.484375 45.515625 46.484375 51.90625 
Q 46.484375 58.296875 42.84375 61.546875 
Q 39.203125 64.796875 32.078125 64.796875 
z
" id="DejaVuSans-52"/>
    <path d="M 11.71875 12.40625 
L 22.015625 12.40625 
L 22.015625 0 
L 11.71875 0 
z
M 11.71875 51.703125 
L 22.015625 51.703125 
L 22.015625 39.3125 
L 11.71875 39.3125 
z
" id="DejaVuSans-3a"/>
    <path d="M 19.671875 64.796875 
L 19.671875 8.109375 
L 31.59375 8.109375 
Q 46.6875 8.109375 53.6875 14.9375 
Q 60.6875 21.78125 60.6875 36.53125 
Q 60.6875 51.171875 53.6875 57.984375 
Q 46.6875 64.796875 31.59375 64.796875 
z
M 9.8125 72.90625 
L 30.078125 72.90625 
Q 51.265625 72.90625 61.171875 64.09375 
Q 71.09375 55.28125 71.09375 36.53125 
Q 71.09375 17.671875 61.125 8.828125 
Q 51.171875 0 30.078125 0 
L 9.8125 0 
z
" id="DejaVuSans-44"/>
    <path d="M 34.1875 63.1875 
L 20.796875 26.90625 
L 47.609375 26.90625 
z
M 28.609375 72.90625 
L 39.796875 72.90625 
L 67.578125 0 
L 57.328125 0 
L 50.6875 18.703125 
L 17.828125 18.703125 
L 11.1875 0 
L 0.78125 0 
z
" id="DejaVuSans-41"/>
    <path d="M 4.203125 54.6875 
L 13.1875 54.6875 
L 24.421875 12.015625 
L 35.59375 54.6875 
L 46.1875 54.6875 
L 57.421875 12.015625 
L 68.609375 54.6875 
L 77.59375 54.6875 
L 63.28125 0 
L 52.6875 0 
L 40.921875 44.828125 
L 29.109375 0 
L 18.5 0 
z
" id="DejaVuSans-77"/>
    <path d="M 9.078125 75.984375 
L 18.109375 75.984375 
L 18.109375 31.109375 
L 44.921875 54.6875 
L 56.390625 54.6875 
L 27.390625 29.109375 
L 57.625 0 
L 45.90625 0 
L 18.109375 26.703125 
L 18.109375 0 
L 9.078125 0 
z
" id="DejaVuSans-6b"/>
   </defs>
   <g transform="translate(136.585625 15.061969)scale(0.13 -0.13)">
    <use xlink:href="#DejaVuSans-45"/>
    <use x="63.183594" xlink:href="#DejaVuSans-78"/>
    <use x="122.363281" xlink:href="#DejaVuSans-70"/>
    <use x="185.839844" xlink:href="#DejaVuSans-65"/>
    <use x="247.363281" xlink:href="#DejaVuSans-72"/>
    <use x="288.476562" xlink:href="#DejaVuSans-69"/>
    <use x="316.259766" xlink:href="#DejaVuSans-6d"/>
    <use x="413.671875" xlink:href="#DejaVuSans-65"/>
    <use x="475.195312" xlink:href="#DejaVuSans-6e"/>
    <use x="538.574219" xlink:href="#DejaVuSans-74"/>
    <use x="577.783203" xlink:href="#DejaVuSans-20"/>
    <use x="609.570312" xlink:href="#DejaVuSans-31"/>
    <use x="673.193359" xlink:href="#DejaVuSans-20"/>
    <use x="704.980469" xlink:href="#DejaVuSans-52"/>
    <use x="774.400391" xlink:href="#DejaVuSans-65"/>
    <use x="835.923828" xlink:href="#DejaVuSans-73"/>
    <use x="888.023438" xlink:href="#DejaVuSans-75"/>
    <use x="951.402344" xlink:href="#DejaVuSans-6c"/>
    <use x="979.185547" xlink:href="#DejaVuSans-74"/>
    <use x="1018.394531" xlink:href="#DejaVuSans-73"/>
    <use x="1070.494141" xlink:href="#DejaVuSans-3a"/>
    <use x="1104.185547" xlink:href="#DejaVuSans-20"/>
    <use x="1135.972656" xlink:href="#DejaVuSans-44"/>
    <use x="1212.974609" xlink:href="#DejaVuSans-52"/>
    <use x="1282.394531" xlink:href="#DejaVuSans-41"/>
    <use x="1350.802734" xlink:href="#DejaVuSans-4d"/>
    <use x="1437.082031" xlink:href="#DejaVuSans-20"/>
    <use x="1468.869141" xlink:href="#DejaVuSans-4e"/>
    <use x="1543.673828" xlink:href="#DejaVuSans-65"/>
    <use x="1605.197266" xlink:href="#DejaVuSans-74"/>
    <use x="1644.40625" xlink:href="#DejaVuSans-77"/>
    <use x="1726.193359" xlink:href="#DejaVuSans-6f"/>
    <use x="1787.375" xlink:href="#DejaVuSans-72"/>
    <use x="1828.488281" xlink:href="#DejaVuSans-6b"/>
   </g>
  </g>
 </g>
 <defs>
  <clipPath id="pf0df9519b7">
   <rect height="181.112" width="211.25" x="44.425" y="36.288"/>
  </clipPath>
  <clipPath id="pab02f7fcbd">
   <rect height="181.112" width="211.25" x="292.85" y="36.288"/>
  </clipPath>
 </defs>
</svg>
