<?xml version="1.0" encoding="utf-8" standalone="no"?>
<!DOCTYPE svg PUBLIC "-//W3C//DTD SVG 1.1//EN"
  "http://www.w3.org/Graphics/SVG/1.1/DTD/svg11.dtd">
<!-- Created with matplotlib (http://matplotlib.org/) -->
<svg height="288pt" version="1.1" viewBox="0 0 576 288" width="576pt" xmlns="http://www.w3.org/2000/svg" xmlns:xlink="http://www.w3.org/1999/xlink">
 <defs>
  <style type="text/css">
*{stroke-linecap:butt;stroke-linejoin:round;}
  </style>
 </defs>
 <g id="figure_1">
  <g id="patch_1">
   <path d="M 0 288 
L 576 288 
L 576 0 
L 0 0 
z
" style="fill:#ffffff;"/>
  </g>
  <g id="axes_1">
   <g id="patch_2">
    <path d="M 30.425 246.2 
L 277.475 246.2 
L 277.475 40.32 
L 30.425 40.32 
z
" style="fill:#ffffff;"/>
   </g>
   <g id="matplotlib.axis_1">
    <g id="xtick_1">
     <g id="line2d_1">
      <defs>
       <path d="M 0 0 
L 0 3.5 
" id="m0024269a68" style="stroke:#000000;stroke-width:0.8;"/>
      </defs>
      <g>
       <use style="stroke:#000000;stroke-width:0.8;" x="30.425" xlink:href="#m0024269a68" y="246.2"/>
      </g>
     </g>
     <g id="text_1">
      <!-- 0 -->
      <defs>
       <path d="M 31.78125 66.40625 
Q 24.171875 66.40625 20.328125 58.90625 
Q 16.5 51.421875 16.5 36.375 
Q 16.5 21.390625 20.328125 13.890625 
Q 24.171875 6.390625 31.78125 6.390625 
Q 39.453125 6.390625 43.28125 13.890625 
Q 47.125 21.390625 47.125 36.375 
Q 47.125 51.421875 43.28125 58.90625 
Q 39.453125 66.40625 31.78125 66.40625 
z
M 31.78125 74.21875 
Q 44.046875 74.21875 50.515625 64.515625 
Q 56.984375 54.828125 56.984375 36.375 
Q 56.984375 17.96875 50.515625 8.265625 
Q 44.046875 -1.421875 31.78125 -1.421875 
Q 19.53125 -1.421875 13.0625 8.265625 
Q 6.59375 17.96875 6.59375 36.375 
Q 6.59375 54.828125 13.0625 64.515625 
Q 19.53125 74.21875 31.78125 74.21875 
z
" id="DejaVuSans-30"/>
      </defs>
      <g transform="translate(27.24375 260.798437)scale(0.1 -0.1)">
       <use xlink:href="#DejaVuSans-30"/>
      </g>
     </g>
    </g>
    <g id="xtick_2">
     <g id="line2d_2">
      <g>
       <use style="stroke:#000000;stroke-width:0.8;" x="55.13" xlink:href="#m0024269a68" y="246.2"/>
      </g>
     </g>
     <g id="text_2">
      <!-- 1 -->
      <defs>
       <path d="M 12.40625 8.296875 
L 28.515625 8.296875 
L 28.515625 63.921875 
L 10.984375 60.40625 
L 10.984375 69.390625 
L 28.421875 72.90625 
L 38.28125 72.90625 
L 38.28125 8.296875 
L 54.390625 8.296875 
L 54.390625 0 
L 12.40625 0 
z
" id="DejaVuSans-31"/>
      </defs>
      <g transform="translate(51.94875 260.798437)scale(0.1 -0.1)">
       <use xlink:href="#DejaVuSans-31"/>
      </g>
     </g>
    </g>
    <g id="xtick_3">
     <g id="line2d_3">
      <g>
       <use style="stroke:#000000;stroke-width:0.8;" x="79.835" xlink:href="#m0024269a68" y="246.2"/>
      </g>
     </g>
     <g id="text_3">
      <!-- 2 -->
      <defs>
       <path d="M 19.1875 8.296875 
L 53.609375 8.296875 
L 53.609375 0 
L 7.328125 0 
L 7.328125 8.296875 
Q 12.9375 14.109375 22.625 23.890625 
Q 32.328125 33.6875 34.8125 36.53125 
Q 39.546875 41.84375 41.421875 45.53125 
Q 43.3125 49.21875 43.3125 52.78125 
Q 43.3125 58.59375 39.234375 62.25 
Q 35.15625 65.921875 28.609375 65.921875 
Q 23.96875 65.921875 18.8125 64.3125 
Q 13.671875 62.703125 7.8125 59.421875 
L 7.8125 69.390625 
Q 13.765625 71.78125 18.9375 73 
Q 24.125 74.21875 28.421875 74.21875 
Q 39.75 74.21875 46.484375 68.546875 
Q 53.21875 62.890625 53.21875 53.421875 
Q 53.21875 48.921875 51.53125 44.890625 
Q 49.859375 40.875 45.40625 35.40625 
Q 44.1875 33.984375 37.640625 27.21875 
Q 31.109375 20.453125 19.1875 8.296875 
z
" id="DejaVuSans-32"/>
      </defs>
      <g transform="translate(76.65375 260.798437)scale(0.1 -0.1)">
       <use xlink:href="#DejaVuSans-32"/>
      </g>
     </g>
    </g>
    <g id="xtick_4">
     <g id="line2d_4">
      <g>
       <use style="stroke:#000000;stroke-width:0.8;" x="104.54" xlink:href="#m0024269a68" y="246.2"/>
      </g>
     </g>
     <g id="text_4">
      <!-- 3 -->
      <defs>
       <path d="M 40.578125 39.3125 
Q 47.65625 37.796875 51.625 33 
Q 55.609375 28.21875 55.609375 21.1875 
Q 55.609375 10.40625 48.1875 4.484375 
Q 40.765625 -1.421875 27.09375 -1.421875 
Q 22.515625 -1.421875 17.65625 -0.515625 
Q 12.796875 0.390625 7.625 2.203125 
L 7.625 11.71875 
Q 11.71875 9.328125 16.59375 8.109375 
Q 21.484375 6.890625 26.8125 6.890625 
Q 36.078125 6.890625 40.9375 10.546875 
Q 45.796875 14.203125 45.796875 21.1875 
Q 45.796875 27.640625 41.28125 31.265625 
Q 36.765625 34.90625 28.71875 34.90625 
L 20.21875 34.90625 
L 20.21875 43.015625 
L 29.109375 43.015625 
Q 36.375 43.015625 40.234375 45.921875 
Q 44.09375 48.828125 44.09375 54.296875 
Q 44.09375 59.90625 40.109375 62.90625 
Q 36.140625 65.921875 28.71875 65.921875 
Q 24.65625 65.921875 20.015625 65.03125 
Q 15.375 64.15625 9.8125 62.3125 
L 9.8125 71.09375 
Q 15.4375 72.65625 20.34375 73.4375 
Q 25.25 74.21875 29.59375 74.21875 
Q 40.828125 74.21875 47.359375 69.109375 
Q 53.90625 64.015625 53.90625 55.328125 
Q 53.90625 49.265625 50.4375 45.09375 
Q 46.96875 40.921875 40.578125 39.3125 
z
" id="DejaVuSans-33"/>
      </defs>
      <g transform="translate(101.35875 260.798437)scale(0.1 -0.1)">
       <use xlink:href="#DejaVuSans-33"/>
      </g>
     </g>
    </g>
    <g id="xtick_5">
     <g id="line2d_5">
      <g>
       <use style="stroke:#000000;stroke-width:0.8;" x="129.245" xlink:href="#m0024269a68" y="246.2"/>
      </g>
     </g>
     <g id="text_5">
      <!-- 4 -->
      <defs>
       <path d="M 37.796875 64.3125 
L 12.890625 25.390625 
L 37.796875 25.390625 
z
M 35.203125 72.90625 
L 47.609375 72.90625 
L 47.609375 25.390625 
L 58.015625 25.390625 
L 58.015625 17.1875 
L 47.609375 17.1875 
L 47.609375 0 
L 37.796875 0 
L 37.796875 17.1875 
L 4.890625 17.1875 
L 4.890625 26.703125 
z
" id="DejaVuSans-34"/>
      </defs>
      <g transform="translate(126.06375 260.798437)scale(0.1 -0.1)">
       <use xlink:href="#DejaVuSans-34"/>
      </g>
     </g>
    </g>
    <g id="xtick_6">
     <g id="line2d_6">
      <g>
       <use style="stroke:#000000;stroke-width:0.8;" x="153.95" xlink:href="#m0024269a68" y="246.2"/>
      </g>
     </g>
     <g id="text_6">
      <!-- 5 -->
      <defs>
       <path d="M 10.796875 72.90625 
L 49.515625 72.90625 
L 49.515625 64.59375 
L 19.828125 64.59375 
L 19.828125 46.734375 
Q 21.96875 47.46875 24.109375 47.828125 
Q 26.265625 48.1875 28.421875 48.1875 
Q 40.625 48.1875 47.75 41.5 
Q 54.890625 34.8125 54.890625 23.390625 
Q 54.890625 11.625 47.5625 5.09375 
Q 40.234375 -1.421875 26.90625 -1.421875 
Q 22.3125 -1.421875 17.546875 -0.640625 
Q 12.796875 0.140625 7.71875 1.703125 
L 7.71875 11.625 
Q 12.109375 9.234375 16.796875 8.0625 
Q 21.484375 6.890625 26.703125 6.890625 
Q 35.15625 6.890625 40.078125 11.328125 
Q 45.015625 15.765625 45.015625 23.390625 
Q 45.015625 31 40.078125 35.4375 
Q 35.15625 39.890625 26.703125 39.890625 
Q 22.75 39.890625 18.8125 39.015625 
Q 14.890625 38.140625 10.796875 36.28125 
z
" id="DejaVuSans-35"/>
      </defs>
      <g transform="translate(150.76875 260.798437)scale(0.1 -0.1)">
       <use xlink:href="#DejaVuSans-35"/>
      </g>
     </g>
    </g>
    <g id="xtick_7">
     <g id="line2d_7">
      <g>
       <use style="stroke:#000000;stroke-width:0.8;" x="178.655" xlink:href="#m0024269a68" y="246.2"/>
      </g>
     </g>
     <g id="text_7">
      <!-- 6 -->
      <defs>
       <path d="M 33.015625 40.375 
Q 26.375 40.375 22.484375 35.828125 
Q 18.609375 31.296875 18.609375 23.390625 
Q 18.609375 15.53125 22.484375 10.953125 
Q 26.375 6.390625 33.015625 6.390625 
Q 39.65625 6.390625 43.53125 10.953125 
Q 47.40625 15.53125 47.40625 23.390625 
Q 47.40625 31.296875 43.53125 35.828125 
Q 39.65625 40.375 33.015625 40.375 
z
M 52.59375 71.296875 
L 52.59375 62.3125 
Q 48.875 64.0625 45.09375 64.984375 
Q 41.3125 65.921875 37.59375 65.921875 
Q 27.828125 65.921875 22.671875 59.328125 
Q 17.53125 52.734375 16.796875 39.40625 
Q 19.671875 43.65625 24.015625 45.921875 
Q 28.375 48.1875 33.59375 48.1875 
Q 44.578125 48.1875 50.953125 41.515625 
Q 57.328125 34.859375 57.328125 23.390625 
Q 57.328125 12.15625 50.6875 5.359375 
Q 44.046875 -1.421875 33.015625 -1.421875 
Q 20.359375 -1.421875 13.671875 8.265625 
Q 6.984375 17.96875 6.984375 36.375 
Q 6.984375 53.65625 15.1875 63.9375 
Q 23.390625 74.21875 37.203125 74.21875 
Q 40.921875 74.21875 44.703125 73.484375 
Q 48.484375 72.75 52.59375 71.296875 
z
" id="DejaVuSans-36"/>
      </defs>
      <g transform="translate(175.47375 260.798437)scale(0.1 -0.1)">
       <use xlink:href="#DejaVuSans-36"/>
      </g>
     </g>
    </g>
    <g id="xtick_8">
     <g id="line2d_8">
      <g>
       <use style="stroke:#000000;stroke-width:0.8;" x="203.36" xlink:href="#m0024269a68" y="246.2"/>
      </g>
     </g>
     <g id="text_8">
      <!-- 7 -->
      <defs>
       <path d="M 8.203125 72.90625 
L 55.078125 72.90625 
L 55.078125 68.703125 
L 28.609375 0 
L 18.3125 0 
L 43.21875 64.59375 
L 8.203125 64.59375 
z
" id="DejaVuSans-37"/>
      </defs>
      <g transform="translate(200.17875 260.798437)scale(0.1 -0.1)">
       <use xlink:href="#DejaVuSans-37"/>
      </g>
     </g>
    </g>
    <g id="xtick_9">
     <g id="line2d_9">
      <g>
       <use style="stroke:#000000;stroke-width:0.8;" x="228.065" xlink:href="#m0024269a68" y="246.2"/>
      </g>
     </g>
     <g id="text_9">
      <!-- 8 -->
      <defs>
       <path d="M 31.78125 34.625 
Q 24.75 34.625 20.71875 30.859375 
Q 16.703125 27.09375 16.703125 20.515625 
Q 16.703125 13.921875 20.71875 10.15625 
Q 24.75 6.390625 31.78125 6.390625 
Q 38.8125 6.390625 42.859375 10.171875 
Q 46.921875 13.96875 46.921875 20.515625 
Q 46.921875 27.09375 42.890625 30.859375 
Q 38.875 34.625 31.78125 34.625 
z
M 21.921875 38.8125 
Q 15.578125 40.375 12.03125 44.71875 
Q 8.5 49.078125 8.5 55.328125 
Q 8.5 64.0625 14.71875 69.140625 
Q 20.953125 74.21875 31.78125 74.21875 
Q 42.671875 74.21875 48.875 69.140625 
Q 55.078125 64.0625 55.078125 55.328125 
Q 55.078125 49.078125 51.53125 44.71875 
Q 48 40.375 41.703125 38.8125 
Q 48.828125 37.15625 52.796875 32.3125 
Q 56.78125 27.484375 56.78125 20.515625 
Q 56.78125 9.90625 50.3125 4.234375 
Q 43.84375 -1.421875 31.78125 -1.421875 
Q 19.734375 -1.421875 13.25 4.234375 
Q 6.78125 9.90625 6.78125 20.515625 
Q 6.78125 27.484375 10.78125 32.3125 
Q 14.796875 37.15625 21.921875 38.8125 
z
M 18.3125 54.390625 
Q 18.3125 48.734375 21.84375 45.5625 
Q 25.390625 42.390625 31.78125 42.390625 
Q 38.140625 42.390625 41.71875 45.5625 
Q 45.3125 48.734375 45.3125 54.390625 
Q 45.3125 60.0625 41.71875 63.234375 
Q 38.140625 66.40625 31.78125 66.40625 
Q 25.390625 66.40625 21.84375 63.234375 
Q 18.3125 60.0625 18.3125 54.390625 
z
" id="DejaVuSans-38"/>
      </defs>
      <g transform="translate(224.88375 260.798437)scale(0.1 -0.1)">
       <use xlink:href="#DejaVuSans-38"/>
      </g>
     </g>
    </g>
    <g id="xtick_10">
     <g id="line2d_10">
      <g>
       <use style="stroke:#000000;stroke-width:0.8;" x="252.77" xlink:href="#m0024269a68" y="246.2"/>
      </g>
     </g>
     <g id="text_10">
      <!-- 9 -->
      <defs>
       <path d="M 10.984375 1.515625 
L 10.984375 10.5 
Q 14.703125 8.734375 18.5 7.8125 
Q 22.3125 6.890625 25.984375 6.890625 
Q 35.75 6.890625 40.890625 13.453125 
Q 46.046875 20.015625 46.78125 33.40625 
Q 43.953125 29.203125 39.59375 26.953125 
Q 35.25 24.703125 29.984375 24.703125 
Q 19.046875 24.703125 12.671875 31.3125 
Q 6.296875 37.9375 6.296875 49.421875 
Q 6.296875 60.640625 12.9375 67.421875 
Q 19.578125 74.21875 30.609375 74.21875 
Q 43.265625 74.21875 49.921875 64.515625 
Q 56.59375 54.828125 56.59375 36.375 
Q 56.59375 19.140625 48.40625 8.859375 
Q 40.234375 -1.421875 26.421875 -1.421875 
Q 22.703125 -1.421875 18.890625 -0.6875 
Q 15.09375 0.046875 10.984375 1.515625 
z
M 30.609375 32.421875 
Q 37.25 32.421875 41.125 36.953125 
Q 45.015625 41.5 45.015625 49.421875 
Q 45.015625 57.28125 41.125 61.84375 
Q 37.25 66.40625 30.609375 66.40625 
Q 23.96875 66.40625 20.09375 61.84375 
Q 16.21875 57.28125 16.21875 49.421875 
Q 16.21875 41.5 20.09375 36.953125 
Q 23.96875 32.421875 30.609375 32.421875 
z
" id="DejaVuSans-39"/>
      </defs>
      <g transform="translate(249.58875 260.798437)scale(0.1 -0.1)">
       <use xlink:href="#DejaVuSans-39"/>
      </g>
     </g>
    </g>
   </g>
   <g id="matplotlib.axis_2">
    <g id="ytick_1">
     <g id="line2d_11">
      <defs>
       <path d="M 0 0 
L -3.5 0 
" id="m970bde1d4c" style="stroke:#000000;stroke-width:0.8;"/>
      </defs>
      <g>
       <use style="stroke:#000000;stroke-width:0.8;" x="30.425" xlink:href="#m970bde1d4c" y="246.2"/>
      </g>
     </g>
     <g id="text_11">
      <!-- 0 -->
      <g transform="translate(17.0625 249.999219)scale(0.1 -0.1)">
       <use xlink:href="#DejaVuSans-30"/>
      </g>
     </g>
    </g>
    <g id="ytick_2">
     <g id="line2d_12">
      <g>
       <use style="stroke:#000000;stroke-width:0.8;" x="30.425" xlink:href="#m970bde1d4c" y="205.024"/>
      </g>
     </g>
     <g id="text_12">
      <!-- 2 -->
      <g transform="translate(17.0625 208.823219)scale(0.1 -0.1)">
       <use xlink:href="#DejaVuSans-32"/>
      </g>
     </g>
    </g>
    <g id="ytick_3">
     <g id="line2d_13">
      <g>
       <use style="stroke:#000000;stroke-width:0.8;" x="30.425" xlink:href="#m970bde1d4c" y="163.848"/>
      </g>
     </g>
     <g id="text_13">
      <!-- 4 -->
      <g transform="translate(17.0625 167.647219)scale(0.1 -0.1)">
       <use xlink:href="#DejaVuSans-34"/>
      </g>
     </g>
    </g>
    <g id="ytick_4">
     <g id="line2d_14">
      <g>
       <use style="stroke:#000000;stroke-width:0.8;" x="30.425" xlink:href="#m970bde1d4c" y="122.672"/>
      </g>
     </g>
     <g id="text_14">
      <!-- 6 -->
      <g transform="translate(17.0625 126.471219)scale(0.1 -0.1)">
       <use xlink:href="#DejaVuSans-36"/>
      </g>
     </g>
    </g>
    <g id="ytick_5">
     <g id="line2d_15">
      <g>
       <use style="stroke:#000000;stroke-width:0.8;" x="30.425" xlink:href="#m970bde1d4c" y="81.496"/>
      </g>
     </g>
     <g id="text_15">
      <!-- 8 -->
      <g transform="translate(17.0625 85.295219)scale(0.1 -0.1)">
       <use xlink:href="#DejaVuSans-38"/>
      </g>
     </g>
    </g>
    <g id="ytick_6">
     <g id="line2d_16">
      <g>
       <use style="stroke:#000000;stroke-width:0.8;" x="30.425" xlink:href="#m970bde1d4c" y="40.32"/>
      </g>
     </g>
     <g id="text_16">
      <!-- 10 -->
      <g transform="translate(10.7 44.119219)scale(0.1 -0.1)">
       <use xlink:href="#DejaVuSans-31"/>
       <use x="63.623047" xlink:href="#DejaVuSans-30"/>
      </g>
     </g>
    </g>
   </g>
   <g id="line2d_17">
    <path clip-path="url(#p95495d55e6)" d="M 55.13 225.317907 
L 79.835 219.339223 
L 104.54 212.500539 
L 129.245 189.01818 
L 153.95 173.057061 
L 178.655 164.777827 
L 203.36 170.113781 
L 228.065 155.505466 
L 252.77 158.20198 
" style="fill:none;stroke:#1f77b4;stroke-linecap:square;stroke-width:2;"/>
   </g>
   <g id="line2d_18">
    <path clip-path="url(#p95495d55e6)" d="M 55.13 225.612021 
L 79.835 211.555718 
L 104.54 189.928296 
L 129.245 164.11902 
L 153.95 150.674791 
L 178.655 130.890613 
L 203.36 101.879291 
L 228.065 93.195104 
L 252.77 82.705433 
" style="fill:none;stroke:#ff7f0e;stroke-linecap:square;stroke-width:2;"/>
   </g>
   <g id="line2d_19">
    <path clip-path="url(#p95495d55e6)" d="M 55.13 225.612018 
L 79.835 208.167251 
L 104.54 189.704861 
L 129.245 172.148441 
L 153.95 147.252466 
L 178.655 124.770386 
L 203.36 92.372424 
L 228.065 87.281407 
L 252.77 61.340457 
" style="fill:none;stroke:#2ca02c;stroke-linecap:square;stroke-width:2;"/>
   </g>
   <g id="line2d_20">
    <path clip-path="url(#p95495d55e6)" d="M 55.13 225.612022 
L 79.835 207.44721 
L 104.54 188.260286 
L 129.245 170.980685 
L 153.95 147.343829 
L 178.655 128.739633 
L 203.36 106.681062 
L 228.065 82.954835 
L 252.77 72.886888 
" style="fill:none;stroke:#d62728;stroke-linecap:square;stroke-width:2;"/>
   </g>
   <g id="line2d_21">
    <path clip-path="url(#p95495d55e6)" d="M 55.13 225.612018 
L 79.835 203.972588 
L 104.54 186.546735 
L 129.245 166.773905 
L 153.95 151.97384 
L 178.655 127.927398 
L 203.36 102.559679 
L 228.065 85.919325 
L 252.77 64.403902 
" style="fill:none;stroke:#9467bd;stroke-linecap:square;stroke-width:2;"/>
   </g>
   <g id="line2d_22">
    <path clip-path="url(#p95495d55e6)" d="M 55.13 225.61202 
L 79.835 203.854495 
L 104.54 184.373583 
L 129.245 165.123413 
L 153.95 146.264967 
L 178.655 126.036532 
L 203.36 103.036385 
L 228.065 81.224528 
L 252.77 60.864435 
" style="fill:none;stroke:#8c564b;stroke-linecap:square;stroke-width:2;"/>
   </g>
   <g id="patch_3">
    <path d="M 30.425 246.2 
L 30.425 40.32 
" style="fill:none;stroke:#000000;stroke-linecap:square;stroke-linejoin:miter;stroke-width:0.8;"/>
   </g>
   <g id="patch_4">
    <path d="M 277.475 246.2 
L 277.475 40.32 
" style="fill:none;stroke:#000000;stroke-linecap:square;stroke-linejoin:miter;stroke-width:0.8;"/>
   </g>
   <g id="patch_5">
    <path d="M 30.425 246.2 
L 277.475 246.2 
" style="fill:none;stroke:#000000;stroke-linecap:square;stroke-linejoin:miter;stroke-width:0.8;"/>
   </g>
   <g id="patch_6">
    <path d="M 30.425 40.32 
L 277.475 40.32 
" style="fill:none;stroke:#000000;stroke-linecap:square;stroke-linejoin:miter;stroke-width:0.8;"/>
   </g>
   <g id="text_17">
    <!-- Mean Choice -->
    <defs>
     <path d="M 9.8125 72.90625 
L 24.515625 72.90625 
L 43.109375 23.296875 
L 61.8125 72.90625 
L 76.515625 72.90625 
L 76.515625 0 
L 66.890625 0 
L 66.890625 64.015625 
L 48.09375 14.015625 
L 38.1875 14.015625 
L 19.390625 64.015625 
L 19.390625 0 
L 9.8125 0 
z
" id="DejaVuSans-4d"/>
     <path d="M 56.203125 29.59375 
L 56.203125 25.203125 
L 14.890625 25.203125 
Q 15.484375 15.921875 20.484375 11.0625 
Q 25.484375 6.203125 34.421875 6.203125 
Q 39.59375 6.203125 44.453125 7.46875 
Q 49.3125 8.734375 54.109375 11.28125 
L 54.109375 2.78125 
Q 49.265625 0.734375 44.1875 -0.34375 
Q 39.109375 -1.421875 33.890625 -1.421875 
Q 20.796875 -1.421875 13.15625 6.1875 
Q 5.515625 13.8125 5.515625 26.8125 
Q 5.515625 40.234375 12.765625 48.109375 
Q 20.015625 56 32.328125 56 
Q 43.359375 56 49.78125 48.890625 
Q 56.203125 41.796875 56.203125 29.59375 
z
M 47.21875 32.234375 
Q 47.125 39.59375 43.09375 43.984375 
Q 39.0625 48.390625 32.421875 48.390625 
Q 24.90625 48.390625 20.390625 44.140625 
Q 15.875 39.890625 15.1875 32.171875 
z
" id="DejaVuSans-65"/>
     <path d="M 34.28125 27.484375 
Q 23.390625 27.484375 19.1875 25 
Q 14.984375 22.515625 14.984375 16.5 
Q 14.984375 11.71875 18.140625 8.90625 
Q 21.296875 6.109375 26.703125 6.109375 
Q 34.1875 6.109375 38.703125 11.40625 
Q 43.21875 16.703125 43.21875 25.484375 
L 43.21875 27.484375 
z
M 52.203125 31.203125 
L 52.203125 0 
L 43.21875 0 
L 43.21875 8.296875 
Q 40.140625 3.328125 35.546875 0.953125 
Q 30.953125 -1.421875 24.3125 -1.421875 
Q 15.921875 -1.421875 10.953125 3.296875 
Q 6 8.015625 6 15.921875 
Q 6 25.140625 12.171875 29.828125 
Q 18.359375 34.515625 30.609375 34.515625 
L 43.21875 34.515625 
L 43.21875 35.40625 
Q 43.21875 41.609375 39.140625 45 
Q 35.0625 48.390625 27.6875 48.390625 
Q 23 48.390625 18.546875 47.265625 
Q 14.109375 46.140625 10.015625 43.890625 
L 10.015625 52.203125 
Q 14.9375 54.109375 19.578125 55.046875 
Q 24.21875 56 28.609375 56 
Q 40.484375 56 46.34375 49.84375 
Q 52.203125 43.703125 52.203125 31.203125 
z
" id="DejaVuSans-61"/>
     <path d="M 54.890625 33.015625 
L 54.890625 0 
L 45.90625 0 
L 45.90625 32.71875 
Q 45.90625 40.484375 42.875 44.328125 
Q 39.84375 48.1875 33.796875 48.1875 
Q 26.515625 48.1875 22.3125 43.546875 
Q 18.109375 38.921875 18.109375 30.90625 
L 18.109375 0 
L 9.078125 0 
L 9.078125 54.6875 
L 18.109375 54.6875 
L 18.109375 46.1875 
Q 21.34375 51.125 25.703125 53.5625 
Q 30.078125 56 35.796875 56 
Q 45.21875 56 50.046875 50.171875 
Q 54.890625 44.34375 54.890625 33.015625 
z
" id="DejaVuSans-6e"/>
     <path id="DejaVuSans-20"/>
     <path d="M 64.40625 67.28125 
L 64.40625 56.890625 
Q 59.421875 61.53125 53.78125 63.8125 
Q 48.140625 66.109375 41.796875 66.109375 
Q 29.296875 66.109375 22.65625 58.46875 
Q 16.015625 50.828125 16.015625 36.375 
Q 16.015625 21.96875 22.65625 14.328125 
Q 29.296875 6.6875 41.796875 6.6875 
Q 48.140625 6.6875 53.78125 8.984375 
Q 59.421875 11.28125 64.40625 15.921875 
L 64.40625 5.609375 
Q 59.234375 2.09375 53.4375 0.328125 
Q 47.65625 -1.421875 41.21875 -1.421875 
Q 24.65625 -1.421875 15.125 8.703125 
Q 5.609375 18.84375 5.609375 36.375 
Q 5.609375 53.953125 15.125 64.078125 
Q 24.65625 74.21875 41.21875 74.21875 
Q 47.75 74.21875 53.53125 72.484375 
Q 59.328125 70.75 64.40625 67.28125 
z
" id="DejaVuSans-43"/>
     <path d="M 54.890625 33.015625 
L 54.890625 0 
L 45.90625 0 
L 45.90625 32.71875 
Q 45.90625 40.484375 42.875 44.328125 
Q 39.84375 48.1875 33.796875 48.1875 
Q 26.515625 48.1875 22.3125 43.546875 
Q 18.109375 38.921875 18.109375 30.90625 
L 18.109375 0 
L 9.078125 0 
L 9.078125 75.984375 
L 18.109375 75.984375 
L 18.109375 46.1875 
Q 21.34375 51.125 25.703125 53.5625 
Q 30.078125 56 35.796875 56 
Q 45.21875 56 50.046875 50.171875 
Q 54.890625 44.34375 54.890625 33.015625 
z
" id="DejaVuSans-68"/>
     <path d="M 30.609375 48.390625 
Q 23.390625 48.390625 19.1875 42.75 
Q 14.984375 37.109375 14.984375 27.296875 
Q 14.984375 17.484375 19.15625 11.84375 
Q 23.34375 6.203125 30.609375 6.203125 
Q 37.796875 6.203125 41.984375 11.859375 
Q 46.1875 17.53125 46.1875 27.296875 
Q 46.1875 37.015625 41.984375 42.703125 
Q 37.796875 48.390625 30.609375 48.390625 
z
M 30.609375 56 
Q 42.328125 56 49.015625 48.375 
Q 55.71875 40.765625 55.71875 27.296875 
Q 55.71875 13.875 49.015625 6.21875 
Q 42.328125 -1.421875 30.609375 -1.421875 
Q 18.84375 -1.421875 12.171875 6.21875 
Q 5.515625 13.875 5.515625 27.296875 
Q 5.515625 40.765625 12.171875 48.375 
Q 18.84375 56 30.609375 56 
z
" id="DejaVuSans-6f"/>
     <path d="M 9.421875 54.6875 
L 18.40625 54.6875 
L 18.40625 0 
L 9.421875 0 
z
M 9.421875 75.984375 
L 18.40625 75.984375 
L 18.40625 64.59375 
L 9.421875 64.59375 
z
" id="DejaVuSans-69"/>
     <path d="M 48.78125 52.59375 
L 48.78125 44.1875 
Q 44.96875 46.296875 41.140625 47.34375 
Q 37.3125 48.390625 33.40625 48.390625 
Q 24.65625 48.390625 19.8125 42.84375 
Q 14.984375 37.3125 14.984375 27.296875 
Q 14.984375 17.28125 19.8125 11.734375 
Q 24.65625 6.203125 33.40625 6.203125 
Q 37.3125 6.203125 41.140625 7.25 
Q 44.96875 8.296875 48.78125 10.40625 
L 48.78125 2.09375 
Q 45.015625 0.34375 40.984375 -0.53125 
Q 36.96875 -1.421875 32.421875 -1.421875 
Q 20.0625 -1.421875 12.78125 6.34375 
Q 5.515625 14.109375 5.515625 27.296875 
Q 5.515625 40.671875 12.859375 48.328125 
Q 20.21875 56 33.015625 56 
Q 37.15625 56 41.109375 55.140625 
Q 45.0625 54.296875 48.78125 52.59375 
z
" id="DejaVuSans-63"/>
    </defs>
    <g transform="translate(115.37375 34.32)scale(0.12 -0.12)">
     <use xlink:href="#DejaVuSans-4d"/>
     <use x="86.279297" xlink:href="#DejaVuSans-65"/>
     <use x="147.802734" xlink:href="#DejaVuSans-61"/>
     <use x="209.082031" xlink:href="#DejaVuSans-6e"/>
     <use x="272.460938" xlink:href="#DejaVuSans-20"/>
     <use x="304.248047" xlink:href="#DejaVuSans-43"/>
     <use x="374.072266" xlink:href="#DejaVuSans-68"/>
     <use x="437.451172" xlink:href="#DejaVuSans-6f"/>
     <use x="498.632812" xlink:href="#DejaVuSans-69"/>
     <use x="526.416016" xlink:href="#DejaVuSans-63"/>
     <use x="581.396484" xlink:href="#DejaVuSans-65"/>
    </g>
   </g>
   <g id="legend_1">
    <g id="patch_7">
     <path d="M 37.425 125.947812 
L 228.998438 125.947812 
Q 230.998438 125.947812 230.998438 123.947812 
L 230.998438 47.32 
Q 230.998438 45.32 228.998438 45.32 
L 37.425 45.32 
Q 35.425 45.32 35.425 47.32 
L 35.425 123.947812 
Q 35.425 125.947812 37.425 125.947812 
z
" style="fill:#ffffff;opacity:0.8;stroke:#cccccc;stroke-linejoin:miter;"/>
    </g>
    <g id="line2d_23">
     <path d="M 39.425 60.057187 
L 59.425 60.057187 
" style="fill:none;stroke:#1f77b4;stroke-linecap:square;stroke-width:2;"/>
    </g>
    <g id="line2d_24"/>
    <g id="text_18">
     <!-- Iter: 400 -->
     <defs>
      <path d="M 9.8125 72.90625 
L 19.671875 72.90625 
L 19.671875 0 
L 9.8125 0 
z
" id="DejaVuSans-49"/>
      <path d="M 18.3125 70.21875 
L 18.3125 54.6875 
L 36.8125 54.6875 
L 36.8125 47.703125 
L 18.3125 47.703125 
L 18.3125 18.015625 
Q 18.3125 11.328125 20.140625 9.421875 
Q 21.96875 7.515625 27.59375 7.515625 
L 36.8125 7.515625 
L 36.8125 0 
L 27.59375 0 
Q 17.1875 0 13.234375 3.875 
Q 9.28125 7.765625 9.28125 18.015625 
L 9.28125 47.703125 
L 2.6875 47.703125 
L 2.6875 54.6875 
L 9.28125 54.6875 
L 9.28125 70.21875 
z
" id="DejaVuSans-74"/>
      <path d="M 41.109375 46.296875 
Q 39.59375 47.171875 37.8125 47.578125 
Q 36.03125 48 33.890625 48 
Q 26.265625 48 22.1875 43.046875 
Q 18.109375 38.09375 18.109375 28.8125 
L 18.109375 0 
L 9.078125 0 
L 9.078125 54.6875 
L 18.109375 54.6875 
L 18.109375 46.1875 
Q 20.953125 51.171875 25.484375 53.578125 
Q 30.03125 56 36.53125 56 
Q 37.453125 56 38.578125 55.875 
Q 39.703125 55.765625 41.0625 55.515625 
z
" id="DejaVuSans-72"/>
      <path d="M 11.71875 12.40625 
L 22.015625 12.40625 
L 22.015625 0 
L 11.71875 0 
z
M 11.71875 51.703125 
L 22.015625 51.703125 
L 22.015625 39.3125 
L 11.71875 39.3125 
z
" id="DejaVuSans-3a"/>
     </defs>
     <g transform="translate(67.425 56.918438)scale(0.1 -0.1)">
      <use xlink:href="#DejaVuSans-49"/>
      <use x="29.492188" xlink:href="#DejaVuSans-74"/>
      <use x="68.701172" xlink:href="#DejaVuSans-65"/>
      <use x="130.224609" xlink:href="#DejaVuSans-72"/>
      <use x="171.322266" xlink:href="#DejaVuSans-3a"/>
      <use x="205.013672" xlink:href="#DejaVuSans-20"/>
      <use x="236.800781" xlink:href="#DejaVuSans-34"/>
      <use x="300.423828" xlink:href="#DejaVuSans-30"/>
      <use x="364.046875" xlink:href="#DejaVuSans-30"/>
     </g>
     <!-- S=0.4606 -->
     <defs>
      <path d="M 53.515625 70.515625 
L 53.515625 60.890625 
Q 47.90625 63.578125 42.921875 64.890625 
Q 37.9375 66.21875 33.296875 66.21875 
Q 25.25 66.21875 20.875 63.09375 
Q 16.5 59.96875 16.5 54.203125 
Q 16.5 49.359375 19.40625 46.890625 
Q 22.3125 44.4375 30.421875 42.921875 
L 36.375 41.703125 
Q 47.40625 39.59375 52.65625 34.296875 
Q 57.90625 29 57.90625 20.125 
Q 57.90625 9.515625 50.796875 4.046875 
Q 43.703125 -1.421875 29.984375 -1.421875 
Q 24.8125 -1.421875 18.96875 -0.25 
Q 13.140625 0.921875 6.890625 3.21875 
L 6.890625 13.375 
Q 12.890625 10.015625 18.65625 8.296875 
Q 24.421875 6.59375 29.984375 6.59375 
Q 38.421875 6.59375 43.015625 9.90625 
Q 47.609375 13.234375 47.609375 19.390625 
Q 47.609375 24.75 44.3125 27.78125 
Q 41.015625 30.8125 33.5 32.328125 
L 27.484375 33.5 
Q 16.453125 35.6875 11.515625 40.375 
Q 6.59375 45.0625 6.59375 53.421875 
Q 6.59375 63.09375 13.40625 68.65625 
Q 20.21875 74.21875 32.171875 74.21875 
Q 37.3125 74.21875 42.625 73.28125 
Q 47.953125 72.359375 53.515625 70.515625 
z
" id="DejaVuSans-53"/>
      <path d="M 10.59375 45.40625 
L 73.1875 45.40625 
L 73.1875 37.203125 
L 10.59375 37.203125 
z
M 10.59375 25.484375 
L 73.1875 25.484375 
L 73.1875 17.1875 
L 10.59375 17.1875 
z
" id="DejaVuSans-3d"/>
      <path d="M 10.6875 12.40625 
L 21 12.40625 
L 21 0 
L 10.6875 0 
z
" id="DejaVuSans-2e"/>
     </defs>
     <g transform="translate(67.425 68.11625)scale(0.1 -0.1)">
      <use xlink:href="#DejaVuSans-53"/>
      <use x="63.476562" xlink:href="#DejaVuSans-3d"/>
      <use x="147.265625" xlink:href="#DejaVuSans-30"/>
      <use x="210.888672" xlink:href="#DejaVuSans-2e"/>
      <use x="242.675781" xlink:href="#DejaVuSans-34"/>
      <use x="306.298828" xlink:href="#DejaVuSans-36"/>
      <use x="369.921875" xlink:href="#DejaVuSans-30"/>
      <use x="433.544922" xlink:href="#DejaVuSans-36"/>
     </g>
    </g>
    <g id="line2d_25">
     <path d="M 39.425 85.933125 
L 59.425 85.933125 
" style="fill:none;stroke:#ff7f0e;stroke-linecap:square;stroke-width:2;"/>
    </g>
    <g id="line2d_26"/>
    <g id="text_19">
     <!-- Iter: 1600 -->
     <g transform="translate(67.425 82.794375)scale(0.1 -0.1)">
      <use xlink:href="#DejaVuSans-49"/>
      <use x="29.492188" xlink:href="#DejaVuSans-74"/>
      <use x="68.701172" xlink:href="#DejaVuSans-65"/>
      <use x="130.224609" xlink:href="#DejaVuSans-72"/>
      <use x="171.322266" xlink:href="#DejaVuSans-3a"/>
      <use x="205.013672" xlink:href="#DejaVuSans-20"/>
      <use x="236.800781" xlink:href="#DejaVuSans-31"/>
      <use x="300.423828" xlink:href="#DejaVuSans-36"/>
      <use x="364.046875" xlink:href="#DejaVuSans-30"/>
      <use x="427.669922" xlink:href="#DejaVuSans-30"/>
     </g>
     <!-- S=0.9197 -->
     <g transform="translate(67.425 93.992188)scale(0.1 -0.1)">
      <use xlink:href="#DejaVuSans-53"/>
      <use x="63.476562" xlink:href="#DejaVuSans-3d"/>
      <use x="147.265625" xlink:href="#DejaVuSans-30"/>
      <use x="210.888672" xlink:href="#DejaVuSans-2e"/>
      <use x="242.675781" xlink:href="#DejaVuSans-39"/>
      <use x="306.298828" xlink:href="#DejaVuSans-31"/>
      <use x="369.921875" xlink:href="#DejaVuSans-39"/>
      <use x="433.544922" xlink:href="#DejaVuSans-37"/>
     </g>
    </g>
    <g id="line2d_27">
     <path d="M 39.425 111.809062 
L 59.425 111.809062 
" style="fill:none;stroke:#2ca02c;stroke-linecap:square;stroke-width:2;"/>
    </g>
    <g id="line2d_28"/>
    <g id="text_20">
     <!-- Iter: 3200 -->
     <g transform="translate(67.425 108.670312)scale(0.1 -0.1)">
      <use xlink:href="#DejaVuSans-49"/>
      <use x="29.492188" xlink:href="#DejaVuSans-74"/>
      <use x="68.701172" xlink:href="#DejaVuSans-65"/>
      <use x="130.224609" xlink:href="#DejaVuSans-72"/>
      <use x="171.322266" xlink:href="#DejaVuSans-3a"/>
      <use x="205.013672" xlink:href="#DejaVuSans-20"/>
      <use x="236.800781" xlink:href="#DejaVuSans-33"/>
      <use x="300.423828" xlink:href="#DejaVuSans-32"/>
      <use x="364.046875" xlink:href="#DejaVuSans-30"/>
      <use x="427.669922" xlink:href="#DejaVuSans-30"/>
     </g>
     <!-- S=1.0215 -->
     <g transform="translate(67.425 119.868125)scale(0.1 -0.1)">
      <use xlink:href="#DejaVuSans-53"/>
      <use x="63.476562" xlink:href="#DejaVuSans-3d"/>
      <use x="147.265625" xlink:href="#DejaVuSans-31"/>
      <use x="210.888672" xlink:href="#DejaVuSans-2e"/>
      <use x="242.675781" xlink:href="#DejaVuSans-30"/>
      <use x="306.298828" xlink:href="#DejaVuSans-32"/>
      <use x="369.921875" xlink:href="#DejaVuSans-31"/>
      <use x="433.544922" xlink:href="#DejaVuSans-35"/>
     </g>
    </g>
    <g id="line2d_29">
     <path d="M 137.14375 60.057187 
L 157.14375 60.057187 
" style="fill:none;stroke:#d62728;stroke-linecap:square;stroke-width:2;"/>
    </g>
    <g id="line2d_30"/>
    <g id="text_21">
     <!-- Iter: 6400 -->
     <g transform="translate(165.14375 56.918438)scale(0.1 -0.1)">
      <use xlink:href="#DejaVuSans-49"/>
      <use x="29.492188" xlink:href="#DejaVuSans-74"/>
      <use x="68.701172" xlink:href="#DejaVuSans-65"/>
      <use x="130.224609" xlink:href="#DejaVuSans-72"/>
      <use x="171.322266" xlink:href="#DejaVuSans-3a"/>
      <use x="205.013672" xlink:href="#DejaVuSans-20"/>
      <use x="236.800781" xlink:href="#DejaVuSans-36"/>
      <use x="300.423828" xlink:href="#DejaVuSans-34"/>
      <use x="364.046875" xlink:href="#DejaVuSans-30"/>
      <use x="427.669922" xlink:href="#DejaVuSans-30"/>
     </g>
     <!-- S=0.9632 -->
     <g transform="translate(165.14375 68.11625)scale(0.1 -0.1)">
      <use xlink:href="#DejaVuSans-53"/>
      <use x="63.476562" xlink:href="#DejaVuSans-3d"/>
      <use x="147.265625" xlink:href="#DejaVuSans-30"/>
      <use x="210.888672" xlink:href="#DejaVuSans-2e"/>
      <use x="242.675781" xlink:href="#DejaVuSans-39"/>
      <use x="306.298828" xlink:href="#DejaVuSans-36"/>
      <use x="369.921875" xlink:href="#DejaVuSans-33"/>
      <use x="433.544922" xlink:href="#DejaVuSans-32"/>
     </g>
    </g>
    <g id="line2d_31">
     <path d="M 137.14375 85.933125 
L 157.14375 85.933125 
" style="fill:none;stroke:#9467bd;stroke-linecap:square;stroke-width:2;"/>
    </g>
    <g id="line2d_32"/>
    <g id="text_22">
     <!-- Iter: 25600 -->
     <g transform="translate(165.14375 82.794375)scale(0.1 -0.1)">
      <use xlink:href="#DejaVuSans-49"/>
      <use x="29.492188" xlink:href="#DejaVuSans-74"/>
      <use x="68.701172" xlink:href="#DejaVuSans-65"/>
      <use x="130.224609" xlink:href="#DejaVuSans-72"/>
      <use x="171.322266" xlink:href="#DejaVuSans-3a"/>
      <use x="205.013672" xlink:href="#DejaVuSans-20"/>
      <use x="236.800781" xlink:href="#DejaVuSans-32"/>
      <use x="300.423828" xlink:href="#DejaVuSans-35"/>
      <use x="364.046875" xlink:href="#DejaVuSans-36"/>
      <use x="427.669922" xlink:href="#DejaVuSans-30"/>
      <use x="491.292969" xlink:href="#DejaVuSans-30"/>
     </g>
     <!-- S=0.9761 -->
     <g transform="translate(165.14375 93.992188)scale(0.1 -0.1)">
      <use xlink:href="#DejaVuSans-53"/>
      <use x="63.476562" xlink:href="#DejaVuSans-3d"/>
      <use x="147.265625" xlink:href="#DejaVuSans-30"/>
      <use x="210.888672" xlink:href="#DejaVuSans-2e"/>
      <use x="242.675781" xlink:href="#DejaVuSans-39"/>
      <use x="306.298828" xlink:href="#DejaVuSans-37"/>
      <use x="369.921875" xlink:href="#DejaVuSans-36"/>
      <use x="433.544922" xlink:href="#DejaVuSans-31"/>
     </g>
    </g>
    <g id="line2d_33">
     <path d="M 137.14375 111.809062 
L 157.14375 111.809062 
" style="fill:none;stroke:#8c564b;stroke-linecap:square;stroke-width:2;"/>
    </g>
    <g id="line2d_34"/>
    <g id="text_23">
     <!-- Iter: 204800 -->
     <g transform="translate(165.14375 108.670312)scale(0.1 -0.1)">
      <use xlink:href="#DejaVuSans-49"/>
      <use x="29.492188" xlink:href="#DejaVuSans-74"/>
      <use x="68.701172" xlink:href="#DejaVuSans-65"/>
      <use x="130.224609" xlink:href="#DejaVuSans-72"/>
      <use x="171.322266" xlink:href="#DejaVuSans-3a"/>
      <use x="205.013672" xlink:href="#DejaVuSans-20"/>
      <use x="236.800781" xlink:href="#DejaVuSans-32"/>
      <use x="300.423828" xlink:href="#DejaVuSans-30"/>
      <use x="364.046875" xlink:href="#DejaVuSans-34"/>
      <use x="427.669922" xlink:href="#DejaVuSans-38"/>
      <use x="491.292969" xlink:href="#DejaVuSans-30"/>
      <use x="554.916016" xlink:href="#DejaVuSans-30"/>
     </g>
     <!-- S=0.9946 -->
     <g transform="translate(165.14375 119.868125)scale(0.1 -0.1)">
      <use xlink:href="#DejaVuSans-53"/>
      <use x="63.476562" xlink:href="#DejaVuSans-3d"/>
      <use x="147.265625" xlink:href="#DejaVuSans-30"/>
      <use x="210.888672" xlink:href="#DejaVuSans-2e"/>
      <use x="242.675781" xlink:href="#DejaVuSans-39"/>
      <use x="306.298828" xlink:href="#DejaVuSans-39"/>
      <use x="369.921875" xlink:href="#DejaVuSans-34"/>
      <use x="433.544922" xlink:href="#DejaVuSans-36"/>
     </g>
    </g>
   </g>
  </g>
  <g id="axes_2">
   <g id="patch_8">
    <path d="M 314.65 246.2 
L 561.7 246.2 
L 561.7 40.32 
L 314.65 40.32 
z
" style="fill:#ffffff;"/>
   </g>
   <g id="matplotlib.axis_3">
    <g id="xtick_11">
     <g id="line2d_35">
      <g>
       <use style="stroke:#000000;stroke-width:0.8;" x="314.65" xlink:href="#m0024269a68" y="246.2"/>
      </g>
     </g>
     <g id="text_24">
      <!-- 0 -->
      <g transform="translate(311.46875 260.798437)scale(0.1 -0.1)">
       <use xlink:href="#DejaVuSans-30"/>
      </g>
     </g>
    </g>
    <g id="xtick_12">
     <g id="line2d_36">
      <g>
       <use style="stroke:#000000;stroke-width:0.8;" x="339.355" xlink:href="#m0024269a68" y="246.2"/>
      </g>
     </g>
     <g id="text_25">
      <!-- 1 -->
      <g transform="translate(336.17375 260.798437)scale(0.1 -0.1)">
       <use xlink:href="#DejaVuSans-31"/>
      </g>
     </g>
    </g>
    <g id="xtick_13">
     <g id="line2d_37">
      <g>
       <use style="stroke:#000000;stroke-width:0.8;" x="364.06" xlink:href="#m0024269a68" y="246.2"/>
      </g>
     </g>
     <g id="text_26">
      <!-- 2 -->
      <g transform="translate(360.87875 260.798437)scale(0.1 -0.1)">
       <use xlink:href="#DejaVuSans-32"/>
      </g>
     </g>
    </g>
    <g id="xtick_14">
     <g id="line2d_38">
      <g>
       <use style="stroke:#000000;stroke-width:0.8;" x="388.765" xlink:href="#m0024269a68" y="246.2"/>
      </g>
     </g>
     <g id="text_27">
      <!-- 3 -->
      <g transform="translate(385.58375 260.798437)scale(0.1 -0.1)">
       <use xlink:href="#DejaVuSans-33"/>
      </g>
     </g>
    </g>
    <g id="xtick_15">
     <g id="line2d_39">
      <g>
       <use style="stroke:#000000;stroke-width:0.8;" x="413.47" xlink:href="#m0024269a68" y="246.2"/>
      </g>
     </g>
     <g id="text_28">
      <!-- 4 -->
      <g transform="translate(410.28875 260.798437)scale(0.1 -0.1)">
       <use xlink:href="#DejaVuSans-34"/>
      </g>
     </g>
    </g>
    <g id="xtick_16">
     <g id="line2d_40">
      <g>
       <use style="stroke:#000000;stroke-width:0.8;" x="438.175" xlink:href="#m0024269a68" y="246.2"/>
      </g>
     </g>
     <g id="text_29">
      <!-- 5 -->
      <g transform="translate(434.99375 260.798437)scale(0.1 -0.1)">
       <use xlink:href="#DejaVuSans-35"/>
      </g>
     </g>
    </g>
    <g id="xtick_17">
     <g id="line2d_41">
      <g>
       <use style="stroke:#000000;stroke-width:0.8;" x="462.88" xlink:href="#m0024269a68" y="246.2"/>
      </g>
     </g>
     <g id="text_30">
      <!-- 6 -->
      <g transform="translate(459.69875 260.798437)scale(0.1 -0.1)">
       <use xlink:href="#DejaVuSans-36"/>
      </g>
     </g>
    </g>
    <g id="xtick_18">
     <g id="line2d_42">
      <g>
       <use style="stroke:#000000;stroke-width:0.8;" x="487.585" xlink:href="#m0024269a68" y="246.2"/>
      </g>
     </g>
     <g id="text_31">
      <!-- 7 -->
      <g transform="translate(484.40375 260.798437)scale(0.1 -0.1)">
       <use xlink:href="#DejaVuSans-37"/>
      </g>
     </g>
    </g>
    <g id="xtick_19">
     <g id="line2d_43">
      <g>
       <use style="stroke:#000000;stroke-width:0.8;" x="512.29" xlink:href="#m0024269a68" y="246.2"/>
      </g>
     </g>
     <g id="text_32">
      <!-- 8 -->
      <g transform="translate(509.10875 260.798437)scale(0.1 -0.1)">
       <use xlink:href="#DejaVuSans-38"/>
      </g>
     </g>
    </g>
    <g id="xtick_20">
     <g id="line2d_44">
      <g>
       <use style="stroke:#000000;stroke-width:0.8;" x="536.995" xlink:href="#m0024269a68" y="246.2"/>
      </g>
     </g>
     <g id="text_33">
      <!-- 9 -->
      <g transform="translate(533.81375 260.798437)scale(0.1 -0.1)">
       <use xlink:href="#DejaVuSans-39"/>
      </g>
     </g>
    </g>
    <g id="text_34">
     <!-- Stimulus Numerosity -->
     <defs>
      <path d="M 52 44.1875 
Q 55.375 50.25 60.0625 53.125 
Q 64.75 56 71.09375 56 
Q 79.640625 56 84.28125 50.015625 
Q 88.921875 44.046875 88.921875 33.015625 
L 88.921875 0 
L 79.890625 0 
L 79.890625 32.71875 
Q 79.890625 40.578125 77.09375 44.375 
Q 74.3125 48.1875 68.609375 48.1875 
Q 61.625 48.1875 57.5625 43.546875 
Q 53.515625 38.921875 53.515625 30.90625 
L 53.515625 0 
L 44.484375 0 
L 44.484375 32.71875 
Q 44.484375 40.625 41.703125 44.40625 
Q 38.921875 48.1875 33.109375 48.1875 
Q 26.21875 48.1875 22.15625 43.53125 
Q 18.109375 38.875 18.109375 30.90625 
L 18.109375 0 
L 9.078125 0 
L 9.078125 54.6875 
L 18.109375 54.6875 
L 18.109375 46.1875 
Q 21.1875 51.21875 25.484375 53.609375 
Q 29.78125 56 35.6875 56 
Q 41.65625 56 45.828125 52.96875 
Q 50 49.953125 52 44.1875 
z
" id="DejaVuSans-6d"/>
      <path d="M 8.5 21.578125 
L 8.5 54.6875 
L 17.484375 54.6875 
L 17.484375 21.921875 
Q 17.484375 14.15625 20.5 10.265625 
Q 23.53125 6.390625 29.59375 6.390625 
Q 36.859375 6.390625 41.078125 11.03125 
Q 45.3125 15.671875 45.3125 23.6875 
L 45.3125 54.6875 
L 54.296875 54.6875 
L 54.296875 0 
L 45.3125 0 
L 45.3125 8.40625 
Q 42.046875 3.421875 37.71875 1 
Q 33.40625 -1.421875 27.6875 -1.421875 
Q 18.265625 -1.421875 13.375 4.4375 
Q 8.5 10.296875 8.5 21.578125 
z
M 31.109375 56 
z
" id="DejaVuSans-75"/>
      <path d="M 9.421875 75.984375 
L 18.40625 75.984375 
L 18.40625 0 
L 9.421875 0 
z
" id="DejaVuSans-6c"/>
      <path d="M 44.28125 53.078125 
L 44.28125 44.578125 
Q 40.484375 46.53125 36.375 47.5 
Q 32.28125 48.484375 27.875 48.484375 
Q 21.1875 48.484375 17.84375 46.4375 
Q 14.5 44.390625 14.5 40.28125 
Q 14.5 37.15625 16.890625 35.375 
Q 19.28125 33.59375 26.515625 31.984375 
L 29.59375 31.296875 
Q 39.15625 29.25 43.1875 25.515625 
Q 47.21875 21.78125 47.21875 15.09375 
Q 47.21875 7.46875 41.1875 3.015625 
Q 35.15625 -1.421875 24.609375 -1.421875 
Q 20.21875 -1.421875 15.453125 -0.5625 
Q 10.6875 0.296875 5.421875 2 
L 5.421875 11.28125 
Q 10.40625 8.6875 15.234375 7.390625 
Q 20.0625 6.109375 24.8125 6.109375 
Q 31.15625 6.109375 34.5625 8.28125 
Q 37.984375 10.453125 37.984375 14.40625 
Q 37.984375 18.0625 35.515625 20.015625 
Q 33.0625 21.96875 24.703125 23.78125 
L 21.578125 24.515625 
Q 13.234375 26.265625 9.515625 29.90625 
Q 5.8125 33.546875 5.8125 39.890625 
Q 5.8125 47.609375 11.28125 51.796875 
Q 16.75 56 26.8125 56 
Q 31.78125 56 36.171875 55.265625 
Q 40.578125 54.546875 44.28125 53.078125 
z
" id="DejaVuSans-73"/>
      <path d="M 9.8125 72.90625 
L 23.09375 72.90625 
L 55.421875 11.921875 
L 55.421875 72.90625 
L 64.984375 72.90625 
L 64.984375 0 
L 51.703125 0 
L 19.390625 60.984375 
L 19.390625 0 
L 9.8125 0 
z
" id="DejaVuSans-4e"/>
      <path d="M 32.171875 -5.078125 
Q 28.375 -14.84375 24.75 -17.8125 
Q 21.140625 -20.796875 15.09375 -20.796875 
L 7.90625 -20.796875 
L 7.90625 -13.28125 
L 13.1875 -13.28125 
Q 16.890625 -13.28125 18.9375 -11.515625 
Q 21 -9.765625 23.484375 -3.21875 
L 25.09375 0.875 
L 2.984375 54.6875 
L 12.5 54.6875 
L 29.59375 11.921875 
L 46.6875 54.6875 
L 56.203125 54.6875 
z
" id="DejaVuSans-79"/>
     </defs>
     <g transform="translate(385.978125 274.476562)scale(0.1 -0.1)">
      <use xlink:href="#DejaVuSans-53"/>
      <use x="63.476562" xlink:href="#DejaVuSans-74"/>
      <use x="102.685547" xlink:href="#DejaVuSans-69"/>
      <use x="130.46875" xlink:href="#DejaVuSans-6d"/>
      <use x="227.880859" xlink:href="#DejaVuSans-75"/>
      <use x="291.259766" xlink:href="#DejaVuSans-6c"/>
      <use x="319.042969" xlink:href="#DejaVuSans-75"/>
      <use x="382.421875" xlink:href="#DejaVuSans-73"/>
      <use x="434.521484" xlink:href="#DejaVuSans-20"/>
      <use x="466.308594" xlink:href="#DejaVuSans-4e"/>
      <use x="541.113281" xlink:href="#DejaVuSans-75"/>
      <use x="604.492188" xlink:href="#DejaVuSans-6d"/>
      <use x="701.904297" xlink:href="#DejaVuSans-65"/>
      <use x="763.427734" xlink:href="#DejaVuSans-72"/>
      <use x="804.509766" xlink:href="#DejaVuSans-6f"/>
      <use x="865.691406" xlink:href="#DejaVuSans-73"/>
      <use x="917.791016" xlink:href="#DejaVuSans-69"/>
      <use x="945.574219" xlink:href="#DejaVuSans-74"/>
      <use x="984.783203" xlink:href="#DejaVuSans-79"/>
     </g>
    </g>
   </g>
   <g id="matplotlib.axis_4">
    <g id="ytick_7">
     <g id="line2d_45">
      <g>
       <use style="stroke:#000000;stroke-width:0.8;" x="314.65" xlink:href="#m970bde1d4c" y="246.2"/>
      </g>
     </g>
    </g>
    <g id="ytick_8">
     <g id="line2d_46">
      <g>
       <use style="stroke:#000000;stroke-width:0.8;" x="314.65" xlink:href="#m970bde1d4c" y="205.024"/>
      </g>
     </g>
    </g>
    <g id="ytick_9">
     <g id="line2d_47">
      <g>
       <use style="stroke:#000000;stroke-width:0.8;" x="314.65" xlink:href="#m970bde1d4c" y="163.848"/>
      </g>
     </g>
    </g>
    <g id="ytick_10">
     <g id="line2d_48">
      <g>
       <use style="stroke:#000000;stroke-width:0.8;" x="314.65" xlink:href="#m970bde1d4c" y="122.672"/>
      </g>
     </g>
    </g>
    <g id="ytick_11">
     <g id="line2d_49">
      <g>
       <use style="stroke:#000000;stroke-width:0.8;" x="314.65" xlink:href="#m970bde1d4c" y="81.496"/>
      </g>
     </g>
    </g>
    <g id="ytick_12">
     <g id="line2d_50">
      <g>
       <use style="stroke:#000000;stroke-width:0.8;" x="314.65" xlink:href="#m970bde1d4c" y="40.32"/>
      </g>
     </g>
    </g>
   </g>
   <g id="patch_9">
    <path d="M 314.65 246.2 
L 314.65 40.32 
" style="fill:none;stroke:#000000;stroke-linecap:square;stroke-linejoin:miter;stroke-width:0.8;"/>
   </g>
   <g id="patch_10">
    <path d="M 561.7 246.2 
L 561.7 40.32 
" style="fill:none;stroke:#000000;stroke-linecap:square;stroke-linejoin:miter;stroke-width:0.8;"/>
   </g>
   <g id="patch_11">
    <path d="M 314.65 246.2 
L 561.7 246.2 
" style="fill:none;stroke:#000000;stroke-linecap:square;stroke-linejoin:miter;stroke-width:0.8;"/>
   </g>
   <g id="patch_12">
    <path d="M 314.65 40.32 
L 561.7 40.32 
" style="fill:none;stroke:#000000;stroke-linecap:square;stroke-linejoin:miter;stroke-width:0.8;"/>
   </g>
   <g id="text_35">
    <!-- Coefficient of Variation -->
    <defs>
     <path d="M 37.109375 75.984375 
L 37.109375 68.5 
L 28.515625 68.5 
Q 23.6875 68.5 21.796875 66.546875 
Q 19.921875 64.59375 19.921875 59.515625 
L 19.921875 54.6875 
L 34.71875 54.6875 
L 34.71875 47.703125 
L 19.921875 47.703125 
L 19.921875 0 
L 10.890625 0 
L 10.890625 47.703125 
L 2.296875 47.703125 
L 2.296875 54.6875 
L 10.890625 54.6875 
L 10.890625 58.5 
Q 10.890625 67.625 15.140625 71.796875 
Q 19.390625 75.984375 28.609375 75.984375 
z
" id="DejaVuSans-66"/>
     <path d="M 28.609375 0 
L 0.78125 72.90625 
L 11.078125 72.90625 
L 34.1875 11.53125 
L 57.328125 72.90625 
L 67.578125 72.90625 
L 39.796875 0 
z
" id="DejaVuSans-56"/>
    </defs>
    <g transform="translate(369.243438 34.32)scale(0.12 -0.12)">
     <use xlink:href="#DejaVuSans-43"/>
     <use x="69.824219" xlink:href="#DejaVuSans-6f"/>
     <use x="131.005859" xlink:href="#DejaVuSans-65"/>
     <use x="192.529297" xlink:href="#DejaVuSans-66"/>
     <use x="227.734375" xlink:href="#DejaVuSans-66"/>
     <use x="262.939453" xlink:href="#DejaVuSans-69"/>
     <use x="290.722656" xlink:href="#DejaVuSans-63"/>
     <use x="345.703125" xlink:href="#DejaVuSans-69"/>
     <use x="373.486328" xlink:href="#DejaVuSans-65"/>
     <use x="435.009766" xlink:href="#DejaVuSans-6e"/>
     <use x="498.388672" xlink:href="#DejaVuSans-74"/>
     <use x="537.597656" xlink:href="#DejaVuSans-20"/>
     <use x="569.384766" xlink:href="#DejaVuSans-6f"/>
     <use x="630.566406" xlink:href="#DejaVuSans-66"/>
     <use x="665.771484" xlink:href="#DejaVuSans-20"/>
     <use x="697.558594" xlink:href="#DejaVuSans-56"/>
     <use x="765.857422" xlink:href="#DejaVuSans-61"/>
     <use x="827.136719" xlink:href="#DejaVuSans-72"/>
     <use x="868.25" xlink:href="#DejaVuSans-69"/>
     <use x="896.033203" xlink:href="#DejaVuSans-61"/>
     <use x="957.3125" xlink:href="#DejaVuSans-74"/>
     <use x="996.521484" xlink:href="#DejaVuSans-69"/>
     <use x="1024.304688" xlink:href="#DejaVuSans-6f"/>
     <use x="1085.486328" xlink:href="#DejaVuSans-6e"/>
    </g>
   </g>
  </g>
  <g id="axes_3">
   <g id="matplotlib.axis_5">
    <g id="ytick_13">
     <g id="line2d_51">
      <g>
       <use style="stroke:#000000;stroke-width:0.8;" x="314.65" xlink:href="#m970bde1d4c" y="246.2"/>
      </g>
     </g>
     <g id="text_36">
      <!-- 0.0 -->
      <g transform="translate(291.746875 249.999219)scale(0.1 -0.1)">
       <use xlink:href="#DejaVuSans-30"/>
       <use x="63.623047" xlink:href="#DejaVuSans-2e"/>
       <use x="95.410156" xlink:href="#DejaVuSans-30"/>
      </g>
     </g>
    </g>
    <g id="ytick_14">
     <g id="line2d_52">
      <g>
       <use style="stroke:#000000;stroke-width:0.8;" x="314.65" xlink:href="#m970bde1d4c" y="205.024"/>
      </g>
     </g>
     <g id="text_37">
      <!-- 0.2 -->
      <g transform="translate(291.746875 208.823219)scale(0.1 -0.1)">
       <use xlink:href="#DejaVuSans-30"/>
       <use x="63.623047" xlink:href="#DejaVuSans-2e"/>
       <use x="95.410156" xlink:href="#DejaVuSans-32"/>
      </g>
     </g>
    </g>
    <g id="ytick_15">
     <g id="line2d_53">
      <g>
       <use style="stroke:#000000;stroke-width:0.8;" x="314.65" xlink:href="#m970bde1d4c" y="163.848"/>
      </g>
     </g>
     <g id="text_38">
      <!-- 0.4 -->
      <g transform="translate(291.746875 167.647219)scale(0.1 -0.1)">
       <use xlink:href="#DejaVuSans-30"/>
       <use x="63.623047" xlink:href="#DejaVuSans-2e"/>
       <use x="95.410156" xlink:href="#DejaVuSans-34"/>
      </g>
     </g>
    </g>
    <g id="ytick_16">
     <g id="line2d_54">
      <g>
       <use style="stroke:#000000;stroke-width:0.8;" x="314.65" xlink:href="#m970bde1d4c" y="122.672"/>
      </g>
     </g>
     <g id="text_39">
      <!-- 0.6 -->
      <g transform="translate(291.746875 126.471219)scale(0.1 -0.1)">
       <use xlink:href="#DejaVuSans-30"/>
       <use x="63.623047" xlink:href="#DejaVuSans-2e"/>
       <use x="95.410156" xlink:href="#DejaVuSans-36"/>
      </g>
     </g>
    </g>
    <g id="ytick_17">
     <g id="line2d_55">
      <g>
       <use style="stroke:#000000;stroke-width:0.8;" x="314.65" xlink:href="#m970bde1d4c" y="81.496"/>
      </g>
     </g>
     <g id="text_40">
      <!-- 0.8 -->
      <g transform="translate(291.746875 85.295219)scale(0.1 -0.1)">
       <use xlink:href="#DejaVuSans-30"/>
       <use x="63.623047" xlink:href="#DejaVuSans-2e"/>
       <use x="95.410156" xlink:href="#DejaVuSans-38"/>
      </g>
     </g>
    </g>
    <g id="ytick_18">
     <g id="line2d_56">
      <g>
       <use style="stroke:#000000;stroke-width:0.8;" x="314.65" xlink:href="#m970bde1d4c" y="40.32"/>
      </g>
     </g>
     <g id="text_41">
      <!-- 1.0 -->
      <g transform="translate(291.746875 44.119219)scale(0.1 -0.1)">
       <use xlink:href="#DejaVuSans-31"/>
       <use x="63.623047" xlink:href="#DejaVuSans-2e"/>
       <use x="95.410156" xlink:href="#DejaVuSans-30"/>
      </g>
     </g>
    </g>
   </g>
   <g id="line2d_57">
    <path clip-path="url(#pabbba4c5c5)" d="M 339.355 239.896056 
L 364.06 159.186938 
L 388.765 146.943697 
L 413.47 122.485272 
L 438.175 123.387325 
L 462.88 133.700624 
L 487.585 138.880902 
L 512.29 147.308079 
L 536.995 159.076114 
" style="fill:none;stroke:#1f77b4;stroke-linecap:square;stroke-width:2;"/>
   </g>
   <g id="line2d_58">
    <path clip-path="url(#pabbba4c5c5)" d="M 339.355 246.199789 
L 364.06 178.555804 
L 388.765 177.120883 
L 413.47 165.885228 
L 438.175 177.654755 
L 462.88 170.060328 
L 487.585 169.02233 
L 512.29 182.138972 
L 536.995 181.676792 
" style="fill:none;stroke:#ff7f0e;stroke-linecap:square;stroke-width:2;"/>
   </g>
   <g id="line2d_59">
    <path clip-path="url(#pabbba4c5c5)" d="M 339.355 246.199821 
L 364.06 205.304818 
L 388.765 189.992098 
L 413.47 182.818822 
L 438.175 194.590776 
L 462.88 183.05814 
L 487.585 191.931488 
L 512.29 195.399414 
L 536.995 197.106034 
" style="fill:none;stroke:#2ca02c;stroke-linecap:square;stroke-width:2;"/>
   </g>
   <g id="line2d_60">
    <path clip-path="url(#pabbba4c5c5)" d="M 339.355 246.199783 
L 364.06 200.924167 
L 388.765 195.689121 
L 413.47 208.681051 
L 438.175 196.146961 
L 462.88 195.139851 
L 487.585 188.442751 
L 512.29 194.591274 
L 536.995 210.456164 
" style="fill:none;stroke:#d62728;stroke-linecap:square;stroke-width:2;"/>
   </g>
   <g id="line2d_61">
    <path clip-path="url(#pabbba4c5c5)" d="M 339.355 246.199817 
L 364.06 233.330554 
L 388.765 200.035292 
L 413.47 212.419361 
L 438.175 208.122207 
L 462.88 209.434653 
L 487.585 206.586209 
L 512.29 203.714876 
L 536.995 211.601674 
" style="fill:none;stroke:#9467bd;stroke-linecap:square;stroke-width:2;"/>
   </g>
   <g id="line2d_62">
    <path clip-path="url(#pabbba4c5c5)" d="M 339.355 246.199798 
L 364.06 230.951527 
L 388.765 226.436376 
L 413.47 216.555078 
L 438.175 216.622149 
L 462.88 212.545192 
L 487.585 213.84406 
L 512.29 214.370524 
L 536.995 212.025681 
" style="fill:none;stroke:#8c564b;stroke-linecap:square;stroke-width:2;"/>
   </g>
   <g id="patch_13">
    <path d="M 314.65 246.2 
L 314.65 40.32 
" style="fill:none;stroke:#000000;stroke-linecap:square;stroke-linejoin:miter;stroke-width:0.8;"/>
   </g>
   <g id="patch_14">
    <path d="M 561.7 246.2 
L 561.7 40.32 
" style="fill:none;stroke:#000000;stroke-linecap:square;stroke-linejoin:miter;stroke-width:0.8;"/>
   </g>
   <g id="patch_15">
    <path d="M 314.65 246.2 
L 561.7 246.2 
" style="fill:none;stroke:#000000;stroke-linecap:square;stroke-linejoin:miter;stroke-width:0.8;"/>
   </g>
   <g id="patch_16">
    <path d="M 314.65 40.32 
L 561.7 40.32 
" style="fill:none;stroke:#000000;stroke-linecap:square;stroke-linejoin:miter;stroke-width:0.8;"/>
   </g>
   <g id="legend_2">
    <g id="patch_17">
     <path d="M 363.715625 125.947812 
L 554.7 125.947812 
Q 556.7 125.947812 556.7 123.947812 
L 556.7 47.32 
Q 556.7 45.32 554.7 45.32 
L 363.715625 45.32 
Q 361.715625 45.32 361.715625 47.32 
L 361.715625 123.947812 
Q 361.715625 125.947812 363.715625 125.947812 
z
" style="fill:#ffffff;opacity:0.8;stroke:#cccccc;stroke-linejoin:miter;"/>
    </g>
    <g id="line2d_63">
     <path d="M 365.715625 60.057187 
L 385.715625 60.057187 
" style="fill:none;stroke:#1f77b4;stroke-linecap:square;stroke-width:2;"/>
    </g>
    <g id="line2d_64"/>
    <g id="text_42">
     <!-- Iter: 400 -->
     <g transform="translate(393.715625 56.918438)scale(0.1 -0.1)">
      <use xlink:href="#DejaVuSans-49"/>
      <use x="29.492188" xlink:href="#DejaVuSans-74"/>
      <use x="68.701172" xlink:href="#DejaVuSans-65"/>
      <use x="130.224609" xlink:href="#DejaVuSans-72"/>
      <use x="171.322266" xlink:href="#DejaVuSans-3a"/>
      <use x="205.013672" xlink:href="#DejaVuSans-20"/>
      <use x="236.800781" xlink:href="#DejaVuSans-34"/>
      <use x="300.423828" xlink:href="#DejaVuSans-30"/>
      <use x="364.046875" xlink:href="#DejaVuSans-30"/>
     </g>
     <!-- I=0.8025 -->
     <g transform="translate(393.715625 68.11625)scale(0.1 -0.1)">
      <use xlink:href="#DejaVuSans-49"/>
      <use x="29.492188" xlink:href="#DejaVuSans-3d"/>
      <use x="113.28125" xlink:href="#DejaVuSans-30"/>
      <use x="176.904297" xlink:href="#DejaVuSans-2e"/>
      <use x="208.691406" xlink:href="#DejaVuSans-38"/>
      <use x="272.314453" xlink:href="#DejaVuSans-30"/>
      <use x="335.9375" xlink:href="#DejaVuSans-32"/>
      <use x="399.560547" xlink:href="#DejaVuSans-35"/>
     </g>
    </g>
    <g id="line2d_65">
     <path d="M 365.715625 85.933125 
L 385.715625 85.933125 
" style="fill:none;stroke:#ff7f0e;stroke-linecap:square;stroke-width:2;"/>
    </g>
    <g id="line2d_66"/>
    <g id="text_43">
     <!-- Iter: 1600 -->
     <g transform="translate(393.715625 82.794375)scale(0.1 -0.1)">
      <use xlink:href="#DejaVuSans-49"/>
      <use x="29.492188" xlink:href="#DejaVuSans-74"/>
      <use x="68.701172" xlink:href="#DejaVuSans-65"/>
      <use x="130.224609" xlink:href="#DejaVuSans-72"/>
      <use x="171.322266" xlink:href="#DejaVuSans-3a"/>
      <use x="205.013672" xlink:href="#DejaVuSans-20"/>
      <use x="236.800781" xlink:href="#DejaVuSans-31"/>
      <use x="300.423828" xlink:href="#DejaVuSans-36"/>
      <use x="364.046875" xlink:href="#DejaVuSans-30"/>
      <use x="427.669922" xlink:href="#DejaVuSans-30"/>
     </g>
     <!-- I=0.4089 -->
     <g transform="translate(393.715625 93.992188)scale(0.1 -0.1)">
      <use xlink:href="#DejaVuSans-49"/>
      <use x="29.492188" xlink:href="#DejaVuSans-3d"/>
      <use x="113.28125" xlink:href="#DejaVuSans-30"/>
      <use x="176.904297" xlink:href="#DejaVuSans-2e"/>
      <use x="208.691406" xlink:href="#DejaVuSans-34"/>
      <use x="272.314453" xlink:href="#DejaVuSans-30"/>
      <use x="335.9375" xlink:href="#DejaVuSans-38"/>
      <use x="399.560547" xlink:href="#DejaVuSans-39"/>
     </g>
    </g>
    <g id="line2d_67">
     <path d="M 365.715625 111.809062 
L 385.715625 111.809062 
" style="fill:none;stroke:#2ca02c;stroke-linecap:square;stroke-width:2;"/>
    </g>
    <g id="line2d_68"/>
    <g id="text_44">
     <!-- Iter: 3200 -->
     <g transform="translate(393.715625 108.670312)scale(0.1 -0.1)">
      <use xlink:href="#DejaVuSans-49"/>
      <use x="29.492188" xlink:href="#DejaVuSans-74"/>
      <use x="68.701172" xlink:href="#DejaVuSans-65"/>
      <use x="130.224609" xlink:href="#DejaVuSans-72"/>
      <use x="171.322266" xlink:href="#DejaVuSans-3a"/>
      <use x="205.013672" xlink:href="#DejaVuSans-20"/>
      <use x="236.800781" xlink:href="#DejaVuSans-33"/>
      <use x="300.423828" xlink:href="#DejaVuSans-32"/>
      <use x="364.046875" xlink:href="#DejaVuSans-30"/>
      <use x="427.669922" xlink:href="#DejaVuSans-30"/>
     </g>
     <!-- I=0.3203 -->
     <g transform="translate(393.715625 119.868125)scale(0.1 -0.1)">
      <use xlink:href="#DejaVuSans-49"/>
      <use x="29.492188" xlink:href="#DejaVuSans-3d"/>
      <use x="113.28125" xlink:href="#DejaVuSans-30"/>
      <use x="176.904297" xlink:href="#DejaVuSans-2e"/>
      <use x="208.691406" xlink:href="#DejaVuSans-33"/>
      <use x="272.314453" xlink:href="#DejaVuSans-32"/>
      <use x="335.9375" xlink:href="#DejaVuSans-30"/>
      <use x="399.560547" xlink:href="#DejaVuSans-33"/>
     </g>
    </g>
    <g id="line2d_69">
     <path d="M 462.845313 60.057187 
L 482.845313 60.057187 
" style="fill:none;stroke:#d62728;stroke-linecap:square;stroke-width:2;"/>
    </g>
    <g id="line2d_70"/>
    <g id="text_45">
     <!-- Iter: 6400 -->
     <g transform="translate(490.845313 56.918438)scale(0.1 -0.1)">
      <use xlink:href="#DejaVuSans-49"/>
      <use x="29.492188" xlink:href="#DejaVuSans-74"/>
      <use x="68.701172" xlink:href="#DejaVuSans-65"/>
      <use x="130.224609" xlink:href="#DejaVuSans-72"/>
      <use x="171.322266" xlink:href="#DejaVuSans-3a"/>
      <use x="205.013672" xlink:href="#DejaVuSans-20"/>
      <use x="236.800781" xlink:href="#DejaVuSans-36"/>
      <use x="300.423828" xlink:href="#DejaVuSans-34"/>
      <use x="364.046875" xlink:href="#DejaVuSans-30"/>
      <use x="427.669922" xlink:href="#DejaVuSans-30"/>
     </g>
     <!-- I=0.3346 -->
     <g transform="translate(490.845313 68.11625)scale(0.1 -0.1)">
      <use xlink:href="#DejaVuSans-49"/>
      <use x="29.492188" xlink:href="#DejaVuSans-3d"/>
      <use x="113.28125" xlink:href="#DejaVuSans-30"/>
      <use x="176.904297" xlink:href="#DejaVuSans-2e"/>
      <use x="208.691406" xlink:href="#DejaVuSans-33"/>
      <use x="272.314453" xlink:href="#DejaVuSans-33"/>
      <use x="335.9375" xlink:href="#DejaVuSans-34"/>
      <use x="399.560547" xlink:href="#DejaVuSans-36"/>
     </g>
    </g>
    <g id="line2d_71">
     <path d="M 462.845313 85.933125 
L 482.845313 85.933125 
" style="fill:none;stroke:#9467bd;stroke-linecap:square;stroke-width:2;"/>
    </g>
    <g id="line2d_72"/>
    <g id="text_46">
     <!-- Iter: 25600 -->
     <g transform="translate(490.845313 82.794375)scale(0.1 -0.1)">
      <use xlink:href="#DejaVuSans-49"/>
      <use x="29.492188" xlink:href="#DejaVuSans-74"/>
      <use x="68.701172" xlink:href="#DejaVuSans-65"/>
      <use x="130.224609" xlink:href="#DejaVuSans-72"/>
      <use x="171.322266" xlink:href="#DejaVuSans-3a"/>
      <use x="205.013672" xlink:href="#DejaVuSans-20"/>
      <use x="236.800781" xlink:href="#DejaVuSans-32"/>
      <use x="300.423828" xlink:href="#DejaVuSans-35"/>
      <use x="364.046875" xlink:href="#DejaVuSans-36"/>
      <use x="427.669922" xlink:href="#DejaVuSans-30"/>
      <use x="491.292969" xlink:href="#DejaVuSans-30"/>
     </g>
     <!-- I=0.1903 -->
     <g transform="translate(490.845313 93.992188)scale(0.1 -0.1)">
      <use xlink:href="#DejaVuSans-49"/>
      <use x="29.492188" xlink:href="#DejaVuSans-3d"/>
      <use x="113.28125" xlink:href="#DejaVuSans-30"/>
      <use x="176.904297" xlink:href="#DejaVuSans-2e"/>
      <use x="208.691406" xlink:href="#DejaVuSans-31"/>
      <use x="272.314453" xlink:href="#DejaVuSans-39"/>
      <use x="335.9375" xlink:href="#DejaVuSans-30"/>
      <use x="399.560547" xlink:href="#DejaVuSans-33"/>
     </g>
    </g>
    <g id="line2d_73">
     <path d="M 462.845313 111.809062 
L 482.845313 111.809062 
" style="fill:none;stroke:#8c564b;stroke-linecap:square;stroke-width:2;"/>
    </g>
    <g id="line2d_74"/>
    <g id="text_47">
     <!-- Iter: 204800 -->
     <g transform="translate(490.845313 108.670312)scale(0.1 -0.1)">
      <use xlink:href="#DejaVuSans-49"/>
      <use x="29.492188" xlink:href="#DejaVuSans-74"/>
      <use x="68.701172" xlink:href="#DejaVuSans-65"/>
      <use x="130.224609" xlink:href="#DejaVuSans-72"/>
      <use x="171.322266" xlink:href="#DejaVuSans-3a"/>
      <use x="205.013672" xlink:href="#DejaVuSans-20"/>
      <use x="236.800781" xlink:href="#DejaVuSans-32"/>
      <use x="300.423828" xlink:href="#DejaVuSans-30"/>
      <use x="364.046875" xlink:href="#DejaVuSans-34"/>
      <use x="427.669922" xlink:href="#DejaVuSans-38"/>
      <use x="491.292969" xlink:href="#DejaVuSans-30"/>
      <use x="554.916016" xlink:href="#DejaVuSans-30"/>
     </g>
     <!-- I=0.1319 -->
     <g transform="translate(490.845313 119.868125)scale(0.1 -0.1)">
      <use xlink:href="#DejaVuSans-49"/>
      <use x="29.492188" xlink:href="#DejaVuSans-3d"/>
      <use x="113.28125" xlink:href="#DejaVuSans-30"/>
      <use x="176.904297" xlink:href="#DejaVuSans-2e"/>
      <use x="208.691406" xlink:href="#DejaVuSans-31"/>
      <use x="272.314453" xlink:href="#DejaVuSans-33"/>
      <use x="335.9375" xlink:href="#DejaVuSans-31"/>
      <use x="399.560547" xlink:href="#DejaVuSans-39"/>
     </g>
    </g>
   </g>
  </g>
  <g id="text_48">
   <!-- Experiment 1 Results: FF Network Development -->
   <defs>
    <path d="M 9.8125 72.90625 
L 55.90625 72.90625 
L 55.90625 64.59375 
L 19.671875 64.59375 
L 19.671875 43.015625 
L 54.390625 43.015625 
L 54.390625 34.71875 
L 19.671875 34.71875 
L 19.671875 8.296875 
L 56.78125 8.296875 
L 56.78125 0 
L 9.8125 0 
z
" id="DejaVuSans-45"/>
    <path d="M 54.890625 54.6875 
L 35.109375 28.078125 
L 55.90625 0 
L 45.3125 0 
L 29.390625 21.484375 
L 13.484375 0 
L 2.875 0 
L 24.125 28.609375 
L 4.6875 54.6875 
L 15.28125 54.6875 
L 29.78125 35.203125 
L 44.28125 54.6875 
z
" id="DejaVuSans-78"/>
    <path d="M 18.109375 8.203125 
L 18.109375 -20.796875 
L 9.078125 -20.796875 
L 9.078125 54.6875 
L 18.109375 54.6875 
L 18.109375 46.390625 
Q 20.953125 51.265625 25.265625 53.625 
Q 29.59375 56 35.59375 56 
Q 45.5625 56 51.78125 48.09375 
Q 58.015625 40.1875 58.015625 27.296875 
Q 58.015625 14.40625 51.78125 6.484375 
Q 45.5625 -1.421875 35.59375 -1.421875 
Q 29.59375 -1.421875 25.265625 0.953125 
Q 20.953125 3.328125 18.109375 8.203125 
z
M 48.6875 27.296875 
Q 48.6875 37.203125 44.609375 42.84375 
Q 40.53125 48.484375 33.40625 48.484375 
Q 26.265625 48.484375 22.1875 42.84375 
Q 18.109375 37.203125 18.109375 27.296875 
Q 18.109375 17.390625 22.1875 11.75 
Q 26.265625 6.109375 33.40625 6.109375 
Q 40.53125 6.109375 44.609375 11.75 
Q 48.6875 17.390625 48.6875 27.296875 
z
" id="DejaVuSans-70"/>
    <path d="M 44.390625 34.1875 
Q 47.5625 33.109375 50.5625 29.59375 
Q 53.5625 26.078125 56.59375 19.921875 
L 66.609375 0 
L 56 0 
L 46.6875 18.703125 
Q 43.0625 26.03125 39.671875 28.421875 
Q 36.28125 30.8125 30.421875 30.8125 
L 19.671875 30.8125 
L 19.671875 0 
L 9.8125 0 
L 9.8125 72.90625 
L 32.078125 72.90625 
Q 44.578125 72.90625 50.734375 67.671875 
Q 56.890625 62.453125 56.890625 51.90625 
Q 56.890625 45.015625 53.6875 40.46875 
Q 50.484375 35.9375 44.390625 34.1875 
z
M 19.671875 64.796875 
L 19.671875 38.921875 
L 32.078125 38.921875 
Q 39.203125 38.921875 42.84375 42.21875 
Q 46.484375 45.515625 46.484375 51.90625 
Q 46.484375 58.296875 42.84375 61.546875 
Q 39.203125 64.796875 32.078125 64.796875 
z
" id="DejaVuSans-52"/>
    <path d="M 9.8125 72.90625 
L 51.703125 72.90625 
L 51.703125 64.59375 
L 19.671875 64.59375 
L 19.671875 43.109375 
L 48.578125 43.109375 
L 48.578125 34.8125 
L 19.671875 34.8125 
L 19.671875 0 
L 9.8125 0 
z
" id="DejaVuSans-46"/>
    <path d="M 4.203125 54.6875 
L 13.1875 54.6875 
L 24.421875 12.015625 
L 35.59375 54.6875 
L 46.1875 54.6875 
L 57.421875 12.015625 
L 68.609375 54.6875 
L 77.59375 54.6875 
L 63.28125 0 
L 52.6875 0 
L 40.921875 44.828125 
L 29.109375 0 
L 18.5 0 
z
" id="DejaVuSans-77"/>
    <path d="M 9.078125 75.984375 
L 18.109375 75.984375 
L 18.109375 31.109375 
L 44.921875 54.6875 
L 56.390625 54.6875 
L 27.390625 29.109375 
L 57.625 0 
L 45.90625 0 
L 18.109375 26.703125 
L 18.109375 0 
L 9.078125 0 
z
" id="DejaVuSans-6b"/>
    <path d="M 19.671875 64.796875 
L 19.671875 8.109375 
L 31.59375 8.109375 
Q 46.6875 8.109375 53.6875 14.9375 
Q 60.6875 21.78125 60.6875 36.53125 
Q 60.6875 51.171875 53.6875 57.984375 
Q 46.6875 64.796875 31.59375 64.796875 
z
M 9.8125 72.90625 
L 30.078125 72.90625 
Q 51.265625 72.90625 61.171875 64.09375 
Q 71.09375 55.28125 71.09375 36.53125 
Q 71.09375 17.671875 61.125 8.828125 
Q 51.171875 0 30.078125 0 
L 9.8125 0 
z
" id="DejaVuSans-44"/>
    <path d="M 2.984375 54.6875 
L 12.5 54.6875 
L 29.59375 8.796875 
L 46.6875 54.6875 
L 56.203125 54.6875 
L 35.6875 0 
L 23.484375 0 
z
" id="DejaVuSans-76"/>
   </defs>
   <g transform="translate(95.57625 17.9175)scale(0.16 -0.16)">
    <use xlink:href="#DejaVuSans-45"/>
    <use x="63.183594" xlink:href="#DejaVuSans-78"/>
    <use x="122.363281" xlink:href="#DejaVuSans-70"/>
    <use x="185.839844" xlink:href="#DejaVuSans-65"/>
    <use x="247.363281" xlink:href="#DejaVuSans-72"/>
    <use x="288.476562" xlink:href="#DejaVuSans-69"/>
    <use x="316.259766" xlink:href="#DejaVuSans-6d"/>
    <use x="413.671875" xlink:href="#DejaVuSans-65"/>
    <use x="475.195312" xlink:href="#DejaVuSans-6e"/>
    <use x="538.574219" xlink:href="#DejaVuSans-74"/>
    <use x="577.783203" xlink:href="#DejaVuSans-20"/>
    <use x="609.570312" xlink:href="#DejaVuSans-31"/>
    <use x="673.193359" xlink:href="#DejaVuSans-20"/>
    <use x="704.980469" xlink:href="#DejaVuSans-52"/>
    <use x="774.400391" xlink:href="#DejaVuSans-65"/>
    <use x="835.923828" xlink:href="#DejaVuSans-73"/>
    <use x="888.023438" xlink:href="#DejaVuSans-75"/>
    <use x="951.402344" xlink:href="#DejaVuSans-6c"/>
    <use x="979.185547" xlink:href="#DejaVuSans-74"/>
    <use x="1018.394531" xlink:href="#DejaVuSans-73"/>
    <use x="1070.494141" xlink:href="#DejaVuSans-3a"/>
    <use x="1104.185547" xlink:href="#DejaVuSans-20"/>
    <use x="1135.972656" xlink:href="#DejaVuSans-46"/>
    <use x="1193.492188" xlink:href="#DejaVuSans-46"/>
    <use x="1251.011719" xlink:href="#DejaVuSans-20"/>
    <use x="1282.798828" xlink:href="#DejaVuSans-4e"/>
    <use x="1357.603516" xlink:href="#DejaVuSans-65"/>
    <use x="1419.126953" xlink:href="#DejaVuSans-74"/>
    <use x="1458.335938" xlink:href="#DejaVuSans-77"/>
    <use x="1540.123047" xlink:href="#DejaVuSans-6f"/>
    <use x="1601.304688" xlink:href="#DejaVuSans-72"/>
    <use x="1642.417969" xlink:href="#DejaVuSans-6b"/>
    <use x="1700.328125" xlink:href="#DejaVuSans-20"/>
    <use x="1732.115234" xlink:href="#DejaVuSans-44"/>
    <use x="1809.117188" xlink:href="#DejaVuSans-65"/>
    <use x="1870.640625" xlink:href="#DejaVuSans-76"/>
    <use x="1929.820312" xlink:href="#DejaVuSans-65"/>
    <use x="1991.34375" xlink:href="#DejaVuSans-6c"/>
    <use x="2019.126953" xlink:href="#DejaVuSans-6f"/>
    <use x="2080.308594" xlink:href="#DejaVuSans-70"/>
    <use x="2143.785156" xlink:href="#DejaVuSans-6d"/>
    <use x="2241.197266" xlink:href="#DejaVuSans-65"/>
    <use x="2302.720703" xlink:href="#DejaVuSans-6e"/>
    <use x="2366.099609" xlink:href="#DejaVuSans-74"/>
   </g>
  </g>
 </g>
 <defs>
  <clipPath id="p95495d55e6">
   <rect height="205.88" width="247.05" x="30.425" y="40.32"/>
  </clipPath>
  <clipPath id="pabbba4c5c5">
   <rect height="205.88" width="247.05" x="314.65" y="40.32"/>
  </clipPath>
 </defs>
</svg>
